<?xml version="1.0" standalone="no"?>
<!DOCTYPE svg PUBLIC "-//W3C//DTD SVG 1.1//EN" "http://www.w3.org/Graphics/SVG/1.1/DTD/svg11.dtd" >
<svg xmlns="http://www.w3.org/2000/svg" xmlns:xlink="http://www.w3.org/1999/xlink" version="1.1">
<metadata>
Created by FontForge 20201107 at Tue Jan 25 18:07:06 2022
 By 
Copyright (c) 2020 CoType Foundry. All Rights Reserved.
</metadata>
<defs>
<font id="AeonikFono-Bold" horiz-adv-x="620" >
  <font-face 
    font-family="Aeonik Fono"
    font-weight="700"
    font-stretch="normal"
    units-per-em="1000"
    panose-1="2 11 8 4 3 3 0 0 0 0"
    ascent="800"
    descent="-200"
    x-height="514"
    cap-height="700"
    bbox="-200 -206 831 943"
    underline-thickness="86"
    underline-position="-286"
    unicode-range="U+000D-1F10C"
  />
<missing-glyph horiz-adv-x="660" 
d="M580 -109h-500v829h500v-829zM237 452q32 0 52 18.5t22 48.5h-46q-7 -29 -30 -29q-35 0 -35 52t35 52q23 0 30 -30h46q-2 31 -22 49.5t-52 18.5q-41 0 -63 -24t-22 -66t22 -66t63 -24zM414 452q39 0 63 25t24 65q0 39 -24 64.5t-63 25.5q-40 0 -63.5 -25.5t-23.5 -64.5
q0 -40 23.5 -65t63.5 -25zM414 490q-39 0 -39 52t39 52t39 -52t-39 -52zM211 360v-138h47v138h50v40h-146v-40h49zM390 288v-66h47v66l64 112h-52l-35 -65l-33 65h-55zM177 169v-178h46v55h28q30 0 48.5 16.5t18.5 44.5t-18.5 45t-48.5 17h-74zM358 169v-178h125v40h-78v31
h60v37h-60v30h75v40h-122zM247 84h-24v47h24q24 0 24 -24q0 -23 -24 -23z" />
    <glyph glyph-name=".notdef" horiz-adv-x="660" 
d="M580 -109h-500v829h500v-829zM237 452q32 0 52 18.5t22 48.5h-46q-7 -29 -30 -29q-35 0 -35 52t35 52q23 0 30 -30h46q-2 31 -22 49.5t-52 18.5q-41 0 -63 -24t-22 -66t22 -66t63 -24zM414 452q39 0 63 25t24 65q0 39 -24 64.5t-63 25.5q-40 0 -63.5 -25.5t-23.5 -64.5
q0 -40 23.5 -65t63.5 -25zM414 490q-39 0 -39 52t39 52t39 -52t-39 -52zM211 360v-138h47v138h50v40h-146v-40h49zM390 288v-66h47v66l64 112h-52l-35 -65l-33 65h-55zM177 169v-178h46v55h28q30 0 48.5 16.5t18.5 44.5t-18.5 45t-48.5 17h-74zM358 169v-178h125v40h-78v31
h60v37h-60v30h75v40h-122zM247 84h-24v47h24q24 0 24 -24q0 -23 -24 -23z" />
    <glyph glyph-name=".null" horiz-adv-x="600" 
 />
    <glyph glyph-name="nonmarkingreturn" horiz-adv-x="333" 
 />
    <glyph glyph-name="CR" unicode="&#xd;" horiz-adv-x="600" 
 />
    <glyph glyph-name="space" unicode=" " horiz-adv-x="327" 
 />
    <glyph glyph-name="exclam" unicode="!" horiz-adv-x="332" 
d="M220 233h-108l-23 467h153zM165 -6q-38 0 -63 24.5t-25 62.5q0 37 25 62t63 25q39 0 64.5 -24.5t25.5 -62.5t-25.5 -62.5t-64.5 -24.5z" />
    <glyph glyph-name="quotedbl" unicode="&#x22;" horiz-adv-x="542" 
d="M209 405h-96l-31 202q-7 43 14 70.5t65 27.5q45 0 65.5 -27.5t13.5 -70.5zM429 405h-96l-31 202q-7 43 14 70.5t65 27.5q45 0 65.5 -27.5t13.5 -70.5z" />
    <glyph glyph-name="numbersign" unicode="#" horiz-adv-x="590" 
d="M201 0h-116l22 141h-70v117h87l12 90h-77v117h94l22 141h115l-21 -141h99l22 141h115l-21 -141h69v-117h-87l-12 -90h78v-117h-95l-22 -141h-115l21 141h-99zM252 348l-14 -90h100l14 90h-100z" />
    <glyph glyph-name="dollar" unicode="$" horiz-adv-x="634" 
d="M591 208q0 -86 -62 -144t-163 -68v-103h-124v110q-91 19 -144 79t-54 148h147q5 -54 41.5 -85.5t95.5 -31.5q52 0 82.5 22t30.5 62t-34 59.5t-130 37.5q-111 22 -164 68t-53 132q0 78 49 133t133 72v109h124v-105q96 -14 152.5 -71.5t58.5 -145.5h-146q-6 48 -37 74
t-81 26q-47 0 -75 -20.5t-28 -58.5q0 -39 33.5 -57t129.5 -36q109 -20 163.5 -69.5t54.5 -136.5z" />
    <glyph glyph-name="percent" unicode="%" horiz-adv-x="734" 
d="M186 362q-66 0 -105.5 46.5t-39.5 125.5t39.5 125.5t105.5 46.5t105.5 -46.5t39.5 -125.5t-39.5 -125.5t-105.5 -46.5zM240 0h-102l356 700h102zM186 451q46 0 46 83t-46 83t-46 -83t46 -83zM548 -6q-66 0 -105 46.5t-39 125.5t39 125.5t105 46.5t105.5 -46.5
t39.5 -125.5t-39 -125.5t-106 -46.5zM548 83q46 0 46 83q0 82 -46 82t-46 -82q0 -83 46 -83z" />
    <glyph glyph-name="ampersand" unicode="&#x26;" horiz-adv-x="672" 
d="M519 165l21 -23q18 -20 43 -20h40v-122h-68q-62 0 -108 53l-11 12q-71 -71 -170 -71q-96 0 -156 52t-59 139q3 121 119 190q-55 72 -55 144q0 82 55.5 134.5t140.5 52.5q77 0 128.5 -45.5t51.5 -114.5q0 -111 -142 -191l1 -1l92 -103l65 127h122zM308 602q-31 0 -49 -19
t-18 -51q0 -48 43 -103q85 44 85 107q0 30 -17 48t-44 18zM274 104q56 0 93 41l-133 153q-56 -40 -56 -101q0 -42 26.5 -67.5t69.5 -25.5z" />
    <glyph glyph-name="quotesingle" unicode="'" horiz-adv-x="322" 
d="M209 405h-96l-31 202q-7 43 14 70.5t65 27.5q45 0 65.5 -27.5t13.5 -70.5z" />
    <glyph glyph-name="parenleft" unicode="(" horiz-adv-x="426" 
d="M414 -130h-158q-95 101 -140 205t-45 225q0 235 185 430h158q-110 -117 -157 -216t-47 -214q0 -117 47 -216.5t157 -213.5z" />
    <glyph glyph-name="parenright" unicode=")" horiz-adv-x="426" 
d="M12 730h158q95 -101 140 -205t45 -225q0 -235 -185 -430h-158q110 117 157 216t47 214q0 117 -47 216.5t-157 213.5z" />
    <glyph glyph-name="asterisk" unicode="*" horiz-adv-x="558" 
d="M278 416l-95 -131l-82 71l101 111l-146 54l44 98l130 -65l-4 146h105l-4 -147l130 65l44 -99l-146 -53l100 -111l-81 -71z" />
    <glyph glyph-name="plus" unicode="+" horiz-adv-x="578" 
d="M354 60h-129v182h-171v119h171v181h129v-181h171v-119h-171v-182z" />
    <glyph glyph-name="comma" unicode="," horiz-adv-x="317" 
d="M64 -143v74q46 0 71 20t25 49q0 10 -1 14q-16 -8 -35 -8q-30 0 -50 21t-20 58q0 35 25.5 59t65.5 24q49 0 79.5 -38t30.5 -99q0 -82 -52.5 -128t-138.5 -46z" />
    <glyph glyph-name="hyphen" unicode="-" horiz-adv-x="480" 
d="M415 227h-350v115h350v-115z" />
    <glyph glyph-name="period" unicode="." horiz-adv-x="317" 
d="M158 -6q-38 0 -63 24.5t-25 62.5t25 62.5t63 24.5t63.5 -25t25.5 -62q0 -38 -25.5 -62.5t-63.5 -24.5z" />
    <glyph glyph-name="slash" unicode="/" horiz-adv-x="464" 
d="M158 -108h-133l283 838h134z" />
    <glyph glyph-name="zero" unicode="0" horiz-adv-x="636" 
d="M318 706q124 0 194.5 -91t70.5 -249v-32q0 -161 -70.5 -250.5t-194.5 -89.5t-194.5 89.5t-70.5 250.5v32q0 158 70.5 249t194.5 91zM194 361v-22q0 -23 2 -57l219 245q-31 66 -97 66q-124 0 -124 -232zM442 339v22q0 21 -2 57l-218 -246q32 -64 96 -64q124 0 124 231z
" />
    <glyph glyph-name="one" unicode="1" horiz-adv-x="541" 
d="M354 700v-578h155v-122h-464v122h166v324q-13 -4 -34 -4h-129v119h113q25 0 38.5 20.5t13.5 50.5v68h141z" />
    <glyph glyph-name="two" unicode="2" horiz-adv-x="571" 
d="M535 0h-501v111l258 220q48 42 71 75.5t23 73.5q0 50 -28 77.5t-74 27.5q-48 0 -77.5 -33t-29.5 -89v-11h-145v20q0 101 69 167.5t183 66.5q118 0 182.5 -60t64.5 -160q0 -71 -33.5 -124t-104.5 -113l-149 -128h291v-121z" />
    <glyph glyph-name="three" unicode="3" horiz-adv-x="608" 
d="M432 362q56 -14 89.5 -54t33.5 -110q0 -92 -68.5 -148t-187.5 -56q-123 0 -193.5 61.5t-70.5 172.5h143q1 -58 34.5 -89.5t87.5 -31.5q48 0 78.5 27t30.5 73q0 42 -28 66t-82 24h-69v116h60q53 0 80.5 25t27.5 68q0 41 -29.5 64t-73.5 23q-47 0 -77.5 -29.5t-32.5 -77.5
h-140q1 99 72 159.5t181 60.5q114 0 179.5 -53t65.5 -140q0 -58 -30.5 -96.5t-80.5 -54.5z" />
    <glyph glyph-name="four" unicode="4" horiz-adv-x="611" 
d="M494 0h-141v150h-325v119l285 431h181v-430h82v-120h-82v-150zM353 553l-187 -283h187v283z" />
    <glyph glyph-name="five" unicode="5" horiz-adv-x="608" 
d="M337 477q103 0 166 -66.5t63 -173.5q0 -116 -73.5 -179.5t-184.5 -63.5q-115 0 -185.5 66t-75.5 165h143q6 -50 37 -81.5t82 -31.5q46 0 79 33t33 92q0 56 -31 91t-82 35q-33 0 -64.5 -17t-47.5 -56h-139l20 410h448v-121h-317l-8 -153q51 51 137 51z" />
    <glyph glyph-name="six" unicode="6" horiz-adv-x="626" 
d="M331 -6q-142 0 -217 110q-61 88 -61 239q0 174 74.5 268.5t205.5 94.5q97 0 164.5 -54.5t79.5 -148.5h-142q-10 42 -39.5 64.5t-73.5 22.5q-62 0 -96.5 -56.5t-34.5 -141.5v-17q6 10 9 16q23 35 64.5 56.5t89.5 21.5q103 0 166 -65.5t63 -171.5q0 -107 -69.5 -172.5
t-182.5 -65.5zM330 107q49 0 79 34.5t30 90.5t-29 90.5t-79 34.5t-81 -34.5t-31 -90.5t30.5 -90.5t80.5 -34.5z" />
    <glyph glyph-name="seven" unicode="7" horiz-adv-x="553" 
d="M225 0h-156l285 578h-332v122h499v-93z" />
    <glyph glyph-name="eight" unicode="8" horiz-adv-x="636" 
d="M467 367q50 -18 83 -61.5t33 -107.5q0 -92 -70 -148t-195 -56q-124 0 -194.5 56t-70.5 148q0 64 33 107t84 61q-43 19 -71.5 57.5t-28.5 92.5q0 86 67.5 138t180.5 52t180.5 -52t67.5 -138q0 -51 -28 -90.5t-71 -58.5zM318 600q-46 0 -75 -25t-29 -65q0 -41 29 -66
t75 -25q47 0 75.5 25t28.5 66q0 40 -28.5 65t-75.5 25zM318 100q53 0 86 28.5t33 73.5t-33 73.5t-86 28.5q-52 0 -85 -28.5t-33 -73.5t33 -73.5t85 -28.5z" />
    <glyph glyph-name="nine" unicode="9" horiz-adv-x="627" 
d="M294 -6q-106 0 -170.5 53.5t-76.5 149.5h142q9 -41 38.5 -64t74.5 -23q63 0 97.5 57t34.5 141v18q-3 -6 -16 -22q-51 -70 -145 -70q-104 0 -166.5 63.5t-62.5 170.5q0 105 69.5 171.5t182.5 66.5q136 0 210 -102q68 -91 68 -246q0 -175 -72.5 -269.5t-207.5 -94.5z
M295 345q50 0 81 34.5t31 90.5t-30 89.5t-80 33.5t-79.5 -34t-29.5 -89t29 -90t78 -35z" />
    <glyph glyph-name="colon" unicode=":" horiz-adv-x="317" 
d="M158 342q-38 0 -63 24.5t-25 61.5q0 38 25 63t63 25t63.5 -25t25.5 -63q0 -37 -25.5 -61.5t-63.5 -24.5zM158 -6q-38 0 -63 24.5t-25 62.5t25 62.5t63 24.5t63.5 -25t25.5 -62q0 -38 -25.5 -62.5t-63.5 -24.5z" />
    <glyph glyph-name="semicolon" unicode=";" horiz-adv-x="317" 
d="M158 342q-38 0 -63 24.5t-25 61.5q0 38 25 63t63 25t63.5 -25t25.5 -63q0 -37 -25.5 -61.5t-63.5 -24.5zM69 -143v74q46 0 71 20t25 49q0 10 -1 14q-16 -8 -35 -8q-30 0 -50 21t-20 58q0 35 25.5 59t65.5 24q49 0 79.5 -38t30.5 -99q0 -82 -52.5 -128t-138.5 -46z" />
    <glyph glyph-name="less" unicode="&#x3c;" horiz-adv-x="578" 
d="M506 184v-138l-433 182v133l433 183v-138l-274 -111z" />
    <glyph glyph-name="equal" unicode="=" horiz-adv-x="578" 
d="M514 352h-449v120h449v-120zM514 115h-449v120h449v-120z" />
    <glyph glyph-name="greater" unicode="&#x3e;" horiz-adv-x="578" 
d="M506 228l-433 -182v138l274 111l-274 111v138l433 -183v-133z" />
    <glyph glyph-name="question" unicode="?" horiz-adv-x="583" 
d="M349 233h-134v26q0 38 15.5 66t34.5 43t57 38q68 43 68 98q0 36 -25.5 58.5t-67.5 22.5q-48 0 -76.5 -33.5t-28.5 -88.5h-144q0 103 66.5 173t181.5 70q109 0 173.5 -52.5t64.5 -136.5q0 -65 -26.5 -102.5t-77.5 -72.5q-36 -25 -47 -33.5t-22.5 -24.5t-11.5 -35v-16z
M283 -6q-38 0 -63 24.5t-25 62.5q0 37 25 62t63 25q39 0 64.5 -24.5t25.5 -62.5t-25.5 -62.5t-64.5 -24.5z" />
    <glyph glyph-name="at" unicode="@" horiz-adv-x="714" 
d="M378 -158q-154 0 -244.5 107t-90.5 293q0 196 91 317t236 121q141 0 220.5 -96.5t79.5 -268.5q0 -124 -44.5 -196t-119.5 -72q-71 0 -86 68l-2 11q-28 -78 -100 -78q-55 0 -88.5 51.5t-33.5 140.5q0 100 40.5 165t102.5 65q31 0 52 -16t28 -43l12 52h84l-22 -290
q-4 -54 25 -54q30 0 50 54.5t20 146.5q0 138 -56.5 211.5t-162.5 73.5q-108 0 -175.5 -99.5t-67.5 -261.5q0 -158 66 -241.5t190 -83.5q88 0 153 41l-3 -80q-59 -38 -154 -38zM345 144q30 0 47.5 35.5t17.5 100.5q0 93 -52 93q-29 0 -47 -34t-18 -90q0 -51 14 -78t38 -27z
" />
    <glyph glyph-name="A" unicode="A" horiz-adv-x="668" 
d="M168 0h-154l228 700h184l228 -700h-159l-47 153h-233zM330 545l-82 -271h166z" />
    <glyph glyph-name="B" unicode="B" horiz-adv-x="644" 
d="M341 0h-269v700h257q117 0 181 -49t64 -136q0 -126 -126 -155q71 -9 111 -49.5t40 -111.5q0 -93 -67.5 -146t-190.5 -53zM222 585v-174h105q47 0 72.5 23t25.5 64q0 40 -25.5 63.5t-72.5 23.5h-105zM222 297v-181h114q54 0 82.5 23.5t28.5 66.5t-29 67t-82 24h-114z" />
    <glyph glyph-name="C" unicode="C" horiz-adv-x="670" 
d="M348 -6q-145 0 -225 93.5t-80 262.5t81.5 262.5t230.5 93.5q113 0 187.5 -68.5t87.5 -187.5h-151q-28 129 -129 129q-75 0 -114 -59t-39 -170t38.5 -170t112.5 -59q103 0 130 129h152q-13 -120 -88.5 -188t-193.5 -68z" />
    <glyph glyph-name="D" unicode="D" horiz-adv-x="682" 
d="M310 0h-238v700h238q152 0 240.5 -94.5t88.5 -254.5q0 -159 -89 -255t-240 -96zM222 575v-450h88q86 0 130.5 59t44.5 167q0 107 -44.5 165.5t-130.5 58.5h-88z" />
    <glyph glyph-name="E" unicode="E" horiz-adv-x="575" 
d="M535 0h-463v700h451v-129h-301v-157h248v-123h-248v-162h313v-129z" />
    <glyph glyph-name="F" unicode="F" horiz-adv-x="555" 
d="M222 0h-150v700h453v-129h-303v-164h259v-130h-259v-277z" />
    <glyph glyph-name="G" unicode="G" horiz-adv-x="695" 
d="M334 -6q-133 0 -212 97t-79 259q0 167 81 261.5t227 94.5q114 0 189.5 -68.5t89.5 -186.5h-146q-21 130 -136 130q-75 0 -114.5 -59.5t-39.5 -171.5q0 -231 166 -231q62 0 99 37.5t37 100.5v17h-136v115h273v-389h-108l-13 81q-56 -87 -178 -87z" />
    <glyph glyph-name="H" unicode="H" horiz-adv-x="683" 
d="M222 0h-150v700h150v-281h239v281h150v-700h-150v289h-239v-289z" />
    <glyph glyph-name="I" unicode="I" horiz-adv-x="547" 
d="M492 700v-123h-143v-454h143v-123h-437v123h144v454h-144v123h437z" />
    <glyph glyph-name="J" unicode="J" horiz-adv-x="607" 
d="M543 700v-437q0 -132 -65 -200.5t-192 -68.5q-128 0 -192.5 68.5t-63.5 201.5h148q0 -141 108 -141q55 0 81 33.5t26 105.5v313h-229v125h379z" />
    <glyph glyph-name="K" unicode="K" horiz-adv-x="666" 
d="M222 0h-150v700h150v-314l243 314h172l-239 -299l256 -401h-176l-181 281l-75 -89v-192z" />
    <glyph glyph-name="L" unicode="L" horiz-adv-x="528" 
d="M498 0h-426v700h150v-571h276v-129z" />
    <glyph glyph-name="M" unicode="M" horiz-adv-x="715" 
d="M203 0h-131v700h152l137 -352l132 352h150v-700h-131v458l-117 -293h-75l-117 293v-458z" />
    <glyph glyph-name="N" unicode="N" horiz-adv-x="687" 
d="M213 0h-141v700h133l269 -433v433h141v-700h-133l-269 434v-434z" />
    <glyph glyph-name="O" unicode="O" horiz-adv-x="690" 
d="M345 -6q-136 0 -219 97t-83 259t83 259t219 97t219 -97t83 -259t-83 -259t-219 -97zM345 121q149 0 149 229t-149 229q-72 0 -110 -58t-38 -171t38 -171t110 -58z" />
    <glyph glyph-name="P" unicode="P" horiz-adv-x="638" 
d="M222 0h-150v700h280q112 0 179.5 -63.5t67.5 -169.5t-67.5 -169t-179.5 -63h-130v-235zM222 575v-215h109q53 0 84.5 29t31.5 78q0 50 -31.5 79t-84.5 29h-109z" />
    <glyph glyph-name="Q" unicode="Q" horiz-adv-x="695" 
d="M647 350q0 -138 -62 -231h54v-119h-65q-59 0 -89 27q-64 -33 -140 -33q-136 0 -219 97t-83 259t83 259t219 97t219 -97t83 -259zM197 350q0 -113 38 -171t110 -58q39 0 70 17l-25 42q-11 18 -21.5 25t-32.5 7h-55v118h61q40 0 60.5 -12t38.5 -42l35 -56q18 53 18 130
q0 229 -149 229q-72 0 -110 -58t-38 -171z" />
    <glyph glyph-name="R" unicode="R" horiz-adv-x="644" 
d="M222 0h-150v700h272q112 0 181.5 -63.5t69.5 -169.5q0 -67 -33 -119t-92 -78l141 -270h-167l-119 235h-103v-235zM222 575v-215h103q53 0 85 29t32 78t-32 78.5t-85 29.5h-103z" />
    <glyph glyph-name="S" unicode="S" horiz-adv-x="634" 
d="M327 -6q-128 0 -205 64t-78 172h147q5 -54 41.5 -85.5t95.5 -31.5q52 0 82.5 22t30.5 62t-34 59.5t-130 37.5q-111 22 -164 68t-53 132q0 94 70 153t183 59q118 0 190 -59.5t74 -160.5h-146q-6 48 -37 74t-81 26q-47 0 -75 -20.5t-28 -58.5q0 -39 33.5 -57t129.5 -36
q109 -20 163.5 -69.5t54.5 -136.5q0 -95 -73.5 -154.5t-190.5 -59.5z" />
    <glyph glyph-name="T" unicode="T" horiz-adv-x="609" 
d="M380 0h-150v571h-200v129h549v-129h-199v-571z" />
    <glyph glyph-name="U" unicode="U" horiz-adv-x="670" 
d="M335 -6q-133 0 -202 71t-69 205v430h150v-433q0 -144 121 -144q122 0 122 144v433h150v-430q0 -134 -69.5 -205t-202.5 -71z" />
    <glyph glyph-name="V" unicode="V" horiz-adv-x="648" 
d="M413 0h-177l-226 700h157l158 -519l159 519h154z" />
    <glyph glyph-name="W" unicode="W" horiz-adv-x="712" 
d="M275 0h-143l-113 700l143 1l65 -493l84 327h91l83 -327l70 492h138l-114 -700h-143l-81 324z" />
    <glyph glyph-name="X" unicode="X" horiz-adv-x="655" 
d="M180 0h-161l206 358l-195 342h170l131 -235l134 235h161l-195 -340l206 -360h-172l-141 252z" />
    <glyph glyph-name="Y" unicode="Y" horiz-adv-x="652" 
d="M401 0h-150v265l-240 435h170l146 -277l152 277h162l-240 -436v-264z" />
    <glyph glyph-name="Z" unicode="Z" horiz-adv-x="640" 
d="M590 0h-540v99l333 473h-324v128h522v-99l-331 -473h340v-128z" />
    <glyph glyph-name="bracketleft" unicode="[" horiz-adv-x="459" 
d="M416 -130h-334v860h334v-123h-202v-614h202v-123z" />
    <glyph glyph-name="backslash" unicode="\" horiz-adv-x="464" 
d="M159 730l283 -838h-134l-283 838h134z" />
    <glyph glyph-name="bracketright" unicode="]" horiz-adv-x="459" 
d="M44 730h334v-860h-334v123h201v614h-201v123z" />
    <glyph glyph-name="asciicircum" unicode="^" horiz-adv-x="581" 
d="M160 429h-130l205 359h112l205 -359h-136l-129 223z" />
    <glyph glyph-name="underscore" unicode="_" horiz-adv-x="576" 
d="M526 -121h-476v115h476v-115z" />
    <glyph glyph-name="grave" unicode="`" horiz-adv-x="600" 
d="M325 556h-106l-125 150h161z" />
    <glyph glyph-name="a" unicode="a" horiz-adv-x="583" 
d="M540 119h15v-119h-69q-91 0 -93 75q-58 -81 -164 -81q-83 0 -135.5 40t-52.5 112q0 82 59.5 126t173.5 44h97v25q0 35 -23.5 55.5t-66.5 20.5q-38 0 -63 -17t-29 -46h-137q8 75 71 120.5t164 45.5q107 0 165.5 -48t58.5 -139v-182q0 -19 6 -25.5t23 -6.5zM371 208v14h-99
q-43 0 -66 -17.5t-23 -49.5q0 -27 19.5 -43t53.5 -16q52 0 83.5 31t31.5 81z" />
    <glyph glyph-name="b" unicode="b" horiz-adv-x="640" 
d="M364 520q102 0 167.5 -71t65.5 -191q0 -118 -67.5 -191t-172.5 -73q-94 0 -150 70l-13 -64h-123v700h141v-251q56 71 152 71zM332 109q55 0 88 41t33 107t-33 107t-88 41q-56 0 -89 -40.5t-33 -106.5q0 -67 33 -108t89 -41z" />
    <glyph glyph-name="c" unicode="c" horiz-adv-x="588" 
d="M301 -6q-120 0 -189 70.5t-69 192.5q0 119 71.5 191t191.5 72q102 0 165.5 -52.5t77.5 -145.5h-147q-18 83 -98 83q-53 0 -85 -41t-32 -107t32 -107t85 -41q39 0 64.5 22.5t33.5 62.5h148q-14 -93 -80 -146.5t-169 -53.5z" />
    <glyph glyph-name="d" unicode="d" horiz-adv-x="640" 
d="M428 456v244h141v-700h-123l-14 72q-58 -78 -154 -78q-104 0 -169.5 72t-65.5 192q0 117 68 189.5t170 72.5q91 0 147 -64zM309 109q55 0 88 40.5t33 106.5q0 67 -33 108t-88 41q-56 0 -89 -41t-33 -107t33 -107t89 -41z" />
    <glyph glyph-name="e" unicode="e" horiz-adv-x="602" 
d="M312 -6q-125 0 -197 71t-72 191t71 192t189 72q114 0 184 -67t71 -180q0 -26 -4 -49h-364v-6q2 -54 34 -85.5t83 -31.5q87 0 105 73h139q-12 -78 -76 -129t-163 -51zM193 317h224q-7 47 -37 72.5t-76 25.5q-45 0 -75 -26.5t-36 -71.5z" />
    <glyph glyph-name="f" unicode="f" horiz-adv-x="480" 
d="M287 0h-141v395h-120v119h120v38q0 72 39 110t116 38h149v-117h-123q-42 0 -42 -42v-27h165v-119h-163v-395z" />
    <glyph glyph-name="g" unicode="g" horiz-adv-x="640" 
d="M434 448l11 66h124v-499q0 -101 -66 -161t-204 -60q-108 0 -174.5 48t-70.5 136h143q17 -77 112 -77q122 0 122 119v55q-54 -72 -153 -72q-103 0 -169 70.5t-66 188.5q0 116 68 187.5t170 71.5q95 0 153 -73zM309 116q55 0 88 40t33 104q0 65 -33 106t-88 41
q-56 0 -89 -40.5t-33 -105.5q0 -64 33 -104.5t89 -40.5z" />
    <glyph glyph-name="h" unicode="h" horiz-adv-x="627" 
d="M359 520q92 0 147.5 -56.5t55.5 -174.5v-289h-141v276q0 123 -99 123q-52 0 -81 -34.5t-29 -96.5v-268h-141v700h141v-245q55 65 147 65z" />
    <glyph glyph-name="i" unicode="i" horiz-adv-x="494" 
d="M254 581q-36 0 -60.5 23.5t-24.5 59.5q0 35 24.5 59t60.5 24t60 -24t24 -59q0 -36 -24 -59.5t-60 -23.5zM325 119h136v-119h-419v119h141v276h-141v119h283v-395z" />
    <glyph glyph-name="j" unicode="j" horiz-adv-x="439" 
d="M298 581q-36 0 -60.5 23.5t-24.5 59.5q0 35 24.5 59t60.5 24t60 -24t24 -59q0 -36 -24 -59.5t-60 -23.5zM20 395v119h348v-558q0 -73 -38 -114.5t-110 -41.5h-200v119h156q51 0 51 57v419h-207z" />
    <glyph glyph-name="k" unicode="k" horiz-adv-x="590" 
d="M212 0h-141v700h141v-404l201 218h159l-186 -203l194 -311h-164l-129 208l-75 -82v-126z" />
    <glyph glyph-name="l" unicode="l" horiz-adv-x="489" 
d="M320 119h135v-119h-418v119h141v462h-141v119h283v-581z" />
    <glyph glyph-name="m" unicode="m" horiz-adv-x="828" 
d="M592 521q80 0 125.5 -50.5t45.5 -140.5v-330h-135v311q0 40 -17 64t-52 24t-54.5 -25t-19.5 -64v-310h-136v311q0 88 -70 88q-35 0 -54 -24t-19 -64v-311h-135v514h114l7 -50q46 57 125 57q44 0 78.5 -19.5t53.5 -54.5q52 74 143 74z" />
    <glyph glyph-name="n" unicode="n" horiz-adv-x="622" 
d="M357 520q89 0 144.5 -55t55.5 -176v-289h-141v273q0 126 -98 126q-51 0 -78.5 -34t-27.5 -100v-265h-141v514h123l13 -63q53 69 150 69z" />
    <glyph glyph-name="o" unicode="o" horiz-adv-x="615" 
d="M307 -6q-119 0 -191.5 72.5t-72.5 190.5t72.5 190.5t191.5 72.5t192 -72.5t73 -190.5t-73 -190.5t-192 -72.5zM307 109q55 0 88 41t33 107t-33 107t-88 41q-54 0 -87 -41.5t-33 -106.5t33 -106.5t87 -41.5z" />
    <glyph glyph-name="p" unicode="p" horiz-adv-x="639" 
d="M362 520q103 0 168.5 -72t65.5 -192q0 -118 -65.5 -190t-167.5 -72q-96 0 -151 70v-264h-141v714h123l14 -70q55 76 154 76zM331 109q55 0 88 41t33 108q0 66 -33 106.5t-88 40.5q-56 0 -88.5 -40.5t-32.5 -106.5t33 -107.5t88 -41.5z" />
    <glyph glyph-name="q" unicode="q" horiz-adv-x="640" 
d="M433 450l13 64h123v-714h-141v265q-57 -71 -151 -71q-103 0 -168.5 71t-65.5 191q0 118 67 191t172 73q96 0 151 -70zM309 109q55 0 88 41t33 107t-33 107t-88 41q-56 0 -89 -40.5t-33 -106.5t33 -107.5t89 -41.5z" />
    <glyph glyph-name="r" unicode="r" horiz-adv-x="527" 
d="M493 386h-84q-63 0 -92.5 -36t-29.5 -98v-133h141v-119h-386v119h104v276h-104v119h235l4 -89q49 89 153 89h59v-128z" />
    <glyph glyph-name="s" unicode="s" horiz-adv-x="547" 
d="M280 -6q-106 0 -171.5 47.5t-69.5 129.5h134q3 -35 31 -55.5t77 -20.5q90 0 90 55q0 29 -22.5 38t-90.5 18q-102 12 -155.5 43t-53.5 104q0 76 59.5 122t157.5 46q103 0 166.5 -44t67.5 -122h-134q-4 31 -29.5 48.5t-66.5 17.5q-39 0 -62.5 -14t-23.5 -39q0 -14 6.5 -23
t25 -14.5t33.5 -8t49 -6.5q47 -5 80.5 -13.5t65.5 -25t48 -45.5t16 -71q0 -76 -63 -121.5t-165 -45.5z" />
    <glyph glyph-name="t" unicode="t" horiz-adv-x="500" 
d="M458 0h-164q-147 0 -147 147v248h-121v119h121v144h141v-144h168v-119h-168v-225q0 -27 11.5 -39t39.5 -12h119v-119z" />
    <glyph glyph-name="u" unicode="u" horiz-adv-x="619" 
d="M407 253v261h141v-514h-125l-12 61q-57 -67 -147 -67q-88 0 -143.5 53.5t-55.5 177.5v289h141v-270q0 -128 95 -128q50 0 78 35.5t28 101.5z" />
    <glyph glyph-name="v" unicode="v" horiz-adv-x="574" 
d="M375 0h-175l-188 514h151l127 -370l125 370h148z" />
    <glyph glyph-name="w" unicode="w" horiz-adv-x="682" 
d="M267 0h-135l-109 514h134l63 -353l78 286h92l77 -286l63 353h130l-110 -514h-134l-74 261z" />
    <glyph glyph-name="x" unicode="x" horiz-adv-x="568" 
d="M163 0h-152l190 262l-181 252h162l105 -151l109 151h152l-181 -252l191 -262h-162l-117 161z" />
    <glyph glyph-name="y" unicode="y" horiz-adv-x="577" 
d="M196 -200h-142v119h83q27 0 39 9t23 35l13 34l-200 517h150l127 -366l126 366h151l-231 -587q-28 -70 -55 -98.5t-84 -28.5z" />
    <glyph glyph-name="z" unicode="z" horiz-adv-x="553" 
d="M511 0h-469v102l269 293h-258v119h447v-102l-270 -293h281v-119z" />
    <glyph glyph-name="braceleft" unicode="{" horiz-adv-x="475" 
d="M431 607h-96q-33 0 -51.5 -17t-18.5 -48q0 -14 4 -27l19 -75q4 -22 4 -33q0 -38 -25 -66t-70 -40q45 -7 70.5 -34.5t25.5 -67.5q0 -21 -5 -39l-19 -75q-4 -15 -4 -27q0 -31 18.5 -48t51.5 -17h96v-123h-90q-98 0 -154.5 41.5t-56.5 113.5q0 20 4 39l18 83q2 10 2 28
q0 64 -102 64v122q103 0 103 64q0 13 -3 28l-18 83q-4 19 -4 40q0 71 56.5 112.5t154.5 41.5h90v-123z" />
    <glyph glyph-name="bar" unicode="|" horiz-adv-x="364" 
d="M253 -108h-141v838h141v-838z" />
    <glyph glyph-name="braceright" unicode="}" horiz-adv-x="475" 
d="M423 361v-122q-102 0 -102 -64q0 -18 2 -28l18 -83q4 -19 4 -39q0 -72 -56.5 -113.5t-154.5 -41.5h-90v123h96q33 0 51.5 17t18.5 48q0 12 -4 27l-19 75q-5 18 -5 39q0 40 25.5 67.5t70.5 34.5q-45 12 -70 40t-25 66q0 11 4 33l19 75q4 13 4 27q0 31 -18.5 48t-51.5 17
h-96v123h90q98 0 154.5 -41.5t56.5 -112.5q0 -21 -4 -40l-18 -83q-3 -15 -3 -28q0 -64 103 -64z" />
    <glyph glyph-name="asciitilde" unicode="~" horiz-adv-x="578" 
d="M165 209h-113q0 93 35.5 140.5t102.5 47.5q42 0 74.5 -15.5t54.5 -31t41 -15.5q54 0 54 62h113q0 -187 -140 -187q-42 0 -73.5 15t-54 30.5t-41.5 15.5q-53 0 -53 -62z" />
    <glyph glyph-name="uni00A0" unicode="&#xa0;" horiz-adv-x="327" 
 />
    <glyph glyph-name="exclamdown" unicode="&#xa1;" horiz-adv-x="332" 
d="M165 706q39 0 64.5 -24.5t25.5 -62.5t-25.5 -62.5t-64.5 -24.5q-38 0 -63 25t-25 62q0 38 25 62.5t63 24.5zM89 0l23 467h108l22 -467h-153z" />
    <glyph glyph-name="cent" unicode="&#xa2;" horiz-adv-x="588" 
d="M402 286h148q-12 -79 -62 -130t-129 -65v-91h-124v92q-91 19 -141.5 86.5t-50.5 170.5q0 100 51 167.5t141 87.5v96h124v-92q80 -13 129 -63.5t61 -130.5h-147q-18 83 -98 83q-53 0 -85 -41t-32 -107t32 -107t85 -41q39 0 64.5 22.5t33.5 62.5z" />
    <glyph glyph-name="sterling" unicode="&#xa3;" horiz-adv-x="623" 
d="M580 0h-529v121q60 60 63 146h-83v102h71q-20 75 -20 112q0 98 68.5 161t173.5 63q115 0 184.5 -65.5t74.5 -178.5h-138q-5 58 -34.5 90t-80.5 32q-47 0 -77 -29.5t-30 -77.5q0 -25 21 -107h183v-102h-170q2 -33 -12.5 -71t-40.5 -67l376 -2v-127z" />
    <glyph glyph-name="currency" unicode="&#xa4;" horiz-adv-x="635" 
d="M193 119l-58 -62l-99 94l65 68q-30 58 -30 124q0 75 35 133l-70 73l99 94l66 -70q55 33 117 33q61 0 116 -33l67 70l98 -94l-70 -73q36 -59 36 -133q0 -67 -31 -124l65 -68l-98 -94l-59 62q-53 -38 -124 -38q-70 0 -125 38zM318 198q58 0 93 40t35 105q0 66 -35.5 106
t-92.5 40q-58 0 -93 -40t-35 -106q0 -65 35 -105t93 -40z" />
    <glyph glyph-name="yen" unicode="&#xa5;" horiz-adv-x="635" 
d="M464 700h160l-188 -353h126v-102h-170v-59h170v-102h-170v-84h-146v84h-169v102h169v59h-169v102h125l-191 353h169l139 -277z" />
    <glyph glyph-name="brokenbar" unicode="&#xa6;" horiz-adv-x="364" 
d="M253 380h-141v350h141v-350zM253 -108h-141v345h141v-345z" />
    <glyph glyph-name="section" unicode="&#xa7;" horiz-adv-x="622" 
d="M563 305q0 -87 -106 -129q62 -41 62 -115q0 -76 -57 -121.5t-153 -45.5q-92 0 -150.5 43.5t-62.5 118.5h133q3 -29 24.5 -46t55.5 -17q35 0 56 15t20 42q-1 29 -22 44t-70 29q-125 38 -165 61q-70 42 -70 111q0 90 101 132q-58 40 -58 112q0 76 57.5 121.5t153.5 45.5
q92 0 150 -43.5t62 -118.5h-133q-1 29 -22.5 46t-56.5 17t-56 -15t-20 -42q0 -29 21 -44t70 -29q127 -38 168 -62q68 -41 68 -110zM312 231q10 -2 26.5 -7.5t18.5 -5.5q62 21 62 75q0 29 -24 44t-87 32q-26 7 -43 13q-64 -23 -64 -74q0 -30 24 -45t87 -32z" />
    <glyph glyph-name="dieresis" unicode="&#xa8;" horiz-adv-x="600" 
d="M171 566q-32 0 -53.5 21t-21.5 52t21.5 52t53.5 21t54 -21t22 -52t-22 -52t-54 -21zM379 566q-32 0 -53.5 21t-21.5 52t21.5 52t53.5 21t53.5 -21t21.5 -52t-21.5 -52t-53.5 -21z" />
    <glyph glyph-name="copyright" unicode="&#xa9;" horiz-adv-x="677" 
d="M338 -6q-132 0 -213.5 98t-81.5 258t81.5 258t213.5 98q133 0 214.5 -98t81.5 -258q0 -158 -82.5 -257t-213.5 -99zM338 57q101 0 164 80.5t63 212.5q0 133 -62 213t-165 80q-102 0 -164 -80t-62 -213q0 -132 62.5 -212.5t163.5 -80.5zM339 145q-73 0 -116 57t-43 149
t43 149t116 57q60 0 100.5 -41t47.5 -112h-81q-11 77 -66 77q-38 0 -58 -34.5t-20 -95.5q0 -62 20 -96.5t58 -34.5q55 0 67 77h80q-7 -72 -46 -112t-102 -40z" />
    <glyph glyph-name="ordfeminine" unicode="&#xaa;" horiz-adv-x="555" 
d="M231 380q-55 0 -89 23.5t-34 67.5q0 50 39.5 77t114.5 27h59v15q0 21 -15.5 33.5t-42.5 12.5q-21 0 -35 -11t-16 -28h-97q4 52 45 80.5t107 28.5q71 0 109.5 -31t38.5 -90v-107q0 -22 22 -22h9v-72h-46q-62 0 -62 50v5q-33 -59 -107 -59zM250 445q32 0 51.5 19.5
t19.5 50.5v3h-63q-24 0 -38 -11t-14 -29q0 -33 44 -33zM446 241h-340v79h340v-79z" />
    <glyph glyph-name="guillemotleft" unicode="&#xab;" horiz-adv-x="631" 
d="M340 0h-141l-152 257l152 257h141l-150 -257zM584 -1h-141l-152 257l152 257h141l-150 -257z" />
    <glyph glyph-name="logicalnot" unicode="&#xac;" horiz-adv-x="578" 
d="M490 84h-127v178h-299v120h426v-298z" />
    <glyph glyph-name="uni00AD" unicode="&#xad;" horiz-adv-x="480" 
d="M415 227h-350v115h350v-115z" />
    <glyph glyph-name="registered" unicode="&#xae;" horiz-adv-x="553" 
d="M276 275q-92 0 -157 62.5t-65 152.5q0 91 65 153.5t157 62.5q93 0 158 -62.5t65 -152.5q0 -91 -65 -153.5t-158 -62.5zM276 324q70 0 118 48t48 118q0 71 -48 119t-118 48t-117.5 -48.5t-47.5 -119.5q0 -70 47.5 -117.5t117.5 -47.5zM248 377h-57v228h93q41 0 66 -21
t25 -56q0 -45 -43 -66l46 -85h-63l-39 72h-28v-72zM249 559v-62h31q36 0 36 31t-36 31h-31z" />
    <glyph glyph-name="macron" unicode="&#xaf;" horiz-adv-x="600" 
d="M431 589h-311v100h311v-100z" />
    <glyph glyph-name="degree" unicode="&#xb0;" horiz-adv-x="531" 
d="M265 367q-75 0 -127 49t-52 121t52 120.5t127 48.5q76 0 127.5 -48.5t51.5 -120.5q0 -73 -51.5 -121.5t-127.5 -48.5zM265 455q35 0 58 23.5t23 58.5t-23 58t-58 23t-58 -23t-23 -58t23 -58.5t58 -23.5z" />
    <glyph glyph-name="plusminus" unicode="&#xb1;" horiz-adv-x="578" 
d="M354 132h-129v174h-171v119h171v174h129v-174h171v-119h-171v-174zM525 0h-471v119h471v-119z" />
    <glyph glyph-name="uni00B2" unicode="&#xb2;" horiz-adv-x="292" 
d="M265 436h-236v63l120 86q36 26 36 54q0 16 -12 26.5t-29 10.5q-21 0 -33 -13t-12 -37v-3h-74v6q0 50 34 81.5t83 31.5q53 0 86.5 -28t33.5 -73q0 -51 -56 -91l-64 -47h123v-67z" />
    <glyph glyph-name="uni00B3" unicode="&#xb3;" horiz-adv-x="300" 
d="M148 432q-121 0 -124 107h74q2 -20 15 -32t36 -12q21 0 33 10t12 27q0 33 -47 33h-19v49h16q46 0 46 34q0 14 -11 23t-29 9q-42 0 -44 -38h-73q1 47 32.5 74t85.5 27q52 0 83 -23.5t31 -60.5q0 -26 -14.5 -42.5t-35.5 -22.5q27 -5 42.5 -24t15.5 -44q0 -43 -33.5 -68.5
t-91.5 -25.5z" />
    <glyph glyph-name="acute" unicode="&#xb4;" horiz-adv-x="600" 
d="M329 559h-103l73 147h161z" />
    <glyph glyph-name="paragraph" unicode="&#xb6;" horiz-adv-x="721" 
d="M455 0h-115v221h-29q-106 0 -172.5 66t-66.5 173q0 108 66.5 174t172.5 66h144v-700zM629 0h-114v700h114v-700z" />
    <glyph glyph-name="periodcentered" unicode="&#xb7;" horiz-adv-x="317" 
d="M158 201q-38 0 -63 24.5t-25 62.5t25 62.5t63 24.5t63.5 -25t25.5 -62q0 -38 -25.5 -62.5t-63.5 -24.5z" />
    <glyph glyph-name="cedilla" unicode="&#xb8;" horiz-adv-x="600" 
d="M302 -200h-119v69h93q28 0 28 25q0 22 -28 22h-61l29 116h77l-17 -62h11q44 0 70 -20.5t26 -56.5q0 -43 -29.5 -68t-79.5 -25z" />
    <glyph glyph-name="uni00B9" unicode="&#xb9;" horiz-adv-x="251" 
d="M227 436h-203v67h67v114q-6 -3 -15 -3h-52v68h46q23 0 23 25v30h72v-233h62v-68z" />
    <glyph glyph-name="ordmasculine" unicode="&#xba;" horiz-adv-x="556" 
d="M277 380q-76 0 -122 45t-46 118t46 118t122 45q77 0 123 -44.5t46 -118.5t-46 -118.5t-123 -44.5zM277 456q33 0 52 24t19 63t-19 63t-52 24q-32 0 -50.5 -24t-18.5 -63t18.5 -63t50.5 -24zM446 241h-336v79h336v-79z" />
    <glyph glyph-name="guillemotright" unicode="&#xbb;" horiz-adv-x="631" 
d="M584 257l-152 -257h-141l150 257l-150 257h141zM340 256l-152 -257h-141l150 257l-150 257h141z" />
    <glyph glyph-name="onequarter" unicode="&#xbc;" horiz-adv-x="724" 
d="M227 399h-203v67h67v114q-6 -3 -15 -3h-52v68h46q23 0 23 25v30h72v-233h62v-68zM431 372h-87l180 328h87zM138 0h-87l187 328h87zM652 0h-71v67h-143v64l123 170h91v-172h45v-62h-45v-67zM581 233l-74 -104h74v104z" />
    <glyph glyph-name="onehalf" unicode="&#xbd;" horiz-adv-x="703" 
d="M227 399h-203v67h67v114q-6 -3 -15 -3h-52v68h46q23 0 23 25v30h72v-233h62v-68zM431 372h-87l180 328h87zM138 0h-87l187 328h87zM676 0h-236v63l120 86q36 26 36 54q0 16 -12 26.5t-29 10.5q-21 0 -33 -13t-12 -37v-3h-74v6q0 50 34 81.5t83 31.5q53 0 86.5 -28
t33.5 -73q0 -51 -56 -91l-64 -47h123v-67z" />
    <glyph glyph-name="threequarters" unicode="&#xbe;" horiz-adv-x="773" 
d="M148 394q-121 0 -124 107h74q2 -20 15 -32t36 -12q21 0 33 10t12 27q0 33 -47 33h-19v49h16q46 0 46 34q0 14 -11 23t-29 9q-42 0 -44 -38h-73q1 47 32.5 74t85.5 27q52 0 83 -23.5t31 -60.5q0 -26 -14.5 -42.5t-35.5 -22.5q27 -5 42.5 -24t15.5 -44q0 -43 -33.5 -68.5
t-91.5 -25.5zM480 372h-87l180 328h87zM187 0h-87l187 328h87zM701 0h-71v67h-143v64l123 170h91v-172h45v-62h-45v-67zM630 233l-74 -104h74v104z" />
    <glyph glyph-name="questiondown" unicode="&#xbf;" horiz-adv-x="583" 
d="M300 706q38 0 63 -24.5t25 -62.5q0 -37 -25 -62t-63 -25t-63.5 25t-25.5 62q0 38 25.5 62.5t63.5 24.5zM235 467h133v-26q0 -38 -15.5 -66t-34.5 -43t-57 -38q-67 -42 -67 -98q0 -36 25 -58.5t67 -22.5q48 0 77 33.5t29 88.5h143q0 -103 -66.5 -173t-181.5 -70
q-109 0 -173.5 52.5t-64.5 136.5q0 65 26.5 102.5t77.5 72.5q36 24 47.5 33t23 25t11.5 35v16z" />
    <glyph glyph-name="Agrave" unicode="&#xc0;" horiz-adv-x="668" 
d="M385 752h-106l-125 150h161zM168 0h-154l228 700h184l228 -700h-159l-47 153h-233zM330 545l-82 -271h166z" />
    <glyph glyph-name="Aacute" unicode="&#xc1;" horiz-adv-x="668" 
d="M389 755h-103l73 147h161zM168 0h-154l228 700h184l228 -700h-159l-47 153h-233zM330 545l-82 -271h166z" />
    <glyph glyph-name="Acircumflex" unicode="&#xc2;" horiz-adv-x="668" 
d="M273 754h-129l128 148h126l128 -148h-130l-61 65zM168 0h-154l228 700h184l228 -700h-159l-47 153h-233zM330 545l-82 -271h166z" />
    <glyph glyph-name="Atilde" unicode="&#xc3;" horiz-adv-x="668" 
d="M398 768q-32 0 -60.5 20.5t-41.5 20.5q-15 0 -23.5 -11t-8.5 -27h-90v23q0 48 28 79.5t71 31.5q30 0 58 -20.5t44 -20.5q14 0 23 11t9 27h89v-23q0 -47 -28 -79t-70 -32zM168 0h-154l228 700h184l228 -700h-159l-47 153h-233zM330 545l-82 -271h166z" />
    <glyph glyph-name="Adieresis" unicode="&#xc4;" horiz-adv-x="668" 
d="M231 762q-32 0 -53.5 21t-21.5 52t21.5 52t53.5 21t54 -21t22 -52t-22 -52t-54 -21zM439 762q-32 0 -53.5 21t-21.5 52t21.5 52t53.5 21t53.5 -21t21.5 -52t-21.5 -52t-53.5 -21zM168 0h-154l228 700h184l228 -700h-159l-47 153h-233zM330 545l-82 -271h166z" />
    <glyph glyph-name="Aring" unicode="&#xc5;" horiz-adv-x="668" 
d="M429 690l225 -690h-159l-47 153h-233l-47 -153h-154l225 690q-35 35 -35 84q0 50 37.5 85.5t92.5 35.5t92.5 -35.5t37.5 -85.5q0 -49 -35 -84zM334 832q-24 0 -41 -16.5t-17 -41.5t17 -42t41 -17t41 17t17 42t-17 41.5t-41 16.5zM330 545l-82 -271h166z" />
    <glyph glyph-name="AE" unicode="&#xc6;" horiz-adv-x="800" 
d="M519 297v-182h241v-115h-369v148h-187l-61 -148h-129l288 700h447v-115h-230v-175h197v-113h-197zM391 605l-137 -335h137v335z" />
    <glyph glyph-name="Ccedilla" unicode="&#xc7;" horiz-adv-x="670" 
d="M348 121q103 0 130 129h152q-13 -111 -78.5 -178t-170.5 -77l-7 -25h11q44 0 70 -20.5t26 -56.5q0 -43 -29.5 -68t-79.5 -25h-119v69h93q28 0 28 25q0 22 -28 22h-61l20 80q-125 14 -193.5 105.5t-68.5 248.5q0 169 81.5 262.5t230.5 93.5q113 0 187.5 -68.5t87.5 -187.5
h-151q-28 129 -129 129q-75 0 -114 -59t-39 -170t38.5 -170t112.5 -59z" />
    <glyph glyph-name="Egrave" unicode="&#xc8;" horiz-adv-x="575" 
d="M357 752h-106l-125 150h161zM535 0h-463v700h451v-129h-301v-157h248v-123h-248v-162h313v-129z" />
    <glyph glyph-name="Eacute" unicode="&#xc9;" horiz-adv-x="575" 
d="M361 755h-103l73 147h161zM535 0h-463v700h451v-129h-301v-157h248v-123h-248v-162h313v-129z" />
    <glyph glyph-name="Ecircumflex" unicode="&#xca;" horiz-adv-x="575" 
d="M245 754h-129l128 148h126l128 -148h-130l-61 65zM535 0h-463v700h451v-129h-301v-157h248v-123h-248v-162h313v-129z" />
    <glyph glyph-name="Edieresis" unicode="&#xcb;" horiz-adv-x="575" 
d="M203 762q-32 0 -53.5 21t-21.5 52t21.5 52t53.5 21t54 -21t22 -52t-22 -52t-54 -21zM411 762q-32 0 -53.5 21t-21.5 52t21.5 52t53.5 21t53.5 -21t21.5 -52t-21.5 -52t-53.5 -21zM535 0h-463v700h451v-129h-301v-157h248v-123h-248v-162h313v-129z" />
    <glyph glyph-name="Igrave" unicode="&#xcc;" horiz-adv-x="547" 
d="M254 902l70 -150h-106l-125 150h161zM492 700v-123h-143v-454h143v-123h-437v123h144v454h-144v123h437z" />
    <glyph glyph-name="Iacute" unicode="&#xcd;" horiz-adv-x="547" 
d="M298 902h161l-131 -147h-103zM492 700v-123h-143v-454h143v-123h-437v123h144v454h-144v123h437z" />
    <glyph glyph-name="Icircumflex" unicode="&#xce;" horiz-adv-x="547" 
d="M335 754l-61 65l-62 -65h-129l128 148h126l128 -148h-130zM492 700v-123h-143v-454h143v-123h-437v123h144v454h-144v123h437z" />
    <glyph glyph-name="Idieresis" unicode="&#xcf;" horiz-adv-x="547" 
d="M170 762q-32 0 -53.5 21t-21.5 52t21.5 52t53.5 21t54 -21t22 -52t-22 -52t-54 -21zM378 762q-32 0 -53.5 21t-21.5 52t21.5 52t53.5 21t53.5 -21t21.5 -52t-21.5 -52t-53.5 -21zM492 700v-123h-143v-454h143v-123h-437v123h144v454h-144v123h437z" />
    <glyph glyph-name="Eth" unicode="&#xd0;" horiz-adv-x="687" 
d="M77 700h238q152 0 240.5 -94.5t88.5 -254.5q0 -159 -89 -255t-240 -96h-238v303h-61v104h61v293zM227 125h88q86 0 130.5 59t44.5 167q0 107 -44.5 165.5t-130.5 58.5h-88v-168h131v-104h-131v-178z" />
    <glyph glyph-name="Ntilde" unicode="&#xd1;" horiz-adv-x="687" 
d="M401 768q-32 0 -60.5 20.5t-41.5 20.5q-15 0 -23.5 -11t-8.5 -27h-90v23q0 48 28 79.5t71 31.5q30 0 58 -20.5t44 -20.5q14 0 23 11t9 27h89v-23q0 -47 -28 -79t-70 -32zM213 0h-141v700h133l269 -433v433h141v-700h-133l-269 434v-434z" />
    <glyph glyph-name="Ograve" unicode="&#xd2;" horiz-adv-x="690" 
d="M395 752h-106l-125 150h161zM345 -6q-136 0 -219 97t-83 259t83 259t219 97t219 -97t83 -259t-83 -259t-219 -97zM345 121q149 0 149 229t-149 229q-72 0 -110 -58t-38 -171t38 -171t110 -58z" />
    <glyph glyph-name="Oacute" unicode="&#xd3;" horiz-adv-x="690" 
d="M399 755h-103l73 147h161zM345 -6q-136 0 -219 97t-83 259t83 259t219 97t219 -97t83 -259t-83 -259t-219 -97zM345 121q149 0 149 229t-149 229q-72 0 -110 -58t-38 -171t38 -171t110 -58z" />
    <glyph glyph-name="Ocircumflex" unicode="&#xd4;" horiz-adv-x="690" 
d="M283 754h-129l128 148h126l128 -148h-130l-61 65zM345 -6q-136 0 -219 97t-83 259t83 259t219 97t219 -97t83 -259t-83 -259t-219 -97zM345 121q149 0 149 229t-149 229q-72 0 -110 -58t-38 -171t38 -171t110 -58z" />
    <glyph glyph-name="Otilde" unicode="&#xd5;" horiz-adv-x="690" 
d="M408 768q-32 0 -60.5 20.5t-41.5 20.5q-15 0 -23.5 -11t-8.5 -27h-90v23q0 48 28 79.5t71 31.5q30 0 58 -20.5t44 -20.5q14 0 23 11t9 27h89v-23q0 -47 -28 -79t-70 -32zM345 -6q-136 0 -219 97t-83 259t83 259t219 97t219 -97t83 -259t-83 -259t-219 -97zM345 121
q149 0 149 229t-149 229q-72 0 -110 -58t-38 -171t38 -171t110 -58z" />
    <glyph glyph-name="Odieresis" unicode="&#xd6;" horiz-adv-x="690" 
d="M241 762q-32 0 -53.5 21t-21.5 52t21.5 52t53.5 21t54 -21t22 -52t-22 -52t-54 -21zM449 762q-32 0 -53.5 21t-21.5 52t21.5 52t53.5 21t53.5 -21t21.5 -52t-21.5 -52t-53.5 -21zM345 -6q-136 0 -219 97t-83 259t83 259t219 97t219 -97t83 -259t-83 -259t-219 -97z
M345 121q149 0 149 229t-149 229q-72 0 -110 -58t-38 -171t38 -171t110 -58z" />
    <glyph glyph-name="multiply" unicode="&#xd7;" horiz-adv-x="578" 
d="M285 210l-149 -149l-85 84l150 149l-150 150l91 92l149 -151l151 150l84 -84l-150 -150l150 -149l-91 -92z" />
    <glyph glyph-name="Oslash" unicode="&#xd8;" horiz-adv-x="690" 
d="M567 706l80 -66l-56 -69q56 -90 56 -221q0 -162 -83 -259t-219 -97q-100 0 -175 56l-45 -56l-81 66l55 68q-56 90 -56 222q0 162 83 259t219 97q102 0 176 -57zM197 350q0 -49 8 -91l232 286q-35 34 -92 34q-72 0 -110 -58t-38 -171zM494 350q0 48 -8 91l-231 -286
q34 -34 90 -34q149 0 149 229z" />
    <glyph glyph-name="Ugrave" unicode="&#xd9;" horiz-adv-x="670" 
d="M385 752h-106l-125 150h161zM335 -6q-133 0 -202 71t-69 205v430h150v-433q0 -144 121 -144q122 0 122 144v433h150v-430q0 -134 -69.5 -205t-202.5 -71z" />
    <glyph glyph-name="Uacute" unicode="&#xda;" horiz-adv-x="670" 
d="M389 755h-103l73 147h161zM335 -6q-133 0 -202 71t-69 205v430h150v-433q0 -144 121 -144q122 0 122 144v433h150v-430q0 -134 -69.5 -205t-202.5 -71z" />
    <glyph glyph-name="Ucircumflex" unicode="&#xdb;" horiz-adv-x="670" 
d="M273 754h-129l128 148h126l128 -148h-130l-61 65zM335 -6q-133 0 -202 71t-69 205v430h150v-433q0 -144 121 -144q122 0 122 144v433h150v-430q0 -134 -69.5 -205t-202.5 -71z" />
    <glyph glyph-name="Udieresis" unicode="&#xdc;" horiz-adv-x="670" 
d="M231 762q-32 0 -53.5 21t-21.5 52t21.5 52t53.5 21t54 -21t22 -52t-22 -52t-54 -21zM439 762q-32 0 -53.5 21t-21.5 52t21.5 52t53.5 21t53.5 -21t21.5 -52t-21.5 -52t-53.5 -21zM335 -6q-133 0 -202 71t-69 205v430h150v-433q0 -144 121 -144q122 0 122 144v433h150
v-430q0 -134 -69.5 -205t-202.5 -71z" />
    <glyph glyph-name="Yacute" unicode="&#xdd;" horiz-adv-x="652" 
d="M380 755h-103l73 147h161zM401 0h-150v265l-240 435h170l146 -277l152 277h162l-240 -436v-264z" />
    <glyph glyph-name="Thorn" unicode="&#xde;" horiz-adv-x="642" 
d="M222 0h-150v700h150v-111h125q118 0 187 -62.5t69 -170.5t-70 -170.5t-187 -62.5h-124v-123zM222 463v-214h109q56 0 88 28t32 79t-32 79t-87 28h-110z" />
    <glyph glyph-name="germandbls" unicode="&#xdf;" horiz-adv-x="632" 
d="M366 -6q-56 0 -104 17v104q41 -14 83 -14q48 0 78 26.5t30 71.5q0 49 -36 75.5t-97 26.5q-17 0 -30 -2v105q57 0 87 27t30 71q0 42 -26.5 66.5t-72.5 24.5q-45 0 -72 -29t-27 -78v-486h-138v479q0 108 65 167.5t172 59.5q109 0 174.5 -51t65.5 -136q0 -52 -25 -92
t-67 -58q139 -34 139 -172q0 -93 -63 -148t-166 -55z" />
    <glyph glyph-name="agrave" unicode="&#xe0;" horiz-adv-x="583" 
d="M267 716l70 -150h-106l-125 150h161zM540 119h15v-119h-69q-91 0 -93 75q-58 -81 -164 -81q-83 0 -135.5 40t-52.5 112q0 82 59.5 126t173.5 44h97v25q0 35 -23.5 55.5t-66.5 20.5q-38 0 -63 -17t-29 -46h-137q8 75 71 120.5t164 45.5q107 0 165.5 -48t58.5 -139v-182
q0 -19 6 -25.5t23 -6.5zM371 208v14h-99q-43 0 -66 -17.5t-23 -49.5q0 -27 19.5 -43t53.5 -16q52 0 83.5 31t31.5 81z" />
    <glyph glyph-name="aacute" unicode="&#xe1;" horiz-adv-x="583" 
d="M311 716h161l-131 -147h-103zM540 119h15v-119h-69q-91 0 -93 75q-58 -81 -164 -81q-83 0 -135.5 40t-52.5 112q0 82 59.5 126t173.5 44h97v25q0 35 -23.5 55.5t-66.5 20.5q-38 0 -63 -17t-29 -46h-137q8 75 71 120.5t164 45.5q107 0 165.5 -48t58.5 -139v-182
q0 -19 6 -25.5t23 -6.5zM371 208v14h-99q-43 0 -66 -17.5t-23 -49.5q0 -27 19.5 -43t53.5 -16q52 0 83.5 31t31.5 81z" />
    <glyph glyph-name="acircumflex" unicode="&#xe2;" horiz-adv-x="583" 
d="M348 568l-61 65l-62 -65h-129l128 148h126l128 -148h-130zM540 119h15v-119h-69q-91 0 -93 75q-58 -81 -164 -81q-83 0 -135.5 40t-52.5 112q0 82 59.5 126t173.5 44h97v25q0 35 -23.5 55.5t-66.5 20.5q-38 0 -63 -17t-29 -46h-137q8 75 71 120.5t164 45.5
q107 0 165.5 -48t58.5 -139v-182q0 -19 6 -25.5t23 -6.5zM371 208v14h-99q-43 0 -66 -17.5t-23 -49.5q0 -27 19.5 -43t53.5 -16q52 0 83.5 31t31.5 81z" />
    <glyph glyph-name="atilde" unicode="&#xe3;" horiz-adv-x="583" 
d="M248 623q-15 0 -23.5 -11t-8.5 -27h-90v23q0 48 28 79.5t71 31.5q30 0 58 -20.5t44 -20.5q14 0 23 11t9 27h89v-23q0 -47 -28 -79t-70 -32q-32 0 -60.5 20.5t-41.5 20.5zM540 119h15v-119h-69q-91 0 -93 75q-58 -81 -164 -81q-83 0 -135.5 40t-52.5 112q0 82 59.5 126
t173.5 44h97v25q0 35 -23.5 55.5t-66.5 20.5q-38 0 -63 -17t-29 -46h-137q8 75 71 120.5t164 45.5q107 0 165.5 -48t58.5 -139v-182q0 -19 6 -25.5t23 -6.5zM371 208v14h-99q-43 0 -66 -17.5t-23 -49.5q0 -27 19.5 -43t53.5 -16q52 0 83.5 31t31.5 81z" />
    <glyph glyph-name="adieresis" unicode="&#xe4;" horiz-adv-x="583" 
d="M183 576q-32 0 -53.5 21t-21.5 52t21.5 52t53.5 21t54 -21t22 -52t-22 -52t-54 -21zM391 576q-32 0 -53.5 21t-21.5 52t21.5 52t53.5 21t53.5 -21t21.5 -52t-21.5 -52t-53.5 -21zM540 119h15v-119h-69q-91 0 -93 75q-58 -81 -164 -81q-83 0 -135.5 40t-52.5 112
q0 82 59.5 126t173.5 44h97v25q0 35 -23.5 55.5t-66.5 20.5q-38 0 -63 -17t-29 -46h-137q8 75 71 120.5t164 45.5q107 0 165.5 -48t58.5 -139v-182q0 -19 6 -25.5t23 -6.5zM371 208v14h-99q-43 0 -66 -17.5t-23 -49.5q0 -27 19.5 -43t53.5 -16q52 0 83.5 31t31.5 81z" />
    <glyph glyph-name="aring" unicode="&#xe5;" horiz-adv-x="583" 
d="M287 553q-55 0 -92.5 35t-37.5 86q0 50 37.5 85.5t92.5 35.5t92.5 -35.5t37.5 -85.5q0 -51 -37.5 -86t-92.5 -35zM287 732q-24 0 -41 -16.5t-17 -41.5t17 -42t41 -17t41 17t17 42t-17 41.5t-41 16.5zM540 119h15v-119h-69q-91 0 -93 75q-58 -81 -164 -81q-83 0 -135.5 40
t-52.5 112q0 82 59.5 126t173.5 44h97v25q0 35 -23.5 55.5t-66.5 20.5q-38 0 -63 -17t-29 -46h-137q8 75 71 120.5t164 45.5q107 0 165.5 -48t58.5 -139v-182q0 -19 6 -25.5t23 -6.5zM371 208v14h-99q-43 0 -66 -17.5t-23 -49.5q0 -27 19.5 -43t53.5 -16q52 0 83.5 31
t31.5 81z" />
    <glyph glyph-name="ae" unicode="&#xe6;" horiz-adv-x="816" 
d="M770 224h-321v-12q0 -53 29 -83t77 -30q85 0 98 76h115q-12 -83 -67.5 -132t-140.5 -49q-117 0 -177 88q-46 -88 -165 -88q-80 0 -128.5 41.5t-48.5 113.5q0 78 54.5 121t152.5 43h83v28q0 77 -81 77q-74 0 -82 -65h-117q7 80 60.5 124t141.5 44q101 0 150 -66
q58 66 154 66q99 0 157 -66t59 -180q0 -27 -3 -51zM554 418q-44 0 -71 -26.5t-31 -77.5h201q-6 104 -99 104zM331 205v18h-72q-98 0 -98 -66q0 -28 19 -43.5t52 -15.5q46 0 72.5 27.5t26.5 79.5z" />
    <glyph glyph-name="ccedilla" unicode="&#xe7;" horiz-adv-x="588" 
d="M402 194h148q-13 -83 -67.5 -135.5t-141.5 -62.5l-7 -26h11q44 0 70 -20.5t26 -56.5q0 -43 -29.5 -68t-79.5 -25h-119v69h93q28 0 28 25q0 22 -28 22h-61l20 80q-104 10 -163 79.5t-59 181.5q0 119 71.5 191t191.5 72q102 0 165.5 -52.5t77.5 -145.5h-147q-18 83 -98 83
q-53 0 -85 -41t-32 -107t32 -107t85 -41q39 0 64.5 22.5t33.5 62.5z" />
    <glyph glyph-name="egrave" unicode="&#xe8;" horiz-adv-x="602" 
d="M352 566h-106l-125 150h161zM312 -6q-125 0 -197 71t-72 191t71 192t189 72q114 0 184 -67t71 -180q0 -26 -4 -49h-364v-6q2 -54 34 -85.5t83 -31.5q87 0 105 73h139q-12 -78 -76 -129t-163 -51zM193 317h224q-7 47 -37 72.5t-76 25.5q-45 0 -75 -26.5t-36 -71.5z" />
    <glyph glyph-name="eacute" unicode="&#xe9;" horiz-adv-x="602" 
d="M356 569h-103l73 147h161zM312 -6q-125 0 -197 71t-72 191t71 192t189 72q114 0 184 -67t71 -180q0 -26 -4 -49h-364v-6q2 -54 34 -85.5t83 -31.5q87 0 105 73h139q-12 -78 -76 -129t-163 -51zM193 317h224q-7 47 -37 72.5t-76 25.5q-45 0 -75 -26.5t-36 -71.5z" />
    <glyph glyph-name="ecircumflex" unicode="&#xea;" horiz-adv-x="602" 
d="M240 568h-129l128 148h126l128 -148h-130l-61 65zM312 -6q-125 0 -197 71t-72 191t71 192t189 72q114 0 184 -67t71 -180q0 -26 -4 -49h-364v-6q2 -54 34 -85.5t83 -31.5q87 0 105 73h139q-12 -78 -76 -129t-163 -51zM193 317h224q-7 47 -37 72.5t-76 25.5
q-45 0 -75 -26.5t-36 -71.5z" />
    <glyph glyph-name="edieresis" unicode="&#xeb;" horiz-adv-x="602" 
d="M198 576q-32 0 -53.5 21t-21.5 52t21.5 52t53.5 21t54 -21t22 -52t-22 -52t-54 -21zM406 576q-32 0 -53.5 21t-21.5 52t21.5 52t53.5 21t53.5 -21t21.5 -52t-21.5 -52t-53.5 -21zM312 -6q-125 0 -197 71t-72 191t71 192t189 72q114 0 184 -67t71 -180q0 -26 -4 -49h-364
v-6q2 -54 34 -85.5t83 -31.5q87 0 105 73h139q-12 -78 -76 -129t-163 -51zM193 317h224q-7 47 -37 72.5t-76 25.5q-45 0 -75 -26.5t-36 -71.5z" />
    <glyph glyph-name="igrave" unicode="&#xec;" horiz-adv-x="494" 
d="M235 716l70 -150h-106l-125 150h161zM325 119h136v-119h-419v119h141v276h-141v119h283v-395z" />
    <glyph glyph-name="iacute" unicode="&#xed;" horiz-adv-x="494" 
d="M279 716h161l-131 -147h-103zM325 119h136v-119h-419v119h141v276h-141v119h283v-395z" />
    <glyph glyph-name="icircumflex" unicode="&#xee;" horiz-adv-x="494" 
d="M316 568l-61 65l-62 -65h-129l128 148h126l128 -148h-130zM325 119h136v-119h-419v119h141v276h-141v119h283v-395z" />
    <glyph glyph-name="idieresis" unicode="&#xef;" horiz-adv-x="494" 
d="M151 576q-32 0 -53.5 21t-21.5 52t21.5 52t53.5 21t54 -21t22 -52t-22 -52t-54 -21zM359 576q-32 0 -53.5 21t-21.5 52t21.5 52t53.5 21t53.5 -21t21.5 -52t-21.5 -52t-53.5 -21zM325 119h136v-119h-419v119h141v276h-141v119h283v-395z" />
    <glyph glyph-name="eth" unicode="&#xf0;" horiz-adv-x="625" 
d="M495 637l-76 -40q153 -126 153 -320q0 -123 -69 -203t-199 -80q-118 0 -189.5 67.5t-71.5 172.5q0 112 72.5 175t167.5 63q65 0 124 -33q-25 54 -96 103l-112 -58l-45 75l68 35q-38 19 -88 40l88 72q65 -23 114 -52l114 59zM304 107q56 0 89.5 36t33.5 95
q0 57 -34.5 90.5t-88.5 33.5q-52 0 -84.5 -35.5t-32.5 -93.5q0 -56 32.5 -91t84.5 -35z" />
    <glyph glyph-name="ntilde" unicode="&#xf1;" horiz-adv-x="622" 
d="M299 623q-15 0 -23.5 -11t-8.5 -27h-90v23q0 48 28 79.5t71 31.5q30 0 58 -20.5t44 -20.5q14 0 23 11t9 27h89v-23q0 -47 -28 -79t-70 -32q-32 0 -60.5 20.5t-41.5 20.5zM357 520q89 0 144.5 -55t55.5 -176v-289h-141v273q0 126 -98 126q-51 0 -78.5 -34t-27.5 -100v-265
h-141v514h123l13 -63q53 69 150 69z" />
    <glyph glyph-name="ograve" unicode="&#xf2;" horiz-adv-x="615" 
d="M357 566h-106l-125 150h161zM307 -6q-119 0 -191.5 72.5t-72.5 190.5t72.5 190.5t191.5 72.5t192 -72.5t73 -190.5t-73 -190.5t-192 -72.5zM307 109q55 0 88 41t33 107t-33 107t-88 41q-54 0 -87 -41.5t-33 -106.5t33 -106.5t87 -41.5z" />
    <glyph glyph-name="oacute" unicode="&#xf3;" horiz-adv-x="615" 
d="M361 569h-103l73 147h161zM307 -6q-119 0 -191.5 72.5t-72.5 190.5t72.5 190.5t191.5 72.5t192 -72.5t73 -190.5t-73 -190.5t-192 -72.5zM307 109q55 0 88 41t33 107t-33 107t-88 41q-54 0 -87 -41.5t-33 -106.5t33 -106.5t87 -41.5z" />
    <glyph glyph-name="ocircumflex" unicode="&#xf4;" horiz-adv-x="615" 
d="M245 568h-129l128 148h126l128 -148h-130l-61 65zM307 -6q-119 0 -191.5 72.5t-72.5 190.5t72.5 190.5t191.5 72.5t192 -72.5t73 -190.5t-73 -190.5t-192 -72.5zM307 109q55 0 88 41t33 107t-33 107t-88 41q-54 0 -87 -41.5t-33 -106.5t33 -106.5t87 -41.5z" />
    <glyph glyph-name="otilde" unicode="&#xf5;" horiz-adv-x="615" 
d="M370 582q-32 0 -60.5 20.5t-41.5 20.5q-15 0 -23.5 -11t-8.5 -27h-90v23q0 48 28 79.5t71 31.5q30 0 58 -20.5t44 -20.5q14 0 23 11t9 27h89v-23q0 -47 -28 -79t-70 -32zM307 -6q-119 0 -191.5 72.5t-72.5 190.5t72.5 190.5t191.5 72.5t192 -72.5t73 -190.5t-73 -190.5
t-192 -72.5zM307 109q55 0 88 41t33 107t-33 107t-88 41q-54 0 -87 -41.5t-33 -106.5t33 -106.5t87 -41.5z" />
    <glyph glyph-name="odieresis" unicode="&#xf6;" horiz-adv-x="615" 
d="M203 576q-32 0 -53.5 21t-21.5 52t21.5 52t53.5 21t54 -21t22 -52t-22 -52t-54 -21zM411 576q-32 0 -53.5 21t-21.5 52t21.5 52t53.5 21t53.5 -21t21.5 -52t-21.5 -52t-53.5 -21zM307 -6q-119 0 -191.5 72.5t-72.5 190.5t72.5 190.5t191.5 72.5t192 -72.5t73 -190.5
t-73 -190.5t-192 -72.5zM307 109q55 0 88 41t33 107t-33 107t-88 41q-54 0 -87 -41.5t-33 -106.5t33 -106.5t87 -41.5z" />
    <glyph glyph-name="divide" unicode="&#xf7;" horiz-adv-x="578" 
d="M289 427q-35 0 -59 23.5t-24 58.5q0 36 23.5 59t59.5 23t60.5 -23t24.5 -59q0 -35 -24.5 -58.5t-60.5 -23.5zM525 242h-471v119h471v-119zM289 11q-35 0 -59 24t-24 59t24 58.5t59 23.5q36 0 60.5 -23t24.5 -59t-24.5 -59.5t-60.5 -23.5z" />
    <glyph glyph-name="oslash" unicode="&#xf8;" horiz-adv-x="623" 
d="M516 520l64 -65l-44 -43q44 -64 44 -156q0 -118 -73 -190t-196 -72q-93 0 -159 43l-44 -43l-65 65l43 42q-43 64 -43 155q0 120 72.5 192t195.5 72q95 0 160 -43zM182 256q0 -31 7 -55l193 188q-31 20 -71 20q-61 0 -95 -42.5t-34 -110.5zM441 256q0 32 -7 56l-193 -188
q30 -19 70 -19q61 0 95.5 41.5t34.5 109.5z" />
    <glyph glyph-name="ugrave" unicode="&#xf9;" horiz-adv-x="619" 
d="M286 716l70 -150h-106l-125 150h161zM407 253v261h141v-514h-125l-12 61q-57 -67 -147 -67q-88 0 -143.5 53.5t-55.5 177.5v289h141v-270q0 -128 95 -128q50 0 78 35.5t28 101.5z" />
    <glyph glyph-name="uacute" unicode="&#xfa;" horiz-adv-x="619" 
d="M330 716h161l-131 -147h-103zM407 253v261h141v-514h-125l-12 61q-57 -67 -147 -67q-88 0 -143.5 53.5t-55.5 177.5v289h141v-270q0 -128 95 -128q50 0 78 35.5t28 101.5z" />
    <glyph glyph-name="ucircumflex" unicode="&#xfb;" horiz-adv-x="619" 
d="M367 568l-61 65l-62 -65h-129l128 148h126l128 -148h-130zM407 253v261h141v-514h-125l-12 61q-57 -67 -147 -67q-88 0 -143.5 53.5t-55.5 177.5v289h141v-270q0 -128 95 -128q50 0 78 35.5t28 101.5z" />
    <glyph glyph-name="udieresis" unicode="&#xfc;" horiz-adv-x="619" 
d="M202 576q-32 0 -53.5 21t-21.5 52t21.5 52t53.5 21t54 -21t22 -52t-22 -52t-54 -21zM410 576q-32 0 -53.5 21t-21.5 52t21.5 52t53.5 21t53.5 -21t21.5 -52t-21.5 -52t-53.5 -21zM407 253v261h141v-514h-125l-12 61q-57 -67 -147 -67q-88 0 -143.5 53.5t-55.5 177.5v289
h141v-270q0 -128 95 -128q50 0 78 35.5t28 101.5z" />
    <glyph glyph-name="yacute" unicode="&#xfd;" horiz-adv-x="577" 
d="M341 569h-103l73 147h161zM196 -200h-142v119h83q27 0 39 9t23 35l13 34l-200 517h150l127 -366l126 366h151l-231 -587q-28 -70 -55 -98.5t-84 -28.5z" />
    <glyph glyph-name="thorn" unicode="&#xfe;" horiz-adv-x="640" 
d="M212 -200h-141v900h136v-258q59 78 155 78q103 0 169 -72t66 -192q0 -118 -66 -190t-169 -72q-95 0 -150 69v-263zM332 109q54 0 87.5 41.5t33.5 107.5t-33 106.5t-88 40.5q-56 0 -89 -40.5t-33 -106.5t33 -107.5t89 -41.5z" />
    <glyph glyph-name="ydieresis" unicode="&#xff;" horiz-adv-x="577" 
d="M183 576q-32 0 -53.5 21t-21.5 52t21.5 52t53.5 21t54 -21t22 -52t-22 -52t-54 -21zM391 576q-32 0 -53.5 21t-21.5 52t21.5 52t53.5 21t53.5 -21t21.5 -52t-21.5 -52t-53.5 -21zM196 -200h-142v119h83q27 0 39 9t23 35l13 34l-200 517h150l127 -366l126 366h151
l-231 -587q-28 -70 -55 -98.5t-84 -28.5z" />
    <glyph glyph-name="Amacron" unicode="&#x100;" horiz-adv-x="668" 
d="M491 785h-311v100h311v-100zM168 0h-154l228 700h184l228 -700h-159l-47 153h-233zM330 545l-82 -271h166z" />
    <glyph glyph-name="amacron" unicode="&#x101;" horiz-adv-x="583" 
d="M132 699h311v-100h-311v100zM540 119h15v-119h-69q-91 0 -93 75q-58 -81 -164 -81q-83 0 -135.5 40t-52.5 112q0 82 59.5 126t173.5 44h97v25q0 35 -23.5 55.5t-66.5 20.5q-38 0 -63 -17t-29 -46h-137q8 75 71 120.5t164 45.5q107 0 165.5 -48t58.5 -139v-182
q0 -19 6 -25.5t23 -6.5zM371 208v14h-99q-43 0 -66 -17.5t-23 -49.5q0 -27 19.5 -43t53.5 -16q52 0 83.5 31t31.5 81z" />
    <glyph glyph-name="Abreve" unicode="&#x102;" horiz-adv-x="668" 
d="M332 749q-71 0 -113 42t-44 111h105q0 -28 15 -45t40 -17q24 0 39.5 17t15.5 45h105q-3 -69 -47 -111t-116 -42zM168 0h-154l228 700h184l228 -700h-159l-47 153h-233zM330 545l-82 -271h166z" />
    <glyph glyph-name="abreve" unicode="&#x103;" horiz-adv-x="583" 
d="M284 563q-71 0 -113 42t-44 111h105q0 -28 15 -45t40 -17q24 0 39.5 17t15.5 45h105q-3 -69 -47 -111t-116 -42zM540 119h15v-119h-69q-91 0 -93 75q-58 -81 -164 -81q-83 0 -135.5 40t-52.5 112q0 82 59.5 126t173.5 44h97v25q0 35 -23.5 55.5t-66.5 20.5q-38 0 -63 -17
t-29 -46h-137q8 75 71 120.5t164 45.5q107 0 165.5 -48t58.5 -139v-182q0 -19 6 -25.5t23 -6.5zM371 208v14h-99q-43 0 -66 -17.5t-23 -49.5q0 -27 19.5 -43t53.5 -16q52 0 83.5 31t31.5 81z" />
    <glyph glyph-name="Aogonek" unicode="&#x104;" horiz-adv-x="668" 
d="M593 -104h63v-96h-90q-51 0 -85 26.5t-34 70.5q0 56 57 103h-9l-47 153h-233l-47 -153h-154l228 700h184l228 -700q-94 -42 -94 -79q0 -25 33 -25zM330 545l-82 -271h166z" />
    <glyph glyph-name="aogonek" unicode="&#x105;" horiz-adv-x="583" 
d="M494 -104h63v-96h-90q-51 0 -85 26.5t-34 70.5q0 61 75 118q-28 18 -30 60q-58 -81 -164 -81q-83 0 -135.5 40t-52.5 112q0 82 59.5 126t173.5 44h97v25q0 35 -23.5 55.5t-66.5 20.5q-38 0 -63 -17t-29 -46h-137q8 75 71 120.5t164 45.5q107 0 165.5 -48t58.5 -139v-182
q0 -19 6 -25.5t23 -6.5h15v-119q-94 -42 -94 -79q0 -25 33 -25zM371 208v14h-99q-43 0 -66 -17.5t-23 -49.5q0 -27 19.5 -43t53.5 -16q52 0 83.5 31t31.5 81z" />
    <glyph glyph-name="Cacute" unicode="&#x106;" horiz-adv-x="670" 
d="M404 755h-103l73 147h161zM348 -6q-145 0 -225 93.5t-80 262.5t81.5 262.5t230.5 93.5q113 0 187.5 -68.5t87.5 -187.5h-151q-28 129 -129 129q-75 0 -114 -59t-39 -170t38.5 -170t112.5 -59q103 0 130 129h152q-13 -120 -88.5 -188t-193.5 -68z" />
    <glyph glyph-name="cacute" unicode="&#x107;" horiz-adv-x="588" 
d="M361 569h-103l73 147h161zM301 -6q-120 0 -189 70.5t-69 192.5q0 119 71.5 191t191.5 72q102 0 165.5 -52.5t77.5 -145.5h-147q-18 83 -98 83q-53 0 -85 -41t-32 -107t32 -107t85 -41q39 0 64.5 22.5t33.5 62.5h148q-14 -93 -80 -146.5t-169 -53.5z" />
    <glyph glyph-name="Ccircumflex" unicode="&#x108;" horiz-adv-x="670" 
d="M288 754h-129l128 148h126l128 -148h-130l-61 65zM348 -6q-145 0 -225 93.5t-80 262.5t81.5 262.5t230.5 93.5q113 0 187.5 -68.5t87.5 -187.5h-151q-28 129 -129 129q-75 0 -114 -59t-39 -170t38.5 -170t112.5 -59q103 0 130 129h152q-13 -120 -88.5 -188t-193.5 -68z
" />
    <glyph glyph-name="ccircumflex" unicode="&#x109;" horiz-adv-x="588" 
d="M245 568h-129l128 148h126l128 -148h-130l-61 65zM301 -6q-120 0 -189 70.5t-69 192.5q0 119 71.5 191t191.5 72q102 0 165.5 -52.5t77.5 -145.5h-147q-18 83 -98 83q-53 0 -85 -41t-32 -107t32 -107t85 -41q39 0 64.5 22.5t33.5 62.5h148q-14 -93 -80 -146.5t-169 -53.5
z" />
    <glyph glyph-name="Cdotaccent" unicode="&#x10a;" horiz-adv-x="670" 
d="M350 767q-36 0 -60.5 23.5t-24.5 59.5q0 35 24.5 59t60.5 24t60 -24t24 -59q0 -36 -24 -59.5t-60 -23.5zM348 -6q-145 0 -225 93.5t-80 262.5t81.5 262.5t230.5 93.5q113 0 187.5 -68.5t87.5 -187.5h-151q-28 129 -129 129q-75 0 -114 -59t-39 -170t38.5 -170t112.5 -59
q103 0 130 129h152q-13 -120 -88.5 -188t-193.5 -68z" />
    <glyph glyph-name="cdotaccent" unicode="&#x10b;" horiz-adv-x="588" 
d="M307 581q-36 0 -60.5 23.5t-24.5 59.5q0 35 24.5 59t60.5 24t60 -24t24 -59q0 -36 -24 -59.5t-60 -23.5zM301 -6q-120 0 -189 70.5t-69 192.5q0 119 71.5 191t191.5 72q102 0 165.5 -52.5t77.5 -145.5h-147q-18 83 -98 83q-53 0 -85 -41t-32 -107t32 -107t85 -41
q39 0 64.5 22.5t33.5 62.5h148q-14 -93 -80 -146.5t-169 -53.5z" />
    <glyph glyph-name="Ccaron" unicode="&#x10c;" horiz-adv-x="670" 
d="M413 754h-126l-128 148h130l61 -65l62 65h129zM348 -6q-145 0 -225 93.5t-80 262.5t81.5 262.5t230.5 93.5q113 0 187.5 -68.5t87.5 -187.5h-151q-28 129 -129 129q-75 0 -114 -59t-39 -170t38.5 -170t112.5 -59q103 0 130 129h152q-13 -120 -88.5 -188t-193.5 -68z" />
    <glyph glyph-name="ccaron" unicode="&#x10d;" horiz-adv-x="588" 
d="M370 568h-126l-128 148h130l61 -65l62 65h129zM301 -6q-120 0 -189 70.5t-69 192.5q0 119 71.5 191t191.5 72q102 0 165.5 -52.5t77.5 -145.5h-147q-18 83 -98 83q-53 0 -85 -41t-32 -107t32 -107t85 -41q39 0 64.5 22.5t33.5 62.5h148q-14 -93 -80 -146.5t-169 -53.5z
" />
    <glyph glyph-name="Dcaron" unicode="&#x10e;" horiz-adv-x="682" 
d="M380 754h-126l-128 148h130l61 -65l62 65h129zM310 0h-238v700h238q152 0 240.5 -94.5t88.5 -254.5q0 -159 -89 -255t-240 -96zM222 575v-450h88q86 0 130.5 59t44.5 167q0 107 -44.5 165.5t-130.5 58.5h-88z" />
    <glyph glyph-name="dcaron" unicode="&#x10f;" horiz-adv-x="657" 
d="M428 456v244h141v-700h-123l-14 72q-58 -78 -154 -78q-104 0 -169.5 72t-65.5 192q0 117 68 189.5t170 72.5q91 0 147 -64zM591 552l35 148h132l-68 -148h-99zM309 109q55 0 88 40.5t33 106.5q0 67 -33 108t-88 41q-56 0 -89 -41t-33 -107t33 -107t89 -41z" />
    <glyph glyph-name="Dcroat" unicode="&#x110;" horiz-adv-x="687" 
d="M77 700h238q152 0 240.5 -94.5t88.5 -254.5q0 -159 -89 -255t-240 -96h-238v303h-61v104h61v293zM227 125h88q86 0 130.5 59t44.5 167q0 107 -44.5 165.5t-130.5 58.5h-88v-168h131v-104h-131v-178z" />
    <glyph glyph-name="dcroat" unicode="&#x111;" horiz-adv-x="648" 
d="M569 651h75v-103h-75v-548h-123l-14 72q-58 -78 -154 -78q-104 0 -169.5 72t-65.5 192q0 117 68 189.5t170 72.5q91 0 147 -64v92h-137v103h137v49h141v-49zM309 109q55 0 88 40.5t33 106.5q0 67 -33 108t-88 41q-56 0 -89 -41t-33 -107t33 -107t89 -41z" />
    <glyph glyph-name="Emacron" unicode="&#x112;" horiz-adv-x="575" 
d="M463 785h-311v100h311v-100zM535 0h-463v700h451v-129h-301v-157h248v-123h-248v-162h313v-129z" />
    <glyph glyph-name="emacron" unicode="&#x113;" horiz-adv-x="602" 
d="M458 599h-311v100h311v-100zM312 -6q-125 0 -197 71t-72 191t71 192t189 72q114 0 184 -67t71 -180q0 -26 -4 -49h-364v-6q2 -54 34 -85.5t83 -31.5q87 0 105 73h139q-12 -78 -76 -129t-163 -51zM193 317h224q-7 47 -37 72.5t-76 25.5q-45 0 -75 -26.5t-36 -71.5z" />
    <glyph glyph-name="Ebreve" unicode="&#x114;" horiz-adv-x="575" 
d="M304 749q-71 0 -113 42t-44 111h105q0 -28 15 -45t40 -17q24 0 39.5 17t15.5 45h105q-3 -69 -47 -111t-116 -42zM535 0h-463v700h451v-129h-301v-157h248v-123h-248v-162h313v-129z" />
    <glyph glyph-name="ebreve" unicode="&#x115;" horiz-adv-x="602" 
d="M299 563q-71 0 -113 42t-44 111h105q0 -28 15 -45t40 -17q24 0 39.5 17t15.5 45h105q-3 -69 -47 -111t-116 -42zM312 -6q-125 0 -197 71t-72 191t71 192t189 72q114 0 184 -67t71 -180q0 -26 -4 -49h-364v-6q2 -54 34 -85.5t83 -31.5q87 0 105 73h139q-12 -78 -76 -129
t-163 -51zM193 317h224q-7 47 -37 72.5t-76 25.5q-45 0 -75 -26.5t-36 -71.5z" />
    <glyph glyph-name="Edotaccent" unicode="&#x116;" horiz-adv-x="575" 
d="M306 767q-36 0 -60.5 23.5t-24.5 59.5q0 35 24.5 59t60.5 24t60 -24t24 -59q0 -36 -24 -59.5t-60 -23.5zM535 0h-463v700h451v-129h-301v-157h248v-123h-248v-162h313v-129z" />
    <glyph glyph-name="edotaccent" unicode="&#x117;" horiz-adv-x="602" 
d="M301 581q-36 0 -60.5 23.5t-24.5 59.5q0 35 24.5 59t60.5 24t60 -24t24 -59q0 -36 -24 -59.5t-60 -23.5zM312 -6q-125 0 -197 71t-72 191t71 192t189 72q114 0 184 -67t71 -180q0 -26 -4 -49h-364v-6q2 -54 34 -85.5t83 -31.5q87 0 105 73h139q-12 -78 -76 -129t-163 -51
zM193 317h224q-7 47 -37 72.5t-76 25.5q-45 0 -75 -26.5t-36 -71.5z" />
    <glyph glyph-name="Eogonek" unicode="&#x118;" horiz-adv-x="575" 
d="M474 -104h63v-96h-90q-51 0 -85 26.5t-34 70.5q0 56 57 103h-313v700h451v-129h-301v-157h248v-123h-248v-162h313v-129q-94 -42 -94 -79q0 -25 33 -25z" />
    <glyph glyph-name="eogonek" unicode="&#x119;" horiz-adv-x="602" 
d="M554 224h-364v-6q2 -54 34 -85.5t83 -31.5q87 0 105 73h139q-8 -57 -47 -101.5t-100 -64.5q-65 -49 -65 -81q0 -31 35 -31h61v-96h-90q-52 0 -86 26.5t-34 70.5q0 55 44 99q-106 13 -166 82t-60 178q0 120 71 192t189 72q114 0 184 -67t71 -180q0 -26 -4 -49zM304 415
q-45 0 -75 -26.5t-36 -71.5h224q-7 47 -37 72.5t-76 25.5z" />
    <glyph glyph-name="Ecaron" unicode="&#x11a;" horiz-adv-x="575" 
d="M370 754h-126l-128 148h130l61 -65l62 65h129zM535 0h-463v700h451v-129h-301v-157h248v-123h-248v-162h313v-129z" />
    <glyph glyph-name="ecaron" unicode="&#x11b;" horiz-adv-x="602" 
d="M365 568h-126l-128 148h130l61 -65l62 65h129zM312 -6q-125 0 -197 71t-72 191t71 192t189 72q114 0 184 -67t71 -180q0 -26 -4 -49h-364v-6q2 -54 34 -85.5t83 -31.5q87 0 105 73h139q-12 -78 -76 -129t-163 -51zM193 317h224q-7 47 -37 72.5t-76 25.5q-45 0 -75 -26.5
t-36 -71.5z" />
    <glyph glyph-name="Gcircumflex" unicode="&#x11c;" horiz-adv-x="695" 
d="M296 754h-129l128 148h126l128 -148h-130l-61 65zM334 -6q-133 0 -212 97t-79 259q0 167 81 261.5t227 94.5q114 0 189.5 -68.5t89.5 -186.5h-146q-21 130 -136 130q-75 0 -114.5 -59.5t-39.5 -171.5q0 -231 166 -231q62 0 99 37.5t37 100.5v17h-136v115h273v-389h-108
l-13 81q-56 -87 -178 -87z" />
    <glyph glyph-name="gcircumflex" unicode="&#x11d;" horiz-adv-x="640" 
d="M368 568l-61 65l-62 -65h-129l128 148h126l128 -148h-130zM434 448l11 66h124v-499q0 -101 -66 -161t-204 -60q-108 0 -174.5 48t-70.5 136h143q17 -77 112 -77q122 0 122 119v55q-54 -72 -153 -72q-103 0 -169 70.5t-66 188.5q0 116 68 187.5t170 71.5q95 0 153 -73z
M309 116q55 0 88 40t33 104q0 65 -33 106t-88 41q-56 0 -89 -40.5t-33 -105.5q0 -64 33 -104.5t89 -40.5z" />
    <glyph glyph-name="Gbreve" unicode="&#x11e;" horiz-adv-x="695" 
d="M355 749q-71 0 -113 42t-44 111h105q0 -28 15 -45t40 -17q24 0 39.5 17t15.5 45h105q-3 -69 -47 -111t-116 -42zM334 -6q-133 0 -212 97t-79 259q0 167 81 261.5t227 94.5q114 0 189.5 -68.5t89.5 -186.5h-146q-21 130 -136 130q-75 0 -114.5 -59.5t-39.5 -171.5
q0 -231 166 -231q62 0 99 37.5t37 100.5v17h-136v115h273v-389h-108l-13 81q-56 -87 -178 -87z" />
    <glyph glyph-name="gbreve" unicode="&#x11f;" horiz-adv-x="640" 
d="M304 563q-71 0 -113 42t-44 111h105q0 -28 15 -45t40 -17q24 0 39.5 17t15.5 45h105q-3 -69 -47 -111t-116 -42zM434 448l11 66h124v-499q0 -101 -66 -161t-204 -60q-108 0 -174.5 48t-70.5 136h143q17 -77 112 -77q122 0 122 119v55q-54 -72 -153 -72q-103 0 -169 70.5
t-66 188.5q0 116 68 187.5t170 71.5q95 0 153 -73zM309 116q55 0 88 40t33 104q0 65 -33 106t-88 41q-56 0 -89 -40.5t-33 -105.5q0 -64 33 -104.5t89 -40.5z" />
    <glyph glyph-name="Gdotaccent" unicode="&#x120;" horiz-adv-x="695" 
d="M357 767q-36 0 -60.5 23.5t-24.5 59.5q0 35 24.5 59t60.5 24t60 -24t24 -59q0 -36 -24 -59.5t-60 -23.5zM334 -6q-133 0 -212 97t-79 259q0 167 81 261.5t227 94.5q114 0 189.5 -68.5t89.5 -186.5h-146q-21 130 -136 130q-75 0 -114.5 -59.5t-39.5 -171.5
q0 -231 166 -231q62 0 99 37.5t37 100.5v17h-136v115h273v-389h-108l-13 81q-56 -87 -178 -87z" />
    <glyph glyph-name="gdotaccent" unicode="&#x121;" horiz-adv-x="640" 
d="M307 581q-36 0 -60.5 23.5t-24.5 59.5q0 35 24.5 59t60.5 24t60 -24t24 -59q0 -36 -24 -59.5t-60 -23.5zM434 448l11 66h124v-499q0 -101 -66 -161t-204 -60q-108 0 -174.5 48t-70.5 136h143q17 -77 112 -77q122 0 122 119v55q-54 -72 -153 -72q-103 0 -169 70.5
t-66 188.5q0 116 68 187.5t170 71.5q95 0 153 -73zM309 116q55 0 88 40t33 104q0 65 -33 106t-88 41q-56 0 -89 -40.5t-33 -105.5q0 -64 33 -104.5t89 -40.5z" />
    <glyph glyph-name="uni0122" unicode="&#x122;" horiz-adv-x="695" 
d="M334 -6q-133 0 -212 97t-79 259q0 167 81 261.5t227 94.5q114 0 189.5 -68.5t89.5 -186.5h-146q-21 130 -136 130q-75 0 -114.5 -59.5t-39.5 -171.5q0 -231 166 -231q62 0 99 37.5t37 100.5v17h-136v115h273v-389h-108l-13 81q-56 -87 -178 -87zM330 -195h-105l52 147
h138z" />
    <glyph glyph-name="uni0123" unicode="&#x123;" horiz-adv-x="640" 
d="M314 713h107l-53 -147h-137zM434 448l11 66h124v-499q0 -101 -66 -161t-204 -60q-108 0 -174.5 48t-70.5 136h143q17 -77 112 -77q122 0 122 119v55q-54 -72 -153 -72q-103 0 -169 70.5t-66 188.5q0 116 68 187.5t170 71.5q95 0 153 -73zM309 116q55 0 88 40t33 104
q0 65 -33 106t-88 41q-56 0 -89 -40.5t-33 -105.5q0 -64 33 -104.5t89 -40.5z" />
    <glyph glyph-name="Hcircumflex" unicode="&#x124;" horiz-adv-x="683" 
d="M279 754h-129l128 148h126l128 -148h-130l-61 65zM222 0h-150v700h150v-281h239v281h150v-700h-150v289h-239v-289z" />
    <glyph glyph-name="hcircumflex" unicode="&#x125;" horiz-adv-x="627" 
d="M202 747l-61 65l-62 -65h-129l128 148h126l128 -148h-130zM359 520q92 0 147.5 -56.5t55.5 -174.5v-289h-141v276q0 123 -99 123q-52 0 -81 -34.5t-29 -96.5v-268h-141v700h141v-245q55 65 147 65z" />
    <glyph glyph-name="Hbar" unicode="&#x126;" horiz-adv-x="682" 
d="M611 597h58v-103h-58v-494h-150v269h-240v-269h-150v494h-58v103h58v103h150v-103h240v103h150v-103zM221 398h240v96h-240v-96z" />
    <glyph glyph-name="hbar" unicode="&#x127;" horiz-adv-x="635" 
d="M367 520q92 0 147.5 -56.5t55.5 -174.5v-289h-141v276q0 123 -99 123q-52 0 -81 -34.5t-29 -96.5v-268h-141v547h-76v103h76v50h141v-50h136v-103h-136v-92q55 65 147 65z" />
    <glyph glyph-name="Itilde" unicode="&#x128;" horiz-adv-x="547" 
d="M235 809q-15 0 -23.5 -11t-8.5 -27h-90v23q0 48 28 79.5t71 31.5q30 0 58 -20.5t44 -20.5q14 0 23 11t9 27h89v-23q0 -47 -28 -79t-70 -32q-32 0 -60.5 20.5t-41.5 20.5zM492 700v-123h-143v-454h143v-123h-437v123h144v454h-144v123h437z" />
    <glyph glyph-name="itilde" unicode="&#x129;" horiz-adv-x="494" 
d="M216 623q-15 0 -23.5 -11t-8.5 -27h-90v23q0 48 28 79.5t71 31.5q30 0 58 -20.5t44 -20.5q14 0 23 11t9 27h89v-23q0 -47 -28 -79t-70 -32q-32 0 -60.5 20.5t-41.5 20.5zM325 119h136v-119h-419v119h141v276h-141v119h283v-395z" />
    <glyph glyph-name="Imacron" unicode="&#x12a;" horiz-adv-x="547" 
d="M119 885h311v-100h-311v100zM492 700v-123h-143v-454h143v-123h-437v123h144v454h-144v123h437z" />
    <glyph glyph-name="imacron" unicode="&#x12b;" horiz-adv-x="494" 
d="M100 699h311v-100h-311v100zM325 119h136v-119h-419v119h141v276h-141v119h283v-395z" />
    <glyph glyph-name="Ibreve" unicode="&#x12c;" horiz-adv-x="547" 
d="M271 749q-71 0 -113 42t-44 111h105q0 -28 15 -45t40 -17q24 0 39.5 17t15.5 45h105q-3 -69 -47 -111t-116 -42zM492 700v-123h-143v-454h143v-123h-437v123h144v454h-144v123h437z" />
    <glyph glyph-name="ibreve" unicode="&#x12d;" horiz-adv-x="494" 
d="M252 563q-71 0 -113 42t-44 111h105q0 -28 15 -45t40 -17q24 0 39.5 17t15.5 45h105q-3 -69 -47 -111t-116 -42zM325 119h136v-119h-419v119h141v276h-141v119h283v-395z" />
    <glyph glyph-name="Iogonek" unicode="&#x12e;" horiz-adv-x="547" 
d="M492 700v-123h-143v-454h143v-123h-142q-94 -42 -94 -79q0 -25 33 -25h63v-96h-90q-51 0 -85 26.5t-34 70.5q0 56 57 103h-145v123h144v454h-144v123h437z" />
    <glyph glyph-name="iogonek" unicode="&#x12f;" horiz-adv-x="494" 
d="M254 581q-36 0 -60.5 23.5t-24.5 59.5q0 35 24.5 59t60.5 24t60 -24t24 -59q0 -36 -24 -59.5t-60 -23.5zM461 0h-136q-94 -42 -94 -79q0 -25 33 -25h63v-96h-90q-51 0 -85 26.5t-34 70.5q0 56 57 103h-133v119h141v276h-141v119h283v-395h136v-119z" />
    <glyph glyph-name="Idotaccent" unicode="&#x130;" horiz-adv-x="547" 
d="M273 767q-36 0 -60.5 23.5t-24.5 59.5q0 35 24.5 59t60.5 24t60 -24t24 -59q0 -36 -24 -59.5t-60 -23.5zM492 700v-123h-143v-454h143v-123h-437v123h144v454h-144v123h437z" />
    <glyph glyph-name="dotlessi" unicode="&#x131;" horiz-adv-x="494" 
d="M325 119h136v-119h-419v119h141v276h-141v119h283v-395z" />
    <glyph glyph-name="IJ" unicode="&#x132;" horiz-adv-x="651" 
d="M324 -6q-129 0 -194.5 68.5t-65.5 201.5h150q0 -141 111 -141q61 0 87 35.5t26 103.5v438h150v-437q0 -132 -67 -200.5t-197 -68.5zM65 361v339h150v-339h-150z" />
    <glyph glyph-name="ij" unicode="&#x133;" horiz-adv-x="565" 
d="M141 581q-36 0 -60.5 23.5t-24.5 59.5q0 35 24.5 59t60.5 24t60.5 -24t24.5 -59q0 -36 -24.5 -59.5t-60.5 -23.5zM423 581q-36 0 -60.5 23.5t-24.5 59.5q0 35 24.5 59t60.5 24t60.5 -24t24.5 -59q0 -36 -24.5 -59.5t-60.5 -23.5zM71 0v514h141v-514h-141zM212 -200v119
h90q52 0 52 57v538h140v-558q0 -73 -38 -114.5t-111 -41.5h-133z" />
    <glyph glyph-name="Jcircumflex" unicode="&#x134;" horiz-adv-x="607" 
d="M414 754l-61 65l-62 -65h-129l128 148h126l128 -148h-130zM164 700h379v-437q0 -132 -65 -200.5t-192 -68.5q-128 0 -192.5 68.5t-63.5 201.5h148q0 -141 108 -141q55 0 81 33.5t26 105.5v313h-229v125z" />
    <glyph glyph-name="jcircumflex" unicode="&#x135;" horiz-adv-x="439" 
d="M359 568l-61 65l-62 -65h-129l128 148h126l128 -148h-130zM20 395v119h348v-558q0 -73 -38 -114.5t-110 -41.5h-200v119h156q51 0 51 57v419h-207z" />
    <glyph glyph-name="uni0136" unicode="&#x136;" horiz-adv-x="666" 
d="M222 0h-150v700h150v-314l243 314h172l-239 -299l256 -401h-176l-181 281l-75 -89v-192zM322 -195h-105l52 147h138z" />
    <glyph glyph-name="uni0137" unicode="&#x137;" horiz-adv-x="590" 
d="M212 0h-141v700h141v-404l201 218h159l-186 -203l194 -311h-164l-129 208l-75 -82v-126zM295 -195h-105l52 147h138z" />
    <glyph glyph-name="kgreenlandic" unicode="&#x138;" horiz-adv-x="590" 
d="M212 0h-141v514h141v-218l201 218h159l-186 -203l194 -311h-164l-129 208l-75 -82v-126z" />
    <glyph glyph-name="Lacute" unicode="&#x139;" horiz-adv-x="528" 
d="M199 755h-103l73 147h161zM498 0h-426v700h150v-571h276v-129z" />
    <glyph glyph-name="lacute" unicode="&#x13a;" horiz-adv-x="489" 
d="M273 895h161l-131 -147h-103zM320 119h135v-119h-418v119h141v462h-141v119h283v-581z" />
    <glyph glyph-name="uni013B" unicode="&#x13b;" horiz-adv-x="528" 
d="M498 0h-426v700h150v-571h276v-129zM277 -195h-105l52 147h138z" />
    <glyph glyph-name="uni013C" unicode="&#x13c;" horiz-adv-x="489" 
d="M320 119h135v-119h-418v119h141v462h-141v119h283v-581zM229 -195h-105l52 147h138z" />
    <glyph glyph-name="Lcaron" unicode="&#x13d;" horiz-adv-x="528" 
d="M498 0h-426v700h150v-571h276v-129zM355 552h-99l35 148h132z" />
    <glyph glyph-name="lcaron" unicode="&#x13e;" horiz-adv-x="506" 
d="M320 700v-581h135v-119h-418v119h141v462h-141v119h283zM360 552l35 148h132l-68 -148h-99z" />
    <glyph glyph-name="Ldot" unicode="&#x13f;" horiz-adv-x="577" 
d="M498 0h-426v700h150v-571h276v-129zM468 298q-37 0 -61.5 24t-24.5 60t24.5 60t61.5 24t61.5 -24t24.5 -60t-24.5 -60t-61.5 -24z" />
    <glyph glyph-name="ldot" unicode="&#x140;" horiz-adv-x="544" 
d="M320 700v-581h135v-119h-418v119h141v462h-141v119h283zM503 425q37 0 61.5 -23.5t24.5 -59.5q0 -37 -24.5 -61t-61.5 -24t-61.5 24t-24.5 61q0 36 24.5 59.5t61.5 23.5z" />
    <glyph glyph-name="Lslash" unicode="&#x141;" horiz-adv-x="542" 
d="M235 345v-216h277v-129h-427v264l-72 -38v116l72 38v320h150v-240l139 74v-115z" />
    <glyph glyph-name="lslash" unicode="&#x142;" horiz-adv-x="549" 
d="M485 498v-120l-135 -42v-217h135v-119h-418v119h141v172l-141 -44v120l141 44v170h-141v119h283v-244z" />
    <glyph glyph-name="Nacute" unicode="&#x143;" horiz-adv-x="687" 
d="M392 755h-103l73 147h161zM213 0h-141v700h133l269 -433v433h141v-700h-133l-269 434v-434z" />
    <glyph glyph-name="nacute" unicode="&#x144;" horiz-adv-x="622" 
d="M362 716h161l-131 -147h-103zM357 520q89 0 144.5 -55t55.5 -176v-289h-141v273q0 126 -98 126q-51 0 -78.5 -34t-27.5 -100v-265h-141v514h123l13 -63q53 69 150 69z" />
    <glyph glyph-name="uni0145" unicode="&#x145;" horiz-adv-x="687" 
d="M213 0h-141v700h133l269 -433v433h141v-700h-133l-269 434v-434zM325 -195h-105l52 147h138z" />
    <glyph glyph-name="uni0146" unicode="&#x146;" horiz-adv-x="622" 
d="M357 520q89 0 144.5 -55t55.5 -176v-289h-141v273q0 126 -98 126q-51 0 -78.5 -34t-27.5 -100v-265h-141v514h123l13 -63q53 69 150 69zM297 -195h-105l52 147h138z" />
    <glyph glyph-name="Ncaron" unicode="&#x147;" horiz-adv-x="687" 
d="M401 754h-126l-128 148h130l61 -65l62 65h129zM213 0h-141v700h133l269 -433v433h141v-700h-133l-269 434v-434z" />
    <glyph glyph-name="ncaron" unicode="&#x148;" horiz-adv-x="622" 
d="M529 716l-128 -148h-126l-128 148h130l61 -65l62 65h129zM357 520q89 0 144.5 -55t55.5 -176v-289h-141v273q0 126 -98 126q-51 0 -78.5 -34t-27.5 -100v-265h-141v514h123l13 -63q53 69 150 69z" />
    <glyph glyph-name="Eng" unicode="&#x14a;" horiz-adv-x="687" 
d="M474 267v433h141v-741q0 -73 -38.5 -116t-115.5 -43h-93v120h61q50 0 50 52v33l-266 429v-434h-141v700h133z" />
    <glyph glyph-name="eng" unicode="&#x14b;" horiz-adv-x="622" 
d="M402 -200h-88v119h49q53 0 53 59v295q0 126 -98 126q-51 0 -78.5 -34t-27.5 -100v-265h-141v514h123l13 -64q54 70 150 70q89 0 144.5 -55t55.5 -176v-327q0 -75 -40 -118.5t-115 -43.5z" />
    <glyph glyph-name="Omacron" unicode="&#x14c;" horiz-adv-x="690" 
d="M501 785h-311v100h311v-100zM345 -6q-136 0 -219 97t-83 259t83 259t219 97t219 -97t83 -259t-83 -259t-219 -97zM345 121q149 0 149 229t-149 229q-72 0 -110 -58t-38 -171t38 -171t110 -58z" />
    <glyph glyph-name="omacron" unicode="&#x14d;" horiz-adv-x="615" 
d="M463 599h-311v100h311v-100zM307 -6q-119 0 -191.5 72.5t-72.5 190.5t72.5 190.5t191.5 72.5t192 -72.5t73 -190.5t-73 -190.5t-192 -72.5zM307 109q55 0 88 41t33 107t-33 107t-88 41q-54 0 -87 -41.5t-33 -106.5t33 -106.5t87 -41.5z" />
    <glyph glyph-name="Obreve" unicode="&#x14e;" horiz-adv-x="690" 
d="M342 749q-71 0 -113 42t-44 111h105q0 -28 15 -45t40 -17q24 0 39.5 17t15.5 45h105q-3 -69 -47 -111t-116 -42zM345 -6q-136 0 -219 97t-83 259t83 259t219 97t219 -97t83 -259t-83 -259t-219 -97zM345 121q149 0 149 229t-149 229q-72 0 -110 -58t-38 -171t38 -171
t110 -58z" />
    <glyph glyph-name="obreve" unicode="&#x14f;" horiz-adv-x="615" 
d="M304 563q-71 0 -113 42t-44 111h105q0 -28 15 -45t40 -17q24 0 39.5 17t15.5 45h105q-3 -69 -47 -111t-116 -42zM307 -6q-119 0 -191.5 72.5t-72.5 190.5t72.5 190.5t191.5 72.5t192 -72.5t73 -190.5t-73 -190.5t-192 -72.5zM307 109q55 0 88 41t33 107t-33 107t-88 41
q-54 0 -87 -41.5t-33 -106.5t33 -106.5t87 -41.5z" />
    <glyph glyph-name="Ohungarumlaut" unicode="&#x150;" horiz-adv-x="690" 
d="M281 752h-96l73 150h154zM481 752h-97l74 150h153zM345 -6q-136 0 -219 97t-83 259t83 259t219 97t219 -97t83 -259t-83 -259t-219 -97zM345 121q149 0 149 229t-149 229q-72 0 -110 -58t-38 -171t38 -171t110 -58z" />
    <glyph glyph-name="ohungarumlaut" unicode="&#x151;" horiz-adv-x="615" 
d="M243 566h-96l73 150h154zM443 566h-97l74 150h153zM307 -6q-119 0 -191.5 72.5t-72.5 190.5t72.5 190.5t191.5 72.5t192 -72.5t73 -190.5t-73 -190.5t-192 -72.5zM307 109q55 0 88 41t33 107t-33 107t-88 41q-54 0 -87 -41.5t-33 -106.5t33 -106.5t87 -41.5z" />
    <glyph glyph-name="OE" unicode="&#x152;" horiz-adv-x="871" 
d="M575 296v-181h256v-115h-372v66q-55 -72 -151 -72q-126 0 -195.5 92.5t-69.5 263.5t69.5 263.5t195.5 92.5q95 0 151 -74v68h363v-115h-247v-176h214v-113h-214zM316 114q65 0 101.5 59t36.5 177t-36.5 177t-101.5 59q-69 0 -105 -60t-36 -176q0 -115 36.5 -175.5
t104.5 -60.5z" />
    <glyph glyph-name="oe" unicode="&#x153;" horiz-adv-x="870" 
d="M823 225h-320v-13q0 -53 29 -83t77 -30q84 0 98 76h115q-12 -83 -67.5 -132t-140.5 -49q-111 0 -171 80q-58 -80 -168 -80q-109 0 -170.5 69.5t-61.5 193.5q0 125 61.5 194.5t170.5 69.5q111 0 171 -80q58 80 165 80q99 0 157 -66t59 -180q0 -30 -4 -50zM608 418
q-43 0 -70.5 -26.5t-32.5 -76.5h201q-6 103 -98 103zM275 101q52 0 79.5 40t27.5 116q0 75 -27.5 116.5t-79.5 41.5q-51 0 -80 -42t-29 -115q0 -76 28 -116.5t81 -40.5z" />
    <glyph glyph-name="Racute" unicode="&#x154;" horiz-adv-x="644" 
d="M353 755h-103l73 147h161zM222 0h-150v700h272q112 0 181.5 -63.5t69.5 -169.5q0 -67 -33 -119t-92 -78l141 -270h-167l-119 235h-103v-235zM222 575v-215h103q53 0 85 29t32 78t-32 78.5t-85 29.5h-103z" />
    <glyph glyph-name="racute" unicode="&#x155;" horiz-adv-x="527" 
d="M347 716h161l-131 -147h-103zM277 514l4 -89q49 89 153 89h59v-128h-84q-63 0 -92.5 -36t-29.5 -98v-133h141v-119h-386v119h104v276h-104v119h235z" />
    <glyph glyph-name="uni0156" unicode="&#x156;" horiz-adv-x="644" 
d="M222 0h-150v700h272q112 0 181.5 -63.5t69.5 -169.5q0 -67 -33 -119t-92 -78l141 -270h-167l-119 235h-103v-235zM222 575v-215h103q53 0 85 29t32 78t-32 78.5t-85 29.5h-103zM302 -195h-105l52 147h138z" />
    <glyph glyph-name="uni0157" unicode="&#x157;" horiz-adv-x="527" 
d="M493 386h-84q-63 0 -92.5 -36t-29.5 -98v-133h141v-119h-386v119h104v276h-104v119h235l4 -89q49 89 153 89h59v-128zM221 -195h-105l52 147h138z" />
    <glyph glyph-name="Rcaron" unicode="&#x158;" horiz-adv-x="644" 
d="M362 754h-126l-128 148h130l61 -65l62 65h129zM222 0h-150v700h272q112 0 181.5 -63.5t69.5 -169.5q0 -67 -33 -119t-92 -78l141 -270h-167l-119 235h-103v-235zM222 575v-215h103q53 0 85 29t32 78t-32 78.5t-85 29.5h-103z" />
    <glyph glyph-name="rcaron" unicode="&#x159;" horiz-adv-x="527" 
d="M514 716l-128 -148h-126l-128 148h130l61 -65l62 65h129zM277 514l4 -89q49 89 153 89h59v-128h-84q-63 0 -92.5 -36t-29.5 -98v-133h141v-119h-386v119h104v276h-104v119h235z" />
    <glyph glyph-name="Sacute" unicode="&#x15a;" horiz-adv-x="634" 
d="M369 755h-103l73 147h161zM327 -6q-128 0 -205 64t-78 172h147q5 -54 41.5 -85.5t95.5 -31.5q52 0 82.5 22t30.5 62t-34 59.5t-130 37.5q-111 22 -164 68t-53 132q0 94 70 153t183 59q118 0 190 -59.5t74 -160.5h-146q-6 48 -37 74t-81 26q-47 0 -75 -20.5t-28 -58.5
q0 -39 33.5 -57t129.5 -36q109 -20 163.5 -69.5t54.5 -136.5q0 -95 -73.5 -154.5t-190.5 -59.5z" />
    <glyph glyph-name="sacute" unicode="&#x15b;" horiz-adv-x="547" 
d="M320 569h-103l73 147h161zM280 -6q-106 0 -171.5 47.5t-69.5 129.5h134q3 -35 31 -55.5t77 -20.5q90 0 90 55q0 29 -22.5 38t-90.5 18q-102 12 -155.5 43t-53.5 104q0 76 59.5 122t157.5 46q103 0 166.5 -44t67.5 -122h-134q-4 31 -29.5 48.5t-66.5 17.5q-39 0 -62.5 -14
t-23.5 -39q0 -14 6.5 -23t25 -14.5t33.5 -8t49 -6.5q47 -5 80.5 -13.5t65.5 -25t48 -45.5t16 -71q0 -76 -63 -121.5t-165 -45.5z" />
    <glyph glyph-name="Scircumflex" unicode="&#x15c;" horiz-adv-x="634" 
d="M253 754h-129l128 148h126l128 -148h-130l-61 65zM327 -6q-128 0 -205 64t-78 172h147q5 -54 41.5 -85.5t95.5 -31.5q52 0 82.5 22t30.5 62t-34 59.5t-130 37.5q-111 22 -164 68t-53 132q0 94 70 153t183 59q118 0 190 -59.5t74 -160.5h-146q-6 48 -37 74t-81 26
q-47 0 -75 -20.5t-28 -58.5q0 -39 33.5 -57t129.5 -36q109 -20 163.5 -69.5t54.5 -136.5q0 -95 -73.5 -154.5t-190.5 -59.5z" />
    <glyph glyph-name="scircumflex" unicode="&#x15d;" horiz-adv-x="547" 
d="M204 568h-129l128 148h126l128 -148h-130l-61 65zM280 -6q-106 0 -171.5 47.5t-69.5 129.5h134q3 -35 31 -55.5t77 -20.5q90 0 90 55q0 29 -22.5 38t-90.5 18q-102 12 -155.5 43t-53.5 104q0 76 59.5 122t157.5 46q103 0 166.5 -44t67.5 -122h-134q-4 31 -29.5 48.5
t-66.5 17.5q-39 0 -62.5 -14t-23.5 -39q0 -14 6.5 -23t25 -14.5t33.5 -8t49 -6.5q47 -5 80.5 -13.5t65.5 -25t48 -45.5t16 -71q0 -76 -63 -121.5t-165 -45.5z" />
    <glyph glyph-name="Scedilla" unicode="&#x15e;" horiz-adv-x="634" 
d="M591 208q0 -88 -64.5 -146.5t-169.5 -66.5l-7 -25h11q44 0 70 -20.5t26 -56.5q0 -43 -29.5 -68t-79.5 -25h-119v69h93q28 0 28 25q0 22 -28 22h-61l20 80q-109 12 -172.5 74t-64.5 160h147q5 -54 41.5 -85.5t95.5 -31.5q52 0 82.5 22t30.5 62t-34 59.5t-130 37.5
q-111 22 -164 68t-53 132q0 94 70 153t183 59q118 0 190 -59.5t74 -160.5h-146q-6 48 -37 74t-81 26q-47 0 -75 -20.5t-28 -58.5q0 -39 33.5 -57t129.5 -36q109 -20 163.5 -69.5t54.5 -136.5z" />
    <glyph glyph-name="scedilla" unicode="&#x15f;" horiz-adv-x="547" 
d="M508 161q0 -69 -53 -113.5t-142 -52.5l-7 -26h11q44 0 70 -20.5t26 -56.5q0 -43 -29.5 -68t-79.5 -25h-119v69h93q28 0 28 25q0 22 -28 22h-61l20 81q-88 9 -141.5 55.5t-56.5 119.5h134q3 -35 31 -55.5t77 -20.5q90 0 90 55q0 29 -22.5 38t-90.5 18q-102 12 -155.5 43
t-53.5 104q0 76 59.5 122t157.5 46q103 0 166.5 -44t67.5 -122h-134q-4 31 -29.5 48.5t-66.5 17.5q-39 0 -62.5 -14t-23.5 -39q0 -14 6.5 -23t25 -14.5t33.5 -8t49 -6.5q47 -5 80.5 -13.5t65.5 -25t48 -45.5t16 -71z" />
    <glyph glyph-name="Scaron" unicode="&#x160;" horiz-adv-x="634" 
d="M378 754h-126l-128 148h130l61 -65l62 65h129zM327 -6q-128 0 -205 64t-78 172h147q5 -54 41.5 -85.5t95.5 -31.5q52 0 82.5 22t30.5 62t-34 59.5t-130 37.5q-111 22 -164 68t-53 132q0 94 70 153t183 59q118 0 190 -59.5t74 -160.5h-146q-6 48 -37 74t-81 26
q-47 0 -75 -20.5t-28 -58.5q0 -39 33.5 -57t129.5 -36q109 -20 163.5 -69.5t54.5 -136.5q0 -95 -73.5 -154.5t-190.5 -59.5z" />
    <glyph glyph-name="scaron" unicode="&#x161;" horiz-adv-x="547" 
d="M329 568h-126l-128 148h130l61 -65l62 65h129zM280 -6q-106 0 -171.5 47.5t-69.5 129.5h134q3 -35 31 -55.5t77 -20.5q90 0 90 55q0 29 -22.5 38t-90.5 18q-102 12 -155.5 43t-53.5 104q0 76 59.5 122t157.5 46q103 0 166.5 -44t67.5 -122h-134q-4 31 -29.5 48.5
t-66.5 17.5q-39 0 -62.5 -14t-23.5 -39q0 -14 6.5 -23t25 -14.5t33.5 -8t49 -6.5q47 -5 80.5 -13.5t65.5 -25t48 -45.5t16 -71q0 -76 -63 -121.5t-165 -45.5z" />
    <glyph glyph-name="uni0162" unicode="&#x162;" horiz-adv-x="609" 
d="M380 571v-571h-39l-8 -30h11q44 0 70 -20.5t26 -56.5q0 -43 -29.5 -68t-79.5 -25h-119v69h93q28 0 28 25q0 22 -28 22h-61l21 84h-35v571h-200v129h549v-129h-199z" />
    <glyph glyph-name="uni0163" unicode="&#x163;" horiz-adv-x="500" 
d="M458 119v-119h-110l-8 -30h11q44 0 70 -20.5t26 -56.5q0 -43 -29.5 -68t-79.5 -25h-119v69h93q28 0 28 25q0 22 -28 22h-61l21 85q-125 11 -125 146v248h-121v119h121v144h141v-144h168v-119h-168v-225q0 -27 11.5 -39t39.5 -12h119z" />
    <glyph glyph-name="Tcaron" unicode="&#x164;" horiz-adv-x="609" 
d="M369 754h-126l-128 148h130l61 -65l62 65h129zM380 0h-150v571h-200v129h549v-129h-199v-571z" />
    <glyph glyph-name="tcaron" unicode="&#x165;" horiz-adv-x="500" 
d="M424 567h-99l35 148h132zM458 0h-164q-147 0 -147 147v248h-121v119h121v144h141v-144h168v-119h-168v-225q0 -27 11.5 -39t39.5 -12h119v-119z" />
    <glyph glyph-name="Tbar" unicode="&#x166;" horiz-adv-x="609" 
d="M579 700v-129h-199v-181h113v-104h-113v-286h-150v286h-111v104h111v181h-200v129h549z" />
    <glyph glyph-name="tbar" unicode="&#x167;" horiz-adv-x="517" 
d="M345 119h120v-119h-165q-147 0 -147 147v73h-126v103h126v72h-120v119h120v144h141v-144h168v-119h-168v-72h162v-103h-162v-50q0 -27 12 -39t39 -12z" />
    <glyph glyph-name="Utilde" unicode="&#x168;" horiz-adv-x="670" 
d="M398 768q-32 0 -60.5 20.5t-41.5 20.5q-15 0 -23.5 -11t-8.5 -27h-90v23q0 48 28 79.5t71 31.5q30 0 58 -20.5t44 -20.5q14 0 23 11t9 27h89v-23q0 -47 -28 -79t-70 -32zM335 -6q-133 0 -202 71t-69 205v430h150v-433q0 -144 121 -144q122 0 122 144v433h150v-430
q0 -134 -69.5 -205t-202.5 -71z" />
    <glyph glyph-name="utilde" unicode="&#x169;" horiz-adv-x="619" 
d="M267 623q-15 0 -23.5 -11t-8.5 -27h-90v23q0 48 28 79.5t71 31.5q30 0 58 -20.5t44 -20.5q14 0 23 11t9 27h89v-23q0 -47 -28 -79t-70 -32q-32 0 -60.5 20.5t-41.5 20.5zM407 253v261h141v-514h-125l-12 61q-57 -67 -147 -67q-88 0 -143.5 53.5t-55.5 177.5v289h141v-270
q0 -128 95 -128q50 0 78 35.5t28 101.5z" />
    <glyph glyph-name="Umacron" unicode="&#x16a;" horiz-adv-x="670" 
d="M491 785h-311v100h311v-100zM335 -6q-133 0 -202 71t-69 205v430h150v-433q0 -144 121 -144q122 0 122 144v433h150v-430q0 -134 -69.5 -205t-202.5 -71z" />
    <glyph glyph-name="umacron" unicode="&#x16b;" horiz-adv-x="619" 
d="M151 699h311v-100h-311v100zM407 253v261h141v-514h-125l-12 61q-57 -67 -147 -67q-88 0 -143.5 53.5t-55.5 177.5v289h141v-270q0 -128 95 -128q50 0 78 35.5t28 101.5z" />
    <glyph glyph-name="Ubreve" unicode="&#x16c;" horiz-adv-x="670" 
d="M332 749q-71 0 -113 42t-44 111h105q0 -28 15 -45t40 -17q24 0 39.5 17t15.5 45h105q-3 -69 -47 -111t-116 -42zM335 -6q-133 0 -202 71t-69 205v430h150v-433q0 -144 121 -144q122 0 122 144v433h150v-430q0 -134 -69.5 -205t-202.5 -71z" />
    <glyph glyph-name="ubreve" unicode="&#x16d;" horiz-adv-x="619" 
d="M303 563q-71 0 -113 42t-44 111h105q0 -28 15 -45t40 -17q24 0 39.5 17t15.5 45h105q-3 -69 -47 -111t-116 -42zM407 253v261h141v-514h-125l-12 61q-57 -67 -147 -67q-88 0 -143.5 53.5t-55.5 177.5v289h141v-270q0 -128 95 -128q50 0 78 35.5t28 101.5z" />
    <glyph glyph-name="Uring" unicode="&#x16e;" horiz-adv-x="670" 
d="M311 701q-55 0 -92.5 35.5t-37.5 86.5q0 50 38 85t92 35q55 0 93 -35t38 -85q0 -51 -38 -86.5t-93 -35.5zM311 763q25 0 42 17t17 43q0 25 -17 41.5t-42 16.5q-24 0 -41 -16.5t-17 -41.5q0 -26 17 -43t41 -17zM335 -6q-133 0 -202 71t-69 205v430h150v-433
q0 -144 121 -144q122 0 122 144v433h150v-430q0 -134 -69.5 -205t-202.5 -71z" />
    <glyph glyph-name="uring" unicode="&#x16f;" horiz-adv-x="619" 
d="M306 553q-55 0 -92.5 35t-37.5 86q0 50 37.5 85.5t92.5 35.5t92.5 -35.5t37.5 -85.5q0 -51 -37.5 -86t-92.5 -35zM306 732q-24 0 -41 -16.5t-17 -41.5t17 -42t41 -17t41 17t17 42t-17 41.5t-41 16.5zM407 253v261h141v-514h-125l-12 61q-57 -67 -147 -67
q-88 0 -143.5 53.5t-55.5 177.5v289h141v-270q0 -128 95 -128q50 0 78 35.5t28 101.5z" />
    <glyph glyph-name="Uhungarumlaut" unicode="&#x170;" horiz-adv-x="670" 
d="M271 752h-96l73 150h154zM471 752h-97l74 150h153zM335 -6q-133 0 -202 71t-69 205v430h150v-433q0 -144 121 -144q122 0 122 144v433h150v-430q0 -134 -69.5 -205t-202.5 -71z" />
    <glyph glyph-name="uhungarumlaut" unicode="&#x171;" horiz-adv-x="619" 
d="M219 716h154l-131 -150h-96zM572 716l-130 -150h-97l74 150h153zM407 253v261h141v-514h-125l-12 61q-57 -67 -147 -67q-88 0 -143.5 53.5t-55.5 177.5v289h141v-270q0 -128 95 -128q50 0 78 35.5t28 101.5z" />
    <glyph glyph-name="Uogonek" unicode="&#x172;" horiz-adv-x="670" 
d="M457 267v433h150v-430q0 -214 -170 -263q-64 -48 -64 -80q0 -31 35 -31h61v-96h-90q-52 0 -86 26.5t-34 70.5q0 54 42 98q-116 9 -176.5 79.5t-60.5 195.5v430h150v-433q0 -144 121 -144q122 0 122 144z" />
    <glyph glyph-name="uogonek" unicode="&#x173;" horiz-adv-x="619" 
d="M487 -104h63v-96h-90q-51 0 -85 26.5t-34 70.5q0 64 79 120l-9 44q-57 -67 -147 -67q-88 0 -143.5 53.5t-55.5 177.5v289h141v-270q0 -128 95 -128q50 0 78 35.5t28 101.5v261h141v-514q-94 -42 -94 -79q0 -25 33 -25z" />
    <glyph glyph-name="Wcircumflex" unicode="&#x174;" horiz-adv-x="712" 
d="M291 754h-129l128 148h126l128 -148h-130l-61 65zM275 0h-143l-113 700l143 1l65 -493l84 327h91l83 -327l70 492h138l-114 -700h-143l-81 324z" />
    <glyph glyph-name="wcircumflex" unicode="&#x175;" horiz-adv-x="682" 
d="M281 568h-129l128 148h126l128 -148h-130l-61 65zM267 0h-135l-109 514h134l63 -353l78 286h92l77 -286l63 353h130l-110 -514h-134l-74 261z" />
    <glyph glyph-name="Ycircumflex" unicode="&#x176;" horiz-adv-x="652" 
d="M264 754h-129l128 148h126l128 -148h-130l-61 65zM401 0h-150v265l-240 435h170l146 -277l152 277h162l-240 -436v-264z" />
    <glyph glyph-name="ycircumflex" unicode="&#x177;" horiz-adv-x="577" 
d="M225 568h-129l128 148h126l128 -148h-130l-61 65zM196 -200h-142v119h83q27 0 39 9t23 35l13 34l-200 517h150l127 -366l126 366h151l-231 -587q-28 -70 -55 -98.5t-84 -28.5z" />
    <glyph glyph-name="Ydieresis" unicode="&#x178;" horiz-adv-x="652" 
d="M222 762q-32 0 -53.5 21t-21.5 52t21.5 52t53.5 21t54 -21t22 -52t-22 -52t-54 -21zM430 762q-32 0 -53.5 21t-21.5 52t21.5 52t53.5 21t53.5 -21t21.5 -52t-21.5 -52t-53.5 -21zM401 0h-150v265l-240 435h170l146 -277l152 277h162l-240 -436v-264z" />
    <glyph glyph-name="Zacute" unicode="&#x179;" horiz-adv-x="640" 
d="M378 755h-103l73 147h161zM590 0h-540v99l333 473h-324v128h522v-99l-331 -473h340v-128z" />
    <glyph glyph-name="zacute" unicode="&#x17a;" horiz-adv-x="553" 
d="M329 569h-103l73 147h161zM511 0h-469v102l269 293h-258v119h447v-102l-270 -293h281v-119z" />
    <glyph glyph-name="Zdotaccent" unicode="&#x17b;" horiz-adv-x="640" 
d="M323 767q-36 0 -60.5 23.5t-24.5 59.5q0 35 24.5 59t60.5 24t60 -24t24 -59q0 -36 -24 -59.5t-60 -23.5zM590 0h-540v99l333 473h-324v128h522v-99l-331 -473h340v-128z" />
    <glyph glyph-name="zdotaccent" unicode="&#x17c;" horiz-adv-x="553" 
d="M275 581q-36 0 -60.5 23.5t-24.5 59.5q0 35 24.5 59t60.5 24t60 -24t24 -59q0 -36 -24 -59.5t-60 -23.5zM511 0h-469v102l269 293h-258v119h447v-102l-270 -293h281v-119z" />
    <glyph glyph-name="Zcaron" unicode="&#x17d;" horiz-adv-x="640" 
d="M387 754h-126l-128 148h130l61 -65l62 65h129zM590 0h-540v99l333 473h-324v128h522v-99l-331 -473h340v-128z" />
    <glyph glyph-name="zcaron" unicode="&#x17e;" horiz-adv-x="553" 
d="M338 568h-126l-128 148h130l61 -65l62 65h129zM511 0h-469v102l269 293h-258v119h447v-102l-270 -293h281v-119z" />
    <glyph glyph-name="florin" unicode="&#x192;" horiz-adv-x="565" 
d="M532 580h-110q-44 0 -48 -45l-13 -152h133v-104h-142l-22 -248q-5 -65 -46.5 -101t-112.5 -36h-137v120h110q44 0 48 45l19 220h-131v104h140l15 180q6 65 47 101t112 36h138v-120z" />
    <glyph glyph-name="AEacute" unicode="&#x1fc;" horiz-adv-x="800" 
d="M426 902h161l-131 -147h-103zM519 297v-182h241v-115h-369v148h-187l-61 -148h-129l288 700h447v-115h-230v-175h197v-113h-197zM391 605l-137 -335h137v335z" />
    <glyph glyph-name="aeacute" unicode="&#x1fd;" horiz-adv-x="816" 
d="M430 715h161l-131 -147h-103zM770 224h-321v-12q0 -53 29 -83t77 -30q85 0 98 76h115q-12 -83 -67.5 -132t-140.5 -49q-117 0 -177 88q-46 -88 -165 -88q-80 0 -128.5 41.5t-48.5 113.5q0 78 54.5 121t152.5 43h83v28q0 77 -81 77q-74 0 -82 -65h-117q7 80 60.5 124
t141.5 44q101 0 150 -66q58 66 154 66q99 0 157 -66t59 -180q0 -27 -3 -51zM554 418q-44 0 -71 -26.5t-31 -77.5h201q-6 104 -99 104zM331 205v18h-72q-98 0 -98 -66q0 -28 19 -43.5t52 -15.5q46 0 72.5 27.5t26.5 79.5z" />
    <glyph glyph-name="uni0218" unicode="&#x218;" horiz-adv-x="634" 
d="M327 -6q-128 0 -205 64t-78 172h147q5 -54 41.5 -85.5t95.5 -31.5q52 0 82.5 22t30.5 62t-34 59.5t-130 37.5q-111 22 -164 68t-53 132q0 94 70 153t183 59q118 0 190 -59.5t74 -160.5h-146q-6 48 -37 74t-81 26q-47 0 -75 -20.5t-28 -58.5q0 -39 33.5 -57t129.5 -36
q109 -20 163.5 -69.5t54.5 -136.5q0 -95 -73.5 -154.5t-190.5 -59.5zM302 -195h-105l52 147h138z" />
    <glyph glyph-name="uni0219" unicode="&#x219;" horiz-adv-x="547" 
d="M280 -6q-106 0 -171.5 47.5t-69.5 129.5h134q3 -35 31 -55.5t77 -20.5q90 0 90 55q0 29 -22.5 38t-90.5 18q-102 12 -155.5 43t-53.5 104q0 76 59.5 122t157.5 46q103 0 166.5 -44t67.5 -122h-134q-4 31 -29.5 48.5t-66.5 17.5q-39 0 -62.5 -14t-23.5 -39q0 -14 6.5 -23
t25 -14.5t33.5 -8t49 -6.5q47 -5 80.5 -13.5t65.5 -25t48 -45.5t16 -71q0 -76 -63 -121.5t-165 -45.5zM258 -196h-105l52 147h138z" />
    <glyph glyph-name="uni021A" unicode="&#x21a;" horiz-adv-x="609" 
d="M380 0h-150v571h-200v129h549v-129h-199v-571zM285 -195h-105l52 147h138z" />
    <glyph glyph-name="uni021B" unicode="&#x21b;" horiz-adv-x="500" 
d="M458 0h-164q-147 0 -147 147v248h-121v119h121v144h141v-144h168v-119h-168v-225q0 -27 11.5 -39t39.5 -12h119v-119zM292 -195h-105l52 147h138z" />
    <glyph glyph-name="circumflex" unicode="&#x2c6;" horiz-adv-x="600" 
d="M213 558h-129l128 148h126l128 -148h-130l-61 65z" />
    <glyph glyph-name="caron" unicode="&#x2c7;" horiz-adv-x="600" 
d="M338 558h-126l-128 148h130l61 -65l62 65h129z" />
    <glyph glyph-name="breve" unicode="&#x2d8;" horiz-adv-x="600" 
d="M272 553q-71 0 -113 42t-44 111h105q0 -28 15 -45t40 -17q24 0 39.5 17t15.5 45h105q-3 -69 -47 -111t-116 -42z" />
    <glyph glyph-name="dotaccent" unicode="&#x2d9;" horiz-adv-x="600" 
d="M300 571q-37 0 -61.5 24t-24.5 60t24.5 60t61.5 24t61.5 -24t24.5 -60t-24.5 -60t-61.5 -24z" />
    <glyph glyph-name="ring" unicode="&#x2da;" horiz-adv-x="600" 
d="M275 543q-55 0 -92.5 35t-37.5 86q0 50 37.5 85.5t92.5 35.5t92.5 -35.5t37.5 -85.5q0 -51 -37.5 -86t-92.5 -35zM275 605q24 0 41 17t17 42t-17 41.5t-41 16.5t-41 -16.5t-17 -41.5t17 -42t41 -17z" />
    <glyph glyph-name="ogonek" unicode="&#x2db;" horiz-adv-x="600" 
d="M277 -200h-90q-51 0 -85 26.5t-34 70.5q0 66 86 125l121 -22q-94 -42 -94 -79q0 -25 33 -25h63v-96z" />
    <glyph glyph-name="tilde" unicode="&#x2dc;" horiz-adv-x="600" 
d="M338 572q-32 0 -60.5 20.5t-41.5 20.5q-15 0 -23.5 -11t-8.5 -27h-90v23q0 48 28 79.5t71 31.5q30 0 58 -20.5t44 -20.5q14 0 23 11t9 27h89v-23q0 -47 -28 -79t-70 -32z" />
    <glyph glyph-name="hungarumlaut" unicode="&#x2dd;" horiz-adv-x="600" 
d="M211 556h-96l73 150h154zM411 556h-97l74 150h153z" />
    <glyph glyph-name="uni0394" unicode="&#x394;" 
d="M585 0h-550v99l181 601h188l181 -601v-99zM305 554l-121 -425h245z" />
    <glyph glyph-name="uni03A9" unicode="&#x3a9;" horiz-adv-x="616" 
d="M262 0h-222v129h129v9q-128 77 -128 269q0 142 70.5 220.5t197.5 78.5q126 0 196.5 -78.5t70.5 -220.5q0 -192 -127 -269v-9h127v-129h-221v185q46 27 66.5 77t20.5 134q0 88 -34.5 135.5t-99.5 47.5q-64 0 -98.5 -47.5t-34.5 -135.5q0 -84 20.5 -134t66.5 -78v-184z" />
    <glyph glyph-name="uni03BC" unicode="&#x3bc;" horiz-adv-x="630" 
d="M568 116h18v-116h-80q-82 0 -95 68q-44 -74 -132 -74q-47 0 -71 28v-222h-137v714h137v-266q0 -139 94 -139q45 0 71.5 39.5t26.5 109.5v256h138v-365q0 -19 6.5 -26t23.5 -7z" />
    <glyph glyph-name="pi" unicode="&#x3c0;" horiz-adv-x="619" 
d="M597 514v-119h-79v-244q0 -19 7 -25.5t25 -6.5h19v-119h-86q-108 0 -108 108v287h-134v-395h-138v395h-75v119h569z" />
    <glyph glyph-name="uni0E3F" unicode="&#xe3f;" horiz-adv-x="633" 
d="M587 199q0 -89 -61 -141.5t-172 -57.5v-97h-85v97h-197v700h197v103h85v-104q101 -7 155.5 -54.5t54.5 -129.5q0 -63 -33 -102.5t-93 -52.5q149 -21 149 -161zM273 585h-66v-174h66v174zM429 498q0 36 -21 59t-59 27v-172q38 4 59 26.5t21 59.5zM273 297h-66v-181h66v181
zM349 297v-181q99 5 99 90q0 42 -26 65.5t-73 25.5z" />
    <glyph glyph-name="Wgrave" unicode="&#x1e80;" horiz-adv-x="712" 
d="M403 752h-106l-125 150h161zM275 0h-143l-113 700l143 1l65 -493l84 327h91l83 -327l70 492h138l-114 -700h-143l-81 324z" />
    <glyph glyph-name="wgrave" unicode="&#x1e81;" horiz-adv-x="682" 
d="M393 566h-106l-125 150h161zM267 0h-135l-109 514h134l63 -353l78 286h92l77 -286l63 353h130l-110 -514h-134l-74 261z" />
    <glyph glyph-name="Wacute" unicode="&#x1e82;" horiz-adv-x="712" 
d="M407 755h-103l73 147h161zM275 0h-143l-113 700l143 1l65 -493l84 327h91l83 -327l70 492h138l-114 -700h-143l-81 324z" />
    <glyph glyph-name="wacute" unicode="&#x1e83;" horiz-adv-x="682" 
d="M397 569h-103l73 147h161zM267 0h-135l-109 514h134l63 -353l78 286h92l77 -286l63 353h130l-110 -514h-134l-74 261z" />
    <glyph glyph-name="Wdieresis" unicode="&#x1e84;" horiz-adv-x="712" 
d="M249 762q-32 0 -53.5 21t-21.5 52t21.5 52t53.5 21t54 -21t22 -52t-22 -52t-54 -21zM457 762q-32 0 -53.5 21t-21.5 52t21.5 52t53.5 21t53.5 -21t21.5 -52t-21.5 -52t-53.5 -21zM275 0h-143l-113 700l143 1l65 -493l84 327h91l83 -327l70 492h138l-114 -700h-143
l-81 324z" />
    <glyph glyph-name="wdieresis" unicode="&#x1e85;" horiz-adv-x="682" 
d="M239 576q-32 0 -53.5 21t-21.5 52t21.5 52t53.5 21t54 -21t22 -52t-22 -52t-54 -21zM447 576q-32 0 -53.5 21t-21.5 52t21.5 52t53.5 21t53.5 -21t21.5 -52t-21.5 -52t-53.5 -21zM267 0h-135l-109 514h134l63 -353l78 286h92l77 -286l63 353h130l-110 -514h-134l-74 261z
" />
    <glyph glyph-name="Ygrave" unicode="&#x1ef2;" horiz-adv-x="652" 
d="M376 752h-106l-125 150h161zM401 0h-150v265l-240 435h170l146 -277l152 277h162l-240 -436v-264z" />
    <glyph glyph-name="ygrave" unicode="&#x1ef3;" horiz-adv-x="577" 
d="M337 566h-106l-125 150h161zM196 -200h-142v119h83q27 0 39 9t23 35l13 34l-200 517h150l127 -366l126 366h151l-231 -587q-28 -70 -55 -98.5t-84 -28.5z" />
    <glyph glyph-name="endash" unicode="&#x2013;" horiz-adv-x="604" 
d="M558 227h-512v115h512v-115z" />
    <glyph glyph-name="emdash" unicode="&#x2014;" horiz-adv-x="682" 
d="M637 227h-593v115h593v-115z" />
    <glyph glyph-name="quoteleft" unicode="&#x2018;" horiz-adv-x="317" 
d="M252 698v-75q-45 0 -70 -20t-25 -48v-15q15 8 36 8q30 0 50 -20.5t20 -57.5q0 -35 -25.5 -59.5t-65.5 -24.5q-49 0 -79.5 38t-30.5 99q0 82 52 128t138 47z" />
    <glyph glyph-name="quoteright" unicode="&#x2019;" horiz-adv-x="317" 
d="M64 390v75q46 0 71 20t25 49q0 10 -1 14q-16 -8 -35 -8q-30 0 -50 20.5t-20 58.5q0 35 25.5 59t65.5 24q49 0 79.5 -38t30.5 -99q0 -82 -52.5 -128t-138.5 -47z" />
    <glyph glyph-name="quotesinglbase" unicode="&#x201a;" horiz-adv-x="317" 
d="M64 -143v74q46 0 71 20t25 49q0 10 -1 14q-16 -8 -35 -8q-30 0 -50 21t-20 58q0 35 25.5 59t65.5 24q49 0 79.5 -38t30.5 -99q0 -82 -52.5 -128t-138.5 -46z" />
    <glyph glyph-name="quotedblleft" unicode="&#x201c;" horiz-adv-x="554" 
d="M252 698v-75q-45 0 -70 -20t-25 -48v-15q15 8 36 8q30 0 50 -20.5t20 -57.5q0 -35 -25.5 -59.5t-65.5 -24.5q-49 0 -79.5 38t-30.5 99q0 82 52 128t138 47zM489 698v-75q-45 0 -70 -20t-25 -48v-15q15 8 36 8q30 0 50 -20.5t20 -57.5q0 -35 -26 -59.5t-66 -24.5
q-49 0 -79 38t-30 99q0 82 52 128t138 47z" />
    <glyph glyph-name="quotedblright" unicode="&#x201d;" horiz-adv-x="554" 
d="M64 390v75q46 0 71 20t25 49q0 10 -1 14q-16 -8 -35 -8q-30 0 -50 20.5t-20 58.5q0 35 25.5 59t65.5 24q49 0 79.5 -38t30.5 -99q0 -82 -52.5 -128t-138.5 -47zM301 390v75q46 0 71 20t25 49q0 10 -1 14q-18 -8 -35 -8q-30 0 -50 20.5t-20 58.5q0 35 25.5 59t65.5 24
q49 0 79.5 -38t30.5 -99q0 -82 -52.5 -128t-138.5 -47z" />
    <glyph glyph-name="quotedblbase" unicode="&#x201e;" horiz-adv-x="554" 
d="M64 -143v74q46 0 71 20t25 49q0 10 -1 14q-16 -8 -35 -8q-30 0 -50 21t-20 58q0 35 25.5 59t65.5 24q49 0 79.5 -38t30.5 -99q0 -82 -52.5 -128t-138.5 -46zM301 -143v74q46 0 71 20t25 49q0 10 -1 14q-18 -8 -35 -8q-30 0 -50 21t-20 58q0 35 25.5 59t65.5 24
q49 0 79.5 -38t30.5 -99q0 -82 -52.5 -128t-138.5 -46z" />
    <glyph glyph-name="dagger" unicode="&#x2020;" horiz-adv-x="580" 
d="M353 507h171v-115h-171v-392h-126v392h-172v115h172v193h126v-193z" />
    <glyph glyph-name="daggerdbl" unicode="&#x2021;" horiz-adv-x="596" 
d="M541 544v-114h-180v-160h180v-114h-180v-156h-126v156h-180v114h180v160h-180v114h180v156h126v-156h180z" />
    <glyph glyph-name="bullet" unicode="&#x2022;" horiz-adv-x="563" 
d="M281 173q-72 0 -119 45.5t-47 116.5t47 116t119 45t119.5 -45t47.5 -116t-47.5 -116.5t-119.5 -45.5z" />
    <glyph glyph-name="ellipsis" unicode="&#x2026;" horiz-adv-x="789" 
d="M158 -6q-38 0 -63 24.5t-25 62.5t25 62.5t63 24.5t63.5 -25t25.5 -62q0 -38 -25.5 -62.5t-63.5 -24.5zM394 -6q-38 0 -63 24.5t-25 62.5t25 62.5t63 24.5t63.5 -25t25.5 -62q0 -38 -25.5 -62.5t-63.5 -24.5zM630 -6q-38 0 -63 24.5t-25 62.5q0 37 25 62t63 25t63.5 -25
t25.5 -62q0 -38 -25.5 -62.5t-63.5 -24.5z" />
    <glyph glyph-name="perthousand" unicode="&#x2030;" horiz-adv-x="807" 
d="M165 365q-58 0 -91 45.5t-33 124.5q0 80 33 125.5t91 45.5q57 0 90 -45.5t33 -125.5q0 -79 -33 -124.5t-90 -45.5zM516 700l-139 -333h-91l138 333h92zM165 629q-41 0 -41 -94q0 -93 41 -93q40 0 40 93q0 94 -40 94zM642 335q58 0 91 -45.5t33 -125.5t-33 -125t-91 -45
q-75 0 -103 81q-25 -81 -103 -81q-57 0 -90.5 45.5t-33.5 124.5q0 80 33 125.5t91 45.5q78 0 103 -81q25 81 103 81zM82 0l140 334h92l-138 -334h-94zM436 71q41 0 41 93q0 94 -41 94t-41 -94q0 -93 41 -93zM642 71q41 0 41 93q0 94 -41 94q-40 0 -40 -94q0 -93 40 -93z" />
    <glyph glyph-name="guilsinglleft" unicode="&#x2039;" horiz-adv-x="387" 
d="M340 0h-141l-152 257l152 257h141l-150 -257z" />
    <glyph glyph-name="guilsinglright" unicode="&#x203a;" horiz-adv-x="387" 
d="M340 257l-152 -257h-141l150 257l-150 257h141z" />
    <glyph glyph-name="fraction" unicode="&#x2044;" horiz-adv-x="160" 
d="M180 372h-87l180 328h87zM-113 0h-87l187 328h87z" />
    <glyph glyph-name="uni2051" unicode="&#x2051;" horiz-adv-x="572" 
d="M285 495l-95 -131l-82 71l101 111l-146 54l44 98l130 -65l-4 146h105l-5 -147l131 65l44 -99l-146 -53l100 -111l-81 -71zM285 42l-95 -131l-82 71l101 112l-146 53l44 98l130 -65l-4 146h105l-5 -147l131 65l44 -99l-146 -53l100 -111l-81 -70z" />
    <glyph glyph-name="uni2070" unicode="&#x2070;" horiz-adv-x="311" 
d="M156 743q59 0 93 -41t34 -114t-34 -114.5t-93 -41.5q-60 0 -94.5 41.5t-34.5 114.5t34.5 114t94.5 41zM156 680q-56 0 -56 -92q0 -17 1 -25l89 103q-14 14 -34 14zM156 495q55 0 55 93q0 15 -1 22l-88 -101q13 -14 34 -14z" />
    <glyph glyph-name="uni2074" unicode="&#x2074;" horiz-adv-x="313" 
d="M241 436h-71v67h-143v64l123 170h91v-172h45v-62h-45v-67zM170 669l-74 -104h74v104z" />
    <glyph glyph-name="uni2075" unicode="&#x2075;" horiz-adv-x="288" 
d="M144 431q-46 0 -77.5 26.5t-35.5 68.5h72q3 -13 15 -21t27 -8q17 0 28.5 11.5t11.5 29.5q0 17 -12 29.5t-28 12.5q-29 0 -40 -23h-70l9 180h201v-63h-143l-4 -58q28 24 62 24q45 0 72.5 -28.5t27.5 -73.5q0 -47 -33 -77t-83 -30z" />
    <glyph glyph-name="uni2076" unicode="&#x2076;" horiz-adv-x="296" 
d="M154 432q-59 0 -93.5 41.5t-34.5 109.5q0 71 36.5 115.5t94.5 44.5q43 0 74 -25.5t36 -66.5h-70q-7 35 -45 35q-26 0 -42 -24t-16 -56v-11q18 39 69 39q48 0 77.5 -28t29.5 -73t-32 -73t-84 -28zM154 490q19 0 31.5 12t12.5 31t-13 31.5t-31 12.5q-19 0 -32 -12.5
t-13 -30.5q0 -19 13 -31.5t32 -12.5z" />
    <glyph glyph-name="uni2077" unicode="&#x2077;" horiz-adv-x="257" 
d="M119 435h-80l117 237h-143v64h224v-60z" />
    <glyph glyph-name="uni2078" unicode="&#x2078;" horiz-adv-x="303" 
d="M151 432q-58 0 -91 25t-33 64q0 58 56 73q-47 22 -47 64q0 37 31.5 61t83.5 24t83.5 -24t31.5 -61q0 -43 -46 -64q27 -7 41.5 -27t14.5 -46q0 -39 -33.5 -64t-91.5 -25zM151 617q19 0 31.5 10t12.5 25t-12 25t-32 10q-19 0 -31 -10t-12 -25t12 -25t31 -10zM151 490
q23 0 35.5 10.5t12.5 26.5q0 17 -12.5 27.5t-35.5 10.5q-22 0 -34.5 -10.5t-12.5 -27.5q0 -16 12.5 -26.5t34.5 -10.5z" />
    <glyph glyph-name="uni2079" unicode="&#x2079;" horiz-adv-x="296" 
d="M140 432q-43 0 -74 24.5t-37 67.5h70q3 -15 15 -25t30 -10q27 0 43 22.5t16 57.5q0 7 -1 11q-18 -39 -69 -39q-48 0 -77.5 28t-29.5 72q0 46 32.5 74t84.5 28q59 0 93 -41.5t34 -109.5q0 -71 -36 -115.5t-94 -44.5zM143 598q19 0 31.5 12.5t12.5 30.5q0 19 -12.5 31
t-31.5 12q-20 0 -32 -12t-12 -31t12.5 -31t31.5 -12z" />
    <glyph glyph-name="uni2080" unicode="&#x2080;" horiz-adv-x="368" 
d="M184 -106q-74 0 -115.5 50t-41.5 138t41.5 138t115.5 50t115.5 -50t41.5 -138t-41.5 -138t-115.5 -50zM121 82q0 -10 2 -30l103 116q-16 21 -42 21q-29 0 -46 -28t-17 -79zM184 -24q30 0 47 27.5t17 78.5q0 16 -3 30l-102 -116q15 -20 41 -20z" />
    <glyph glyph-name="uni2081" unicode="&#x2081;" horiz-adv-x="319" 
d="M295 -100h-271v86h92v130q-7 -3 -19 -3h-72v85h55q38 0 38 36v30h92v-277h85v-87z" />
    <glyph glyph-name="uni2082" unicode="&#x2082;" horiz-adv-x="347" 
d="M320 -100h-290v81l146 101q41 30 41 63q0 18 -13 29.5t-34 11.5q-50 0 -50 -58v-3h-94v7q0 62 41 100t102 38q66 0 106.5 -34t40.5 -89q0 -61 -67 -108l-74 -53h145v-86z" />
    <glyph glyph-name="uni2083" unicode="&#x2083;" horiz-adv-x="354" 
d="M175 -106q-148 0 -151 130h96q2 -50 54 -50q23 0 37.5 11t14.5 30q0 39 -52 39h-24v62h22q23 0 37 9.5t14 27.5q0 17 -12.5 27t-32.5 10q-23 0 -36 -11.5t-15 -31.5h-94q1 58 40.5 90.5t106.5 32.5q65 0 102 -29.5t37 -75.5q0 -54 -59 -74q30 -6 48.5 -27t18.5 -54
q0 -53 -40 -84.5t-112 -31.5z" />
    <glyph glyph-name="uni2084" unicode="&#x2084;" horiz-adv-x="373" 
d="M292 -100h-93v79h-172v83l147 202h118v-205h54v-80h-54v-79zM199 178l-85 -119h85v119z" />
    <glyph glyph-name="uni2085" unicode="&#x2085;" horiz-adv-x="340" 
d="M171 -106q-59 0 -97 32t-43 85h94q8 -33 47 -33q20 0 32.5 12.5t12.5 33.5t-13 33.5t-33 12.5q-30 2 -44 -26h-91l10 220h249v-81h-171l-4 -63q26 24 69 24q56 0 89.5 -32.5t33.5 -87.5q0 -58 -39 -94t-102 -36z" />
    <glyph glyph-name="uni2086" unicode="&#x2086;" horiz-adv-x="352" 
d="M182 -106q-73 0 -114.5 49.5t-41.5 132.5q0 90 41.5 142t117.5 52q53 0 92.5 -30t47.5 -82h-93q-9 39 -52 39q-30 0 -48 -26t-18 -68v-11q23 47 87 47q58 0 91 -33.5t33 -88.5t-39 -89t-104 -34zM182 -31q23 0 36.5 13t13.5 35t-14 35.5t-36 13.5t-36 -13.5t-14 -35.5
t13.5 -35t36.5 -13z" />
    <glyph glyph-name="uni2087" unicode="&#x2087;" horiz-adv-x="308" 
d="M147 -100h-105l139 282h-168v82h272v-76z" />
    <glyph glyph-name="uni2088" unicode="&#x2088;" horiz-adv-x="359" 
d="M180 -106q-71 0 -112 30.5t-41 78.5q0 67 69 87q-57 24 -57 80q0 43 38.5 71.5t102.5 28.5q65 0 103.5 -28.5t38.5 -71.5q0 -56 -57 -80q68 -20 68 -87q0 -48 -41 -78.5t-112 -30.5zM180 120q22 0 36 11.5t14 29.5t-14 30t-36 12q-21 0 -35 -12t-14 -30t14 -29.5
t35 -11.5zM180 -37q25 0 40.5 12.5t15.5 31.5t-15.5 32t-40.5 13t-40.5 -13t-15.5 -32t15.5 -31.5t40.5 -12.5z" />
    <glyph glyph-name="uni2089" unicode="&#x2089;" horiz-adv-x="352" 
d="M167 -106q-53 0 -92.5 30t-47.5 82h94q9 -39 51 -39q30 0 48 26t18 68v11q-23 -47 -86 -47q-58 0 -91.5 33.5t-33.5 88.5t39 89t104 34q73 0 114.5 -49.5t41.5 -132.5q0 -90 -41.5 -142t-117.5 -52zM170 98q22 0 36 13.5t14 35.5t-13.5 35t-36.5 13t-36.5 -13t-13.5 -35
t14 -35.5t36 -13.5z" />
    <glyph glyph-name="franc" unicode="&#x20a3;" horiz-adv-x="598" 
d="M568 700v-129h-309v-164h257v-123h-257v-85h128v-105h-128v-94h-150v94h-96v105h96v501h459z" />
    <glyph glyph-name="uni20A6" unicode="&#x20a6;" horiz-adv-x="600" 
d="M594 457v-88h-60v-46h60v-88h-60v-235h-182l-70 235h-100v-235h-116v235h-60v88h60v46h-60v88h60v243h182l71 -243h99v243h116v-243h60zM216 457l-34 116v-116h34zM182 369v-46h74l-13 46h-61zM359 323h59v46h-73zM385 235l33 -113v113h-33z" />
    <glyph glyph-name="Euro" unicode="&#x20ac;" horiz-adv-x="642" 
d="M345 -6q-109 0 -178 63t-89 181h-63v88h56q-1 7 -1 24q0 3 0.5 10.5t0.5 11.5h-56v88h64q20 119 89 182.5t181 63.5q109 0 176 -64.5t78 -176.5h-140q-16 120 -115 120q-106 0 -128 -125h145l-17 -88h-141v-21v-25h132l-17 -88h-102q23 -123 127 -123q97 0 116 120h139
q-11 -113 -78.5 -177t-178.5 -64z" />
    <glyph glyph-name="uni20B9" unicode="&#x20b9;" horiz-adv-x="629" 
d="M484 0h-161l-106 235h-145v122h139q39 0 67 18t40 48h-246v89h246q-25 65 -107 65h-139v123h524l-17 -88h-148q36 -44 46 -100h103l-16 -89h-88q-9 -52 -39.5 -91.5t-76.5 -61.5z" />
    <glyph glyph-name="uni20BA" unicode="&#x20ba;" horiz-adv-x="610" 
d="M456 293h133q-14 -293 -269 -293h-218v243l-77 -26v93l77 26v49l-77 -26v93l77 26v222h148v-171l155 53v-93l-155 -53v-49l155 53v-93l-155 -53v-172h70q67 0 98.5 39t37.5 132z" />
    <glyph glyph-name="uni20BD" unicode="&#x20bd;" horiz-adv-x="644" 
d="M352 256h-80v-58h194v-114h-194v-84h-141v84h-99v114h99v58h-99v114h99v330h221q113 0 178.5 -59t65.5 -162q0 -104 -65.5 -163.5t-178.5 -59.5zM347 586h-75v-216h75q49 0 77.5 29t28.5 80q0 50 -28 78.5t-78 28.5z" />
    <glyph glyph-name="uni20BF" unicode="&#x20bf;" horiz-adv-x="631" 
d="M266 -96h-87v96h-107v700h107v104h88v-104h60v104h88v-114q71 -16 109.5 -61.5t38.5 -113.5q0 -63 -33 -102.5t-93 -52.5q149 -21 149 -161q0 -76 -44 -125t-127 -66v-104h-88v96h-61v-96zM217 585v-174h106q44 0 69 23t25 64q0 40 -24.5 63.5t-69.5 23.5h-106zM217 297
v-181h113q52 0 79.5 23.5t27.5 66.5t-28.5 67t-78.5 24h-113z" />
    <glyph glyph-name="uni2116" unicode="&#x2116;" horiz-adv-x="754" 
d="M572 234q-150 0 -150 236t150 236t150 -236t-150 -236zM148 0h-101v700h94l143 -428v428h100v-700h-93l-143 426v-426zM572 327q55 0 55 143t-55 143q-56 0 -56 -143t56 -143z" />
    <glyph glyph-name="trademark" unicode="&#x2122;" horiz-adv-x="654" 
d="M172 432h-69v203h-73v65h214v-65h-72v-203zM337 432h-64v268h91l65 -176l64 176h89v-268h-64v169l-66 -169h-49l-66 169v-169z" />
    <glyph glyph-name="uni2153" unicode="&#x2153;" horiz-adv-x="711" 
d="M227 399h-203v67h67v114q-6 -3 -15 -3h-52v68h46q23 0 23 25v30h72v-233h62v-68zM431 372h-87l180 328h87zM138 0h-87l187 328h87zM559 -5q-121 0 -124 107h74q2 -20 15 -32t36 -12q21 0 33 10t12 27q0 33 -47 33h-19v49h16q46 0 46 34q0 14 -11 23t-29 9q-42 0 -44 -38
h-73q1 47 32.5 74t85.5 27q52 0 83 -23.5t31 -60.5q0 -26 -14.5 -42.5t-35.5 -22.5q27 -5 42.5 -24t15.5 -44q0 -43 -33.5 -68.5t-91.5 -25.5z" />
    <glyph glyph-name="uni2155" unicode="&#x2155;" horiz-adv-x="699" 
d="M227 399h-203v67h67v114q-6 -3 -15 -3h-52v68h46q23 0 23 25v30h72v-233h62v-68zM431 372h-87l180 328h87zM138 0h-87l187 328h87zM555 -5q-46 0 -77.5 26.5t-35.5 68.5h72q3 -13 15 -21t27 -8q17 0 28.5 11.5t11.5 29.5q0 17 -12 29.5t-28 12.5q-28 0 -40 -23h-70l9 180
h201v-63h-143l-4 -58q28 24 62 24q45 0 72.5 -28.5t27.5 -73.5q0 -47 -33 -77t-83 -30z" />
    <glyph glyph-name="uni2156" unicode="&#x2156;" horiz-adv-x="740" 
d="M265 399h-236v63l120 86q36 26 36 54q0 16 -12 26.5t-29 10.5q-21 0 -33 -13t-12 -37v-3h-74v6q0 50 34 81.5t83 31.5q53 0 86.5 -28t33.5 -73q0 -51 -56 -91l-64 -47h123v-67zM472 372h-87l180 328h87zM179 0h-87l187 328h87zM596 -5q-46 0 -77.5 26.5t-35.5 68.5h72
q3 -13 15 -21t27 -8q17 0 28.5 11.5t11.5 29.5q0 17 -12 29.5t-28 12.5q-29 0 -40 -23h-70l9 180h201v-63h-143l-4 -58q28 24 62 24q45 0 72.5 -28.5t27.5 -73.5q0 -47 -33 -77t-83 -30z" />
    <glyph glyph-name="uni2157" unicode="&#x2157;" horiz-adv-x="748" 
d="M148 394q-121 0 -124 107h74q2 -20 15 -32t36 -12q21 0 33 10t12 27q0 33 -47 33h-19v49h16q46 0 46 34q0 14 -11 23t-29 9q-42 0 -44 -38h-73q1 47 32.5 74t85.5 27q52 0 83 -23.5t31 -60.5q0 -26 -14.5 -42.5t-35.5 -22.5q27 -5 42.5 -24t15.5 -44q0 -43 -33.5 -68.5
t-91.5 -25.5zM480 372h-87l180 328h87zM187 0h-87l187 328h87zM604 -5q-46 0 -77.5 26.5t-35.5 68.5h72q3 -13 15 -21t27 -8q17 0 28.5 11.5t11.5 29.5q0 17 -12 29.5t-28 12.5q-29 0 -40 -23h-70l9 180h201v-63h-143l-4 -58q28 24 62 24q45 0 72.5 -28.5t27.5 -73.5
q0 -47 -33 -77t-83 -30z" />
    <glyph glyph-name="uni2158" unicode="&#x2158;" horiz-adv-x="761" 
d="M241 399h-71v67h-143v64l123 170h91v-172h45v-62h-45v-67zM493 372h-87l180 328h87zM170 632l-74 -104h74v104zM200 0h-87l187 328h87zM617 -5q-46 0 -77.5 26.5t-35.5 68.5h72q3 -13 15 -21t27 -8q17 0 28.5 11.5t11.5 29.5q0 17 -12 29.5t-28 12.5q-28 0 -40 -23h-70
l9 180h201v-63h-143l-4 -58q28 24 62 24q45 0 72.5 -28.5t27.5 -73.5q0 -47 -33 -77t-83 -30z" />
    <glyph glyph-name="uni2159" unicode="&#x2159;" horiz-adv-x="707" 
d="M227 399h-203v67h67v114q-6 -3 -15 -3h-52v68h46q23 0 23 25v30h72v-233h62v-68zM431 372h-87l180 328h87zM138 0h-87l187 328h87zM565 -5q-59 0 -93.5 41.5t-34.5 109.5q0 71 36.5 115.5t94.5 44.5q43 0 74 -25.5t36 -66.5h-70q-7 35 -45 35q-26 0 -42 -24t-16 -56v-11
q18 39 69 39q48 0 77.5 -28t29.5 -73t-32 -73t-84 -28zM565 53q19 0 31.5 12t12.5 31t-13 31.5t-31 12.5q-19 0 -32 -12.5t-13 -30.5q0 -19 13 -31.5t32 -12.5z" />
    <glyph glyph-name="oneeighth" unicode="&#x215b;" horiz-adv-x="714" 
d="M227 399h-203v67h67v114q-6 -3 -15 -3h-52v68h46q23 0 23 25v30h72v-233h62v-68zM431 372h-87l180 328h87zM138 0h-87l187 328h87zM562 -5q-58 0 -91 25t-33 64q0 58 56 73q-47 22 -47 64q0 37 31.5 61t83.5 24t83.5 -24t31.5 -61q0 -43 -46 -64q27 -7 41.5 -27t14.5 -46
q0 -39 -33.5 -64t-91.5 -25zM562 180q19 0 31.5 10t12.5 25t-12 25t-32 10q-19 0 -31 -10t-12 -25t12 -25t31 -10zM562 53q23 0 35.5 10.5t12.5 26.5q0 17 -12.5 27.5t-35.5 10.5q-22 0 -34.5 -10.5t-12.5 -27.5q0 -16 12.5 -26.5t34.5 -10.5z" />
    <glyph glyph-name="threeeighths" unicode="&#x215c;" horiz-adv-x="763" 
d="M148 394q-121 0 -124 107h74q2 -20 15 -32t36 -12q21 0 33 10t12 27q0 33 -47 33h-19v49h16q46 0 46 34q0 14 -11 23t-29 9q-42 0 -44 -38h-73q1 47 32.5 74t85.5 27q52 0 83 -23.5t31 -60.5q0 -26 -14.5 -42.5t-35.5 -22.5q27 -5 42.5 -24t15.5 -44q0 -43 -33.5 -68.5
t-91.5 -25.5zM480 372h-87l180 328h87zM187 0h-87l187 328h87zM611 -5q-58 0 -91 25t-33 64q0 58 56 73q-47 22 -47 64q0 37 31.5 61t83.5 24t83.5 -24t31.5 -61q0 -43 -46 -64q27 -7 41.5 -27t14.5 -46q0 -39 -33.5 -64t-91.5 -25zM611 180q19 0 31.5 10t12.5 25t-12 25
t-32 10q-19 0 -31 -10t-12 -25t12 -25t31 -10zM611 53q23 0 35.5 10.5t12.5 26.5q0 17 -12.5 27.5t-35.5 10.5q-22 0 -34.5 -10.5t-12.5 -27.5q0 -16 12.5 -26.5t34.5 -10.5z" />
    <glyph glyph-name="fiveeighths" unicode="&#x215d;" horiz-adv-x="751" 
d="M144 394q-46 0 -77.5 26.5t-35.5 68.5h72q3 -13 15 -21t27 -8q17 0 28.5 11.5t11.5 29.5q0 17 -12 29.5t-28 12.5q-29 0 -40 -23h-70l9 180h201v-63h-143l-4 -58q28 24 62 24q45 0 72.5 -28.5t27.5 -73.5q0 -47 -33 -77t-83 -30zM468 372h-87l180 328h87zM175 0h-87
l187 328h87zM599 -5q-58 0 -91 25t-33 64q0 58 56 73q-47 22 -47 64q0 37 31.5 61t83.5 24t83.5 -24t31.5 -61q0 -43 -46 -64q27 -7 41.5 -27t14.5 -46q0 -39 -33.5 -64t-91.5 -25zM599 180q19 0 31.5 10t12.5 25t-12 25t-32 10q-19 0 -31 -10t-12 -25t12 -25t31 -10z
M599 53q23 0 35.5 10.5t12.5 26.5q0 17 -12.5 27.5t-35.5 10.5q-22 0 -34.5 -10.5t-12.5 -27.5q0 -16 12.5 -26.5t34.5 -10.5z" />
    <glyph glyph-name="seveneighths" unicode="&#x215e;" horiz-adv-x="720" 
d="M119 399h-80l117 237h-143v64h224v-60zM437 372h-87l180 328h87zM144 0h-87l187 328h87zM568 -5q-58 0 -91 25t-33 64q0 58 56 73q-47 22 -47 64q0 37 31.5 61t83.5 24t83.5 -24t31.5 -61q0 -43 -46 -64q27 -7 41.5 -27t14.5 -46q0 -39 -33.5 -64t-91.5 -25zM568 180
q19 0 31.5 10t12.5 25t-12 25t-32 10q-19 0 -31 -10t-12 -25t12 -25t31 -10zM568 53q23 0 35.5 10.5t12.5 26.5q0 17 -12.5 27.5t-35.5 10.5q-22 0 -34.5 -10.5t-12.5 -27.5q0 -16 12.5 -26.5t34.5 -10.5z" />
    <glyph glyph-name="arrowleft" unicode="&#x2190;" horiz-adv-x="613" 
d="M36 291l297 298l81 -81l-160 -157h313v-119h-312l159 -155l-81 -82z" />
    <glyph glyph-name="arrowup" unicode="&#x2191;" horiz-adv-x="615" 
d="M367 34h-119v360l-137 -141l-81 82l278 277l277 -277l-81 -82l-137 141v-360z" />
    <glyph glyph-name="arrowright" unicode="&#x2192;" horiz-adv-x="613" 
d="M577 290l-297 -297l-80 81l159 157l-312 -1v119h312l-159 156l80 82z" />
    <glyph glyph-name="arrowdown" unicode="&#x2193;" horiz-adv-x="615" 
d="M248 240v359h119v-359l137 140l81 -81l-277 -277l-278 277l81 81z" />
    <glyph glyph-name="arrowboth" unicode="&#x2194;" horiz-adv-x="676" 
d="M309 83l-91 -71l-191 279l191 277l91 -72l-102 -146h267l-107 146l91 72l192 -278l-192 -278l-91 71l107 147h-267z" />
    <glyph glyph-name="arrowupdn" unicode="&#x2195;" horiz-adv-x="595" 
d="M565 234l-267 -268l-268 268l81 81l127 -130v324l-127 -131l-81 82l267 267l268 -267l-81 -82l-127 131v-324l127 130z" />
    <glyph glyph-name="uni2196" unicode="&#x2196;" horiz-adv-x="584" 
d="M275 443l260 -258l-84 -84l-259 259l2 -223h-116v420h420v-115z" />
    <glyph glyph-name="uni2197" unicode="&#x2197;" horiz-adv-x="584" 
d="M392 346l-258 -260l-84 84l259 258l-223 -1v115h420v-420h-115z" />
    <glyph glyph-name="uni2198" unicode="&#x2198;" horiz-adv-x="584" 
d="M310 180l-260 258l84 85l258 -260l-1 223h115v-419h-420v115z" />
    <glyph glyph-name="uni2199" unicode="&#x2199;" horiz-adv-x="584" 
d="M192 277l257 260l85 -84l-260 -259l224 2v-116h-420v420h115z" />
    <glyph glyph-name="uni21B6" unicode="&#x21b6;" 
d="M366 706q91 0 141.5 -58.5t50.5 -161.5v-486h-103v490q0 59 -22 86t-67 27q-46 0 -68 -27t-22 -86v-176l78 79l70 -71l-199 -197l-199 197l70 71l77 -79v172q0 103 50.5 161.5t142.5 58.5z" />
    <glyph glyph-name="uni21B7" unicode="&#x21b7;" 
d="M447 314l77 79l70 -71l-199 -197l-199 197l70 71l78 -79v176q0 59 -22 86t-68 27q-45 0 -67 -27t-22 -86v-490h-103v486q0 103 50.5 161.5t141.5 58.5q92 0 142.5 -58.5t50.5 -161.5v-172z" />
    <glyph glyph-name="partialdiff" unicode="&#x2202;" horiz-adv-x="617" 
d="M303 -6q-118 0 -190 67t-72 171q0 106 68 165.5t161 59.5q97 0 145 -47q-23 72 -91.5 116.5t-204.5 57.5v122q115 -2 204 -37.5t142 -96.5t80 -136.5t27 -162.5q0 -122 -69 -200.5t-200 -78.5zM303 107q56 0 90 35.5t34 92.5q0 54 -35 87t-89 33q-52 0 -85 -35t-33 -89
t33 -89t85 -35z" />
    <glyph glyph-name="emptyset" unicode="&#x2205;" 
d="M570 555l-40 -41q47 -67 47 -156q0 -115 -75 -189t-192 -74q-85 0 -151 41l-42 -42l-66 66l39 40q-48 69 -48 158q0 115 75.5 189t192.5 74q87 0 152 -42l42 42zM186 358q0 -30 7 -54l179 182q-26 16 -62 16q-56 0 -90 -39.5t-34 -104.5zM310 213q56 0 90 39.5t34 105.5
q0 30 -7 52l-178 -182q26 -15 61 -15z" />
    <glyph glyph-name="product" unicode="&#x220f;" horiz-adv-x="654" 
d="M34 700h586v-125h-76v-681h-140v681h-154v-681h-140v681h-76v125z" />
    <glyph glyph-name="summation" unicode="&#x2211;" 
d="M570 -106h-530v119l257 298l-239 270v119h504v-128h-311l186 -212v-95l-211 -244h344v-127z" />
    <glyph glyph-name="minus" unicode="&#x2212;" horiz-adv-x="578" 
d="M525 242h-471v119h471v-119z" />
    <glyph glyph-name="radical" unicode="&#x221a;" horiz-adv-x="626" 
d="M400 0h-149l-133 328l-45 -22l-47 104l168 78l125 -325l149 537h137z" />
    <glyph glyph-name="infinity" unicode="&#x221e;" horiz-adv-x="667" 
d="M186 83q-73 0 -116.5 59t-43.5 153t43.5 153t116.5 59q92 0 148 -119q57 119 147 119q73 0 116.5 -59t43.5 -153t-43.5 -153t-116.5 -59q-90 0 -147 119q-30 -62 -65.5 -90.5t-82.5 -28.5zM197 196q44 0 79 98q-36 100 -79 100q-58 0 -58 -99t58 -99zM471 196q58 0 58 99
t-58 99q-42 0 -79 -99q35 -99 79 -99z" />
    <glyph glyph-name="integral" unicode="&#x222b;" horiz-adv-x="524" 
d="M176 -106h-142v119h105q51 0 51 57v468q0 77 39 119.5t116 42.5h145v-119h-108q-51 0 -51 -57v-468q0 -77 -39 -119.5t-116 -42.5z" />
    <glyph glyph-name="approxequal" unicode="&#x2248;" horiz-adv-x="578" 
d="M190 512q42 0 74.5 -15.5t54.5 -31t41 -15.5q54 0 54 62h113q0 -187 -140 -187q-42 0 -73.5 15.5t-54 31t-41.5 15.5q-53 0 -53 -62h-113q0 93 35.5 140t102.5 47zM190 259q42 0 74.5 -15.5t54.5 -31t41 -15.5q54 0 54 62h113q0 -187 -140 -187q-42 0 -73.5 15t-54 30.5
t-41.5 15.5q-53 0 -53 -62h-113q0 93 35.5 140.5t102.5 47.5z" />
    <glyph glyph-name="notequal" unicode="&#x2260;" horiz-adv-x="578" 
d="M514 472v-120h-136l-38 -117h174v-120h-214l-33 -98h-139l32 98h-95v120h135l39 117h-174v120h214l31 95h140l-32 -95h96z" />
    <glyph glyph-name="lessequal" unicode="&#x2264;" horiz-adv-x="578" 
d="M505 249v-126h1v-120h-433v120h404l-404 170v134l432 183v-138l-274 -112z" />
    <glyph glyph-name="greaterequal" unicode="&#x2265;" horiz-adv-x="578" 
d="M72 610l434 -183v-134l-417 -175h417v-121h-433v114h-1v138l275 111l-275 112v138z" />
    <glyph glyph-name="dotmath" unicode="&#x22c5;" horiz-adv-x="322" 
d="M160 204q-38 0 -64 25.5t-26 63.5q0 39 26 64.5t64 25.5q40 0 66 -25.5t26 -64.5q0 -38 -26 -63.5t-66 -25.5z" />
    <glyph glyph-name="filledbox" unicode="&#x25a0;" horiz-adv-x="847" 
d="M776 0h-704v700h704v-700z" />
    <glyph glyph-name="uni25A1" unicode="&#x25a1;" horiz-adv-x="845" 
d="M774 0h-702v700h702v-700zM214 570v-439h417v439h-417z" />
    <glyph glyph-name="uni25AF" unicode="&#x25af;" horiz-adv-x="606" 
d="M495 0h-383v700h383v-700zM227 593v-486h152v486h-152z" />
    <glyph glyph-name="triagup" unicode="&#x25b2;" horiz-adv-x="660" 
d="M640 0h-619l310 568z" />
    <glyph glyph-name="uni25B3" unicode="&#x25b3;" horiz-adv-x="660" 
d="M625 0h-589l296 569zM331 329l-112 -219h223z" />
    <glyph glyph-name="uni25B6" unicode="&#x25b6;" horiz-adv-x="574" 
d="M531 250l-446 -256v512z" />
    <glyph glyph-name="uni25B7" unicode="&#x25b7;" horiz-adv-x="578" 
d="M536 258l-459 -264v527zM186 345v-174l153 87z" />
    <glyph glyph-name="uni25C0" unicode="&#x25c0;" horiz-adv-x="574" 
d="M489 506v-512l-446 256z" />
    <glyph glyph-name="uni25C1" unicode="&#x25c1;" horiz-adv-x="578" 
d="M501 521v-527l-459 264zM239 258l153 -87v174z" />
    <glyph glyph-name="lozenge" unicode="&#x25ca;" horiz-adv-x="612" 
d="M391 0h-169l-185 350l185 350h169l185 -350zM192 350l115 -238l113 238l-113 239z" />
    <glyph glyph-name="uni25FD" unicode="&#x25fd;" horiz-adv-x="603" 
d="M559 0h-514v515h514v-515zM156 410v-304h291v304h-291z" />
    <glyph glyph-name="uni25FE" unicode="&#x25fe;" horiz-adv-x="603" 
d="M559 0h-515v515h515v-515z" />
    <glyph glyph-name="uni262E" unicode="&#x262e;" horiz-adv-x="645" 
d="M322 -4q-123 0 -203 79.5t-80 201.5q0 123 80 202t203 79q124 0 204.5 -79t80.5 -202q0 -122 -80.5 -201.5t-204.5 -79.5zM151 208l130 131v124q-68 -12 -108.5 -63t-40.5 -123q0 -42 19 -69zM364 339l129 -132q21 28 21 70q0 72 -41.5 123t-108.5 63v-124zM364 236v-145
q57 11 94 48zM281 91v143l-93 -96q34 -36 93 -47z" />
    <glyph glyph-name="uni26AA" unicode="&#x26aa;" horiz-adv-x="594" 
d="M297 -5q-111 0 -185 73.5t-74 183.5t74 183t185 73t185 -73t74 -183t-74 -183.5t-185 -73.5zM297 103q62 0 104 43t42 106t-42 106t-104 43t-104 -43t-42 -106t42 -106t104 -43z" />
    <glyph glyph-name="uni26AB" unicode="&#x26ab;" horiz-adv-x="594" 
d="M297 -5q-111 0 -185 73.5t-74 183.5t74 183t185 73t185 -73t74 -183t-74 -183.5t-185 -73.5z" />
    <glyph glyph-name="uni2713" unicode="&#x2713;" horiz-adv-x="694" 
d="M664 634l-392 -634l-243 372l91 68l150 -224l298 484z" />
    <glyph glyph-name="uni2715" unicode="&#x2715;" horiz-adv-x="642" 
d="M321 263l-193 -263l-100 79l202 271l-202 270l100 80l193 -262l194 262l99 -80l-202 -270l202 -271l-99 -79z" />
    <glyph glyph-name="uni2780" unicode="&#x2780;" horiz-adv-x="669" 
d="M335 53q-137 0 -219 84.5t-82 216.5q0 131 82 215.5t219 84.5t219 -84.5t82 -215.5q0 -132 -82 -216.5t-219 -84.5zM335 123q103 0 164 63t61 168t-61 167.5t-164 62.5t-165 -63t-62 -167q0 -105 62 -168t165 -63zM440 203h-203v67h67v114q-6 -3 -15 -3h-52v68h46
q23 0 23 25v30h72v-233h62v-68z" />
    <glyph glyph-name="uni2781" unicode="&#x2781;" horiz-adv-x="669" 
d="M335 53q-137 0 -219 84.5t-82 216.5q0 131 82 215.5t219 84.5t219 -84.5t82 -215.5q0 -132 -82 -216.5t-219 -84.5zM335 123q103 0 164 63t61 168t-61 167.5t-164 62.5t-165 -63t-62 -167q0 -105 62 -168t165 -63zM452 203h-236v63l120 86q36 26 36 54q0 16 -12 26.5
t-29 10.5q-21 0 -33 -13t-12 -37v-3h-74v6q0 50 34 81.5t83 31.5q53 0 86.5 -28t33.5 -73q0 -51 -56 -91l-64 -47h123v-67z" />
    <glyph glyph-name="uni2782" unicode="&#x2782;" horiz-adv-x="669" 
d="M335 53q-137 0 -219 84.5t-82 216.5q0 131 82 215.5t219 84.5t219 -84.5t82 -215.5q0 -132 -82 -216.5t-219 -84.5zM335 123q103 0 164 63t61 168t-61 167.5t-164 62.5t-165 -63t-62 -167q0 -105 62 -168t165 -63zM331 198q-121 0 -124 107h74q2 -20 15 -32t36 -12
q21 0 33 10t12 27q0 33 -47 33h-19v49h16q46 0 46 34q0 14 -11 23t-29 9q-42 0 -44 -38h-73q1 47 32.5 74t85.5 27q52 0 83 -23.5t31 -60.5q0 -26 -14.5 -42.5t-35.5 -22.5q27 -5 42.5 -24t15.5 -44q0 -43 -33.5 -68.5t-91.5 -25.5z" />
    <glyph glyph-name="uni2783" unicode="&#x2783;" horiz-adv-x="669" 
d="M335 53q-137 0 -219 84.5t-82 216.5q0 131 82 215.5t219 84.5t219 -84.5t82 -215.5q0 -132 -82 -216.5t-219 -84.5zM335 123q103 0 164 63t61 168t-61 167.5t-164 62.5t-165 -63t-62 -167q0 -105 62 -168t165 -63zM408 203h-71v67h-143v64l123 170h91v-172h45v-62h-45
v-67zM337 436l-74 -104h74v104z" />
    <glyph glyph-name="uni2784" unicode="&#x2784;" horiz-adv-x="669" 
d="M335 53q-137 0 -219 84.5t-82 216.5q0 131 82 215.5t219 84.5t219 -84.5t82 -215.5q0 -132 -82 -216.5t-219 -84.5zM335 123q103 0 164 63t61 168t-61 167.5t-164 62.5t-165 -63t-62 -167q0 -105 62 -168t165 -63zM333 198q-46 0 -77.5 26.5t-35.5 68.5h72q3 -13 15 -21
t27 -8q17 0 28.5 11.5t11.5 29.5q0 17 -12 29.5t-28 12.5q-28 0 -40 -23h-70l9 180h201v-63h-143l-4 -58q28 24 62 24q45 0 72.5 -28.5t27.5 -73.5q0 -47 -33 -77t-83 -30z" />
    <glyph glyph-name="uni2785" unicode="&#x2785;" horiz-adv-x="669" 
d="M335 53q-137 0 -219 84.5t-82 216.5q0 131 82 215.5t219 84.5t219 -84.5t82 -215.5q0 -132 -82 -216.5t-219 -84.5zM335 123q103 0 164 63t61 168t-61 167.5t-164 62.5t-165 -63t-62 -167q0 -105 62 -168t165 -63zM334 198q-59 0 -93.5 41.5t-34.5 109.5q0 71 36.5 115.5
t94.5 44.5q43 0 74 -25.5t36 -66.5h-70q-7 35 -45 35q-26 0 -42 -24t-16 -56v-11q18 39 69 39q48 0 77.5 -28t29.5 -73t-32 -73t-84 -28zM334 256q19 0 31.5 12t12.5 31t-13 31.5t-31 12.5q-19 0 -32 -12.5t-13 -30.5q0 -19 13 -31.5t32 -12.5z" />
    <glyph glyph-name="uni2786" unicode="&#x2786;" horiz-adv-x="669" 
d="M335 53q-137 0 -219 84.5t-82 216.5q0 131 82 215.5t219 84.5t219 -84.5t82 -215.5q0 -132 -82 -216.5t-219 -84.5zM335 123q103 0 164 63t61 168t-61 167.5t-164 62.5t-165 -63t-62 -167q0 -105 62 -168t165 -63zM332 203h-80l117 237h-143v64h224v-60z" />
    <glyph glyph-name="uni2787" unicode="&#x2787;" horiz-adv-x="669" 
d="M335 53q-137 0 -219 84.5t-82 216.5q0 131 82 215.5t219 84.5t219 -84.5t82 -215.5q0 -132 -82 -216.5t-219 -84.5zM335 123q103 0 164 63t61 168t-61 167.5t-164 62.5t-165 -63t-62 -167q0 -105 62 -168t165 -63zM334 199q-58 0 -91 25t-33 64q0 58 56 73q-47 22 -47 64
q0 37 31.5 61t83.5 24t83.5 -24t31.5 -61q0 -43 -46 -64q27 -7 41.5 -27t14.5 -46q0 -39 -33.5 -64t-91.5 -25zM334 384q19 0 31.5 10t12.5 25t-12 25t-32 10q-19 0 -31 -10t-12 -25t12 -25t31 -10zM334 257q23 0 35.5 10.5t12.5 26.5q0 17 -12.5 27.5t-35.5 10.5
q-22 0 -34.5 -10.5t-12.5 -27.5q0 -16 12.5 -26.5t34.5 -10.5z" />
    <glyph glyph-name="uni2788" unicode="&#x2788;" horiz-adv-x="669" 
d="M335 53q-137 0 -219 84.5t-82 216.5q0 131 82 215.5t219 84.5t219 -84.5t82 -215.5q0 -132 -82 -216.5t-219 -84.5zM335 123q103 0 164 63t61 168t-61 167.5t-164 62.5t-165 -63t-62 -167q0 -105 62 -168t165 -63zM332 198q-43 0 -74 24.5t-37 67.5h70q3 -15 15 -25
t30 -10q27 0 43 22.5t16 57.5q0 7 -1 11q-18 -39 -69 -39q-48 0 -77.5 28t-29.5 72q0 46 32.5 74t84.5 28q59 0 93 -41.5t34 -109.5q0 -71 -36 -115.5t-94 -44.5zM335 364q19 0 31.5 12.5t12.5 30.5q0 19 -12.5 31t-31.5 12q-20 0 -32 -12t-12 -31t12.5 -31t31.5 -12z" />
    <glyph glyph-name="uni278A" unicode="&#x278a;" 
d="M38 0h544v700h-544v-700zM453 168h-271v86h92v130q-7 -3 -19 -3h-72v85h55q38 0 38 36v30h92v-277h85v-87z" />
    <glyph glyph-name="uni278B" unicode="&#x278b;" 
d="M38 0h544v700h-544v-700zM454 168h-290v81l146 101q41 30 41 63q0 18 -13 29.5t-34 11.5q-50 0 -50 -58v-3h-94v7q0 62 41 100t102 38q66 0 106.5 -34t40.5 -89q0 -61 -67 -108l-74 -53h145v-86z" />
    <glyph glyph-name="uni278C" unicode="&#x278c;" 
d="M38 0h544v700h-544v-700zM305 162q-148 0 -151 130h96q2 -50 54 -50q23 0 37.5 11t14.5 30q0 39 -52 39h-24v62h22q23 0 37 9.5t14 27.5q0 17 -12.5 27t-32.5 10q-23 0 -36 -11.5t-15 -31.5h-94q1 58 40.5 90.5t106.5 32.5q65 0 102 -29.5t37 -75.5q0 -54 -59 -74
q30 -6 48.5 -27t18.5 -54q0 -53 -40 -84.5t-112 -31.5z" />
    <glyph glyph-name="uni278D" unicode="&#x278d;" 
d="M38 0h544v700h-544v-700zM410 168h-93v79h-172v83l147 202h118v-205h54v-80h-54v-79zM317 446l-85 -119h85v119z" />
    <glyph glyph-name="uni278E" unicode="&#x278e;" 
d="M38 0h544v700h-544v-700zM308 162q-59 0 -97 32t-43 85h94q8 -33 47 -33q20 0 32.5 12.5t12.5 33.5t-13 33.5t-33 12.5q-30 2 -44 -26h-91l10 220h249v-81h-171l-4 -63q26 24 69 24q56 0 89.5 -32.5t33.5 -87.5q0 -58 -39 -94t-102 -36z" />
    <glyph glyph-name="uni278F" unicode="&#x278f;" 
d="M38 0h544v700h-544v-700zM309 162q-73 0 -114.5 49.5t-41.5 132.5q0 90 41.5 142t117.5 52q53 0 92.5 -30t47.5 -82h-93q-9 39 -52 39q-30 0 -48 -26t-18 -68v-11q23 47 87 47q58 0 91 -33.5t33 -88.5t-39 -89t-104 -34zM309 237q23 0 36.5 13t13.5 35t-14 35.5t-36 13.5
t-36 -13.5t-14 -35.5t13.5 -35t36.5 -13z" />
    <glyph glyph-name="uni2790" unicode="&#x2790;" 
d="M38 0h544v700h-544v-700zM311 168h-105l139 282h-168v82h272v-76z" />
    <glyph glyph-name="uni2791" unicode="&#x2791;" 
d="M38 0h544v700h-544v-700zM310 162q-71 0 -112 30.5t-41 78.5q0 67 69 87q-57 24 -57 80q0 43 38.5 71.5t102.5 28.5q65 0 103.5 -28.5t38.5 -71.5q0 -56 -57 -80q68 -20 68 -87q0 -48 -41 -78.5t-112 -30.5zM310 388q22 0 36 11.5t14 29.5t-14 30t-36 12q-21 0 -35 -12
t-14 -30t14 -29.5t35 -11.5zM310 231q25 0 40.5 12.5t15.5 31.5t-15.5 32t-40.5 13t-40.5 -13t-15.5 -32t15.5 -31.5t40.5 -12.5z" />
    <glyph glyph-name="uni2792" unicode="&#x2792;" 
d="M38 0h544v700h-544v-700zM305 162q-53 0 -92.5 30t-47.5 82h94q9 -39 51 -39q30 0 48 26t18 68v11q-23 -47 -86 -47q-58 0 -91.5 33.5t-33.5 88.5t39 89t104 34q73 0 114.5 -49.5t41.5 -132.5q0 -90 -41.5 -142t-117.5 -52zM308 366q22 0 36 13.5t14 35.5t-13.5 35
t-36.5 13t-36.5 -13t-13.5 -35t14 -35.5t36 -13.5z" />
    <glyph glyph-name="uni27A1" unicode="&#x27a1;" 
d="M243 627l80 79l269 -270l-269 -269l-80 79l135 133h-145q-31 0 -45 -14.5t-14 -46.5v-318h-115v319q0 82 45 128.5t126 46.5h148z" />
    <glyph glyph-name="uni2B05" unicode="&#x2b05;" 
d="M242 494h148q81 0 126 -46.5t45 -128.5v-319h-115v318q0 32 -14 46.5t-45 14.5h-145l135 -133l-80 -79l-269 269l269 270l80 -79z" />
    <glyph glyph-name="uni2B06" unicode="&#x2b06;" 
d="M40 436l270 270l270 -270l-80 -79l-132 135v-492h-116v492l-132 -135z" />
    <glyph glyph-name="uni2B07" unicode="&#x2b07;" 
d="M368 208l132 135l80 -79l-270 -270l-270 270l80 79l132 -135v492h116v-492z" />
    <glyph glyph-name="uni2B08" unicode="&#x2b08;" 
d="M146 587v113h382v-381l-113 -1l2 190l-109 -111q-30 -30 -42 -57.5t-12 -67.5v-272h-116v270q0 63 18.5 109.5t68.5 98.5l110 111z" />
    <glyph glyph-name="uni2B09" unicode="&#x2b09;" 
d="M285 589l110 -111q50 -52 68.5 -98.5t18.5 -109.5v-270h-116v272q0 40 -12 67.5t-42 57.5l-109 111l2 -190l-113 1v381h382v-113z" />
    <glyph glyph-name="uni2B0A" unicode="&#x2b0a;" 
d="M417 192l-2 190l113 -1v-381h-382v113l189 -2l-110 111q-50 52 -68.5 98.5t-18.5 109.5v270h116v-272q0 -40 12 -67.5t42 -57.5z" />
    <glyph glyph-name="uni2B0B" unicode="&#x2b0b;" 
d="M482 700v-270q0 -63 -18.5 -109.5t-68.5 -98.5l-110 -111l189 2v-113h-382v381l113 1l-2 -190l109 111q30 30 42 57.5t12 67.5v272h116z" />
    <glyph glyph-name="u1F10B" unicode="&#x1f10b;" horiz-adv-x="669" 
d="M335 654q137 0 219 -84.5t82 -215.5q0 -132 -82 -216.5t-219 -84.5t-219 84.5t-82 216.5q0 131 82 215.5t219 84.5zM335 123q103 0 164 63t61 168t-61 167.5t-164 62.5t-165 -63t-62 -167q0 -105 62 -168t165 -63zM334 509q59 0 93 -41t34 -114t-34 -114.5t-93 -41.5
q-60 0 -94.5 41.5t-34.5 114.5t34.5 114t94.5 41zM334 446q-56 0 -56 -92q0 -17 1 -25l89 103q-14 14 -34 14zM334 261q55 0 55 93q0 15 -1 22l-88 -101q13 -14 34 -14z" />
    <glyph glyph-name="u1F10C" unicode="&#x1f10c;" 
d="M38 0h544v700h-544v-700zM310 162q-74 0 -115.5 50t-41.5 138t41.5 138t115.5 50t115.5 -50t41.5 -138t-41.5 -138t-115.5 -50zM247 350q0 -10 2 -30l103 116q-16 21 -42 21q-29 0 -46 -28t-17 -79zM310 244q30 0 47 27.5t17 78.5q0 16 -3 30l-102 -116q15 -20 41 -20z
" />
    <glyph glyph-name="J.ss05" horiz-adv-x="542" 
d="M321 215v485h150v-501q0 -95 -51 -147t-142 -52h-248v129h209q43 0 62.5 21t19.5 65z" />
    <glyph glyph-name="Q.ss06" horiz-adv-x="690" 
d="M647 350q0 -119 -46.5 -205t-128.5 -124l37 -99h-120l-27 72h-17q-136 0 -219 97t-83 259t83 259t219 97t219 -97t83 -259zM389 244l37 -98q68 51 68 204q0 229 -149 229q-72 0 -110 -58t-38 -171q0 -201 117 -226l-45 120h120z" />
    <glyph glyph-name="a.ss01" horiz-adv-x="640" 
d="M432 451l13 63h124v-514h-124l-13 71q-59 -77 -154 -77q-103 0 -169 71.5t-66 191.5q0 118 67 191t172 73q95 0 150 -70zM309 109q55 0 88 40.5t33 106.5q0 67 -33 108t-88 41q-56 0 -89 -40.5t-33 -107.5q0 -66 33.5 -107t88.5 -41z" />
    <glyph glyph-name="a.ss02" horiz-adv-x="583" 
d="M291 520q109 0 168.5 -48t59.5 -139v-333h-125l-11 65q-60 -71 -156 -71q-85 0 -135.5 40t-50.5 112q0 82 60.5 126t176.5 44h101v25q0 35 -24 55.5t-68 20.5q-41 0 -67 -17t-31 -46h-136q8 75 72 120.5t166 45.5zM259 96q55 0 87 31.5t33 84.5v10h-103
q-44 0 -68.5 -17.5t-24.5 -49.5q0 -27 20.5 -43t55.5 -16z" />
    <glyph glyph-name="f.ss03" horiz-adv-x="551" 
d="M509 580h-142q-43 0 -43 -42v-24h185v-119h-182v-276h164v-119h-449v119h144v276h-142v119h142v38q0 148 155 148h168v-120z" />
    <glyph glyph-name="y.ss04" horiz-adv-x="619" 
d="M407 259v255h141v-504q0 -97 -63 -156.5t-187 -59.5q-106 0 -167 47t-65 132h137q18 -72 102 -72q106 0 106 112v53q-57 -67 -147 -67q-95 0 -147 58t-52 174v283h141v-264q0 -132 95 -132q51 0 78.5 36.5t27.5 104.5z" />
    <glyph glyph-name="Jcircumflex.ss05" horiz-adv-x="542" 
d="M334 754h-129l128 148h126l128 -148h-130l-61 65zM321 215v485h150v-501q0 -95 -51 -147t-142 -52h-248v129h209q43 0 62.5 21t19.5 65z" />
    <glyph glyph-name="aacute.ss01" horiz-adv-x="640" 
d="M340 716h161l-131 -147h-103zM432 451l13 63h124v-514h-124l-13 71q-59 -77 -154 -77q-103 0 -169 71.5t-66 191.5q0 118 67 191t172 73q95 0 150 -70zM309 109q55 0 88 40.5t33 106.5q0 67 -33 108t-88 41q-56 0 -89 -40.5t-33 -107.5q0 -66 33.5 -107t88.5 -41z" />
    <glyph glyph-name="aacute.ss02" horiz-adv-x="583" 
d="M315 716h161l-131 -147h-103zM291 520q109 0 168.5 -48t59.5 -139v-333h-125l-11 65q-60 -71 -156 -71q-85 0 -135.5 40t-50.5 112q0 82 60.5 126t176.5 44h101v25q0 35 -24 55.5t-68 20.5q-41 0 -67 -17t-31 -46h-136q8 75 72 120.5t166 45.5zM259 96q55 0 87 31.5
t33 84.5v10h-103q-44 0 -68.5 -17.5t-24.5 -49.5q0 -27 20.5 -43t55.5 -16z" />
    <glyph glyph-name="abreve.ss01" horiz-adv-x="640" 
d="M313 563q-71 0 -113 42t-44 111h105q0 -28 15 -45t40 -17q24 0 39.5 17t15.5 45h105q-3 -69 -47 -111t-116 -42zM432 451l13 63h124v-514h-124l-13 71q-59 -77 -154 -77q-103 0 -169 71.5t-66 191.5q0 118 67 191t172 73q95 0 150 -70zM309 109q55 0 88 40.5t33 106.5
q0 67 -33 108t-88 41q-56 0 -89 -40.5t-33 -107.5q0 -66 33.5 -107t88.5 -41z" />
    <glyph glyph-name="abreve.ss02" horiz-adv-x="583" 
d="M288 563q-71 0 -113 42t-44 111h105q0 -28 15 -45t40 -17q24 0 39.5 17t15.5 45h105q-3 -69 -47 -111t-116 -42zM291 520q109 0 168.5 -48t59.5 -139v-333h-125l-11 65q-60 -71 -156 -71q-85 0 -135.5 40t-50.5 112q0 82 60.5 126t176.5 44h101v25q0 35 -24 55.5
t-68 20.5q-41 0 -67 -17t-31 -46h-136q8 75 72 120.5t166 45.5zM259 96q55 0 87 31.5t33 84.5v10h-103q-44 0 -68.5 -17.5t-24.5 -49.5q0 -27 20.5 -43t55.5 -16z" />
    <glyph glyph-name="acircumflex.ss01" horiz-adv-x="640" 
d="M377 568l-61 65l-62 -65h-129l128 148h126l128 -148h-130zM432 451l13 63h124v-514h-124l-13 71q-59 -77 -154 -77q-103 0 -169 71.5t-66 191.5q0 118 67 191t172 73q95 0 150 -70zM309 109q55 0 88 40.5t33 106.5q0 67 -33 108t-88 41q-56 0 -89 -40.5t-33 -107.5
q0 -66 33.5 -107t88.5 -41z" />
    <glyph glyph-name="acircumflex.ss02" horiz-adv-x="583" 
d="M352 568l-61 65l-62 -65h-129l128 148h126l128 -148h-130zM291 520q109 0 168.5 -48t59.5 -139v-333h-125l-11 65q-60 -71 -156 -71q-85 0 -135.5 40t-50.5 112q0 82 60.5 126t176.5 44h101v25q0 35 -24 55.5t-68 20.5q-41 0 -67 -17t-31 -46h-136q8 75 72 120.5
t166 45.5zM259 96q55 0 87 31.5t33 84.5v10h-103q-44 0 -68.5 -17.5t-24.5 -49.5q0 -27 20.5 -43t55.5 -16z" />
    <glyph glyph-name="adieresis.ss01" horiz-adv-x="640" 
d="M212 576q-32 0 -53.5 21t-21.5 52t21.5 52t53.5 21t54 -21t22 -52t-22 -52t-54 -21zM420 576q-32 0 -53.5 21t-21.5 52t21.5 52t53.5 21t53.5 -21t21.5 -52t-21.5 -52t-53.5 -21zM432 451l13 63h124v-514h-124l-13 71q-59 -77 -154 -77q-103 0 -169 71.5t-66 191.5
q0 118 67 191t172 73q95 0 150 -70zM309 109q55 0 88 40.5t33 106.5q0 67 -33 108t-88 41q-56 0 -89 -40.5t-33 -107.5q0 -66 33.5 -107t88.5 -41z" />
    <glyph glyph-name="adieresis.ss02" horiz-adv-x="583" 
d="M187 576q-32 0 -53.5 21t-21.5 52t21.5 52t53.5 21t54 -21t22 -52t-22 -52t-54 -21zM395 576q-32 0 -53.5 21t-21.5 52t21.5 52t53.5 21t53.5 -21t21.5 -52t-21.5 -52t-53.5 -21zM291 520q109 0 168.5 -48t59.5 -139v-333h-125l-11 65q-60 -71 -156 -71q-85 0 -135.5 40
t-50.5 112q0 82 60.5 126t176.5 44h101v25q0 35 -24 55.5t-68 20.5q-41 0 -67 -17t-31 -46h-136q8 75 72 120.5t166 45.5zM259 96q55 0 87 31.5t33 84.5v10h-103q-44 0 -68.5 -17.5t-24.5 -49.5q0 -27 20.5 -43t55.5 -16z" />
    <glyph glyph-name="agrave.ss01" horiz-adv-x="640" 
d="M296 716l70 -150h-106l-125 150h161zM432 451l13 63h124v-514h-124l-13 71q-59 -77 -154 -77q-103 0 -169 71.5t-66 191.5q0 118 67 191t172 73q95 0 150 -70zM309 109q55 0 88 40.5t33 106.5q0 67 -33 108t-88 41q-56 0 -89 -40.5t-33 -107.5q0 -66 33.5 -107t88.5 -41z
" />
    <glyph glyph-name="agrave.ss02" horiz-adv-x="583" 
d="M271 716l70 -150h-106l-125 150h161zM291 520q109 0 168.5 -48t59.5 -139v-333h-125l-11 65q-60 -71 -156 -71q-85 0 -135.5 40t-50.5 112q0 82 60.5 126t176.5 44h101v25q0 35 -24 55.5t-68 20.5q-41 0 -67 -17t-31 -46h-136q8 75 72 120.5t166 45.5zM259 96
q55 0 87 31.5t33 84.5v10h-103q-44 0 -68.5 -17.5t-24.5 -49.5q0 -27 20.5 -43t55.5 -16z" />
    <glyph glyph-name="amacron.ss01" horiz-adv-x="640" 
d="M161 699h311v-100h-311v100zM432 451l13 63h124v-514h-124l-13 71q-59 -77 -154 -77q-103 0 -169 71.5t-66 191.5q0 118 67 191t172 73q95 0 150 -70zM309 109q55 0 88 40.5t33 106.5q0 67 -33 108t-88 41q-56 0 -89 -40.5t-33 -107.5q0 -66 33.5 -107t88.5 -41z" />
    <glyph glyph-name="amacron.ss02" horiz-adv-x="583" 
d="M136 699h311v-100h-311v100zM291 520q109 0 168.5 -48t59.5 -139v-333h-125l-11 65q-60 -71 -156 -71q-85 0 -135.5 40t-50.5 112q0 82 60.5 126t176.5 44h101v25q0 35 -24 55.5t-68 20.5q-41 0 -67 -17t-31 -46h-136q8 75 72 120.5t166 45.5zM259 96q55 0 87 31.5
t33 84.5v10h-103q-44 0 -68.5 -17.5t-24.5 -49.5q0 -27 20.5 -43t55.5 -16z" />
    <glyph glyph-name="aogonek.ss01" horiz-adv-x="640" 
d="M508 -104h63v-96h-90q-51 0 -85 26.5t-34 70.5q0 64 80 121l-10 53q-59 -77 -154 -77q-103 0 -169 71.5t-66 191.5q0 118 67 191t172 73q95 0 150 -70l13 63h124v-514q-94 -42 -94 -79q0 -25 33 -25zM309 109q55 0 88 40.5t33 106.5q0 67 -33 108t-88 41q-56 0 -89 -40.5
t-33 -107.5q0 -66 33.5 -107t88.5 -41z" />
    <glyph glyph-name="aogonek.ss02" horiz-adv-x="583" 
d="M458 -104h63v-96h-90q-51 0 -85 26.5t-34 70.5q0 64 79 120l-8 48q-60 -71 -156 -71q-85 0 -135.5 40t-50.5 112q0 82 60.5 126t176.5 44h101v25q0 35 -24 55.5t-68 20.5q-41 0 -67 -17t-31 -46h-136q8 75 72 120.5t166 45.5q109 0 168.5 -48t59.5 -139v-333
q-94 -42 -94 -79q0 -25 33 -25zM259 96q55 0 87 31.5t33 84.5v10h-103q-44 0 -68.5 -17.5t-24.5 -49.5q0 -27 20.5 -43t55.5 -16z" />
    <glyph glyph-name="aring.ss01" horiz-adv-x="640" 
d="M316 553q-55 0 -92.5 35t-37.5 86q0 50 37.5 85.5t92.5 35.5t92.5 -35.5t37.5 -85.5q0 -51 -37.5 -86t-92.5 -35zM316 732q-24 0 -41 -16.5t-17 -41.5t17 -42t41 -17t41 17t17 42t-17 41.5t-41 16.5zM432 451l13 63h124v-514h-124l-13 71q-59 -77 -154 -77
q-103 0 -169 71.5t-66 191.5q0 118 67 191t172 73q95 0 150 -70zM309 109q55 0 88 40.5t33 106.5q0 67 -33 108t-88 41q-56 0 -89 -40.5t-33 -107.5q0 -66 33.5 -107t88.5 -41z" />
    <glyph glyph-name="aring.ss02" horiz-adv-x="583" 
d="M291 553q-55 0 -92.5 35t-37.5 86q0 50 37.5 85.5t92.5 35.5t92.5 -35.5t37.5 -85.5q0 -51 -37.5 -86t-92.5 -35zM291 732q-24 0 -41 -16.5t-17 -41.5t17 -42t41 -17t41 17t17 42t-17 41.5t-41 16.5zM291 520q109 0 168.5 -48t59.5 -139v-333h-125l-11 65
q-60 -71 -156 -71q-85 0 -135.5 40t-50.5 112q0 82 60.5 126t176.5 44h101v25q0 35 -24 55.5t-68 20.5q-41 0 -67 -17t-31 -46h-136q8 75 72 120.5t166 45.5zM259 96q55 0 87 31.5t33 84.5v10h-103q-44 0 -68.5 -17.5t-24.5 -49.5q0 -27 20.5 -43t55.5 -16z" />
    <glyph glyph-name="atilde.ss01" horiz-adv-x="640" 
d="M277 623q-15 0 -23.5 -11t-8.5 -27h-90v23q0 48 28 79.5t71 31.5q30 0 58 -20.5t44 -20.5q14 0 23 11t9 27h89v-23q0 -47 -28 -79t-70 -32q-32 0 -60.5 20.5t-41.5 20.5zM432 451l13 63h124v-514h-124l-13 71q-59 -77 -154 -77q-103 0 -169 71.5t-66 191.5q0 118 67 191
t172 73q95 0 150 -70zM309 109q55 0 88 40.5t33 106.5q0 67 -33 108t-88 41q-56 0 -89 -40.5t-33 -107.5q0 -66 33.5 -107t88.5 -41z" />
    <glyph glyph-name="atilde.ss02" horiz-adv-x="583" 
d="M252 623q-15 0 -23.5 -11t-8.5 -27h-90v23q0 48 28 79.5t71 31.5q30 0 58 -20.5t44 -20.5q14 0 23 11t9 27h89v-23q0 -47 -28 -79t-70 -32q-32 0 -60.5 20.5t-41.5 20.5zM291 520q109 0 168.5 -48t59.5 -139v-333h-125l-11 65q-60 -71 -156 -71q-85 0 -135.5 40
t-50.5 112q0 82 60.5 126t176.5 44h101v25q0 35 -24 55.5t-68 20.5q-41 0 -67 -17t-31 -46h-136q8 75 72 120.5t166 45.5zM259 96q55 0 87 31.5t33 84.5v10h-103q-44 0 -68.5 -17.5t-24.5 -49.5q0 -27 20.5 -43t55.5 -16z" />
    <glyph glyph-name="yacute.ss04" horiz-adv-x="619" 
d="M330 716h161l-131 -147h-103zM407 259v255h141v-504q0 -97 -63 -156.5t-187 -59.5q-106 0 -167 47t-65 132h137q18 -72 102 -72q106 0 106 112v53q-57 -67 -147 -67q-95 0 -147 58t-52 174v283h141v-264q0 -132 95 -132q51 0 78.5 36.5t27.5 104.5z" />
    <glyph glyph-name="ycircumflex.ss04" horiz-adv-x="619" 
d="M367 568l-61 65l-62 -65h-129l128 148h126l128 -148h-130zM407 259v255h141v-504q0 -97 -63 -156.5t-187 -59.5q-106 0 -167 47t-65 132h137q18 -72 102 -72q106 0 106 112v53q-57 -67 -147 -67q-95 0 -147 58t-52 174v283h141v-264q0 -132 95 -132q51 0 78.5 36.5
t27.5 104.5z" />
    <glyph glyph-name="ydieresis.ss04" horiz-adv-x="619" 
d="M202 576q-32 0 -53.5 21t-21.5 52t21.5 52t53.5 21t54 -21t22 -52t-22 -52t-54 -21zM410 576q-32 0 -53.5 21t-21.5 52t21.5 52t53.5 21t53.5 -21t21.5 -52t-21.5 -52t-53.5 -21zM407 259v255h141v-504q0 -97 -63 -156.5t-187 -59.5q-106 0 -167 47t-65 132h137
q18 -72 102 -72q106 0 106 112v53q-57 -67 -147 -67q-95 0 -147 58t-52 174v283h141v-264q0 -132 95 -132q51 0 78.5 36.5t27.5 104.5z" />
    <glyph glyph-name="ygrave.ss04" horiz-adv-x="619" 
d="M286 716l70 -150h-106l-125 150h161zM407 259v255h141v-504q0 -97 -63 -156.5t-187 -59.5q-106 0 -167 47t-65 132h137q18 -72 102 -72q106 0 106 112v53q-57 -67 -147 -67q-95 0 -147 58t-52 174v283h141v-264q0 -132 95 -132q51 0 78.5 36.5t27.5 104.5z" />
    <glyph glyph-name="seven.ss07" horiz-adv-x="563" 
d="M531 700v-93l-279 -607h-155l272 583h-205v-109h-122v226h489z" />
    <glyph glyph-name="zero.tf" 
d="M310 706q124 0 194.5 -91t70.5 -249v-32q0 -161 -70.5 -250.5t-194.5 -89.5t-194.5 89.5t-70.5 250.5v32q0 158 70.5 249t194.5 91zM186 361v-22q0 -23 2 -57l219 245q-31 66 -97 66q-124 0 -124 -232zM434 339v22q0 21 -2 57l-218 -246q32 -64 96 -64q124 0 124 231z
" />
    <glyph glyph-name="one.tf" 
d="M399 700v-578h155v-122h-464v122h165v324q-13 -4 -33 -4h-129v119h113q25 0 38 20t13 51v68h142z" />
    <glyph glyph-name="two.tf" 
d="M560 0h-501v111l258 220q48 42 71 75.5t23 73.5q0 50 -28 77.5t-74 27.5q-48 0 -77.5 -33t-29.5 -89v-11h-145v20q0 101 69 167.5t184 66.5q117 0 181.5 -60t64.5 -160q0 -71 -33.5 -124t-104.5 -113l-149 -128h291v-121z" />
    <glyph glyph-name="three.tf" 
d="M445 362q123 -31 123 -164q0 -92 -69 -148t-188 -56q-122 0 -192.5 61.5t-70.5 172.5h143q1 -58 34.5 -89.5t86.5 -31.5q48 0 78.5 27t30.5 73q0 42 -27.5 66t-81.5 24h-69v116h59q53 0 80.5 25t27.5 68q0 41 -29 64t-73 23q-47 0 -78 -29.5t-32 -77.5h-140
q1 99 71.5 159.5t181.5 60.5q113 0 178.5 -53t65.5 -140q0 -57 -30.5 -96t-79.5 -55z" />
    <glyph glyph-name="four.tf" 
d="M501 0h-142v150h-325v119l285 431h182v-430h81v-120h-81v-150zM359 553l-187 -283h187v283z" />
    <glyph glyph-name="five.tf" 
d="M344 477q102 0 165 -66.5t63 -173.5q0 -116 -73.5 -179.5t-184.5 -63.5q-115 0 -185.5 66t-75.5 165h143q6 -50 37.5 -81.5t82.5 -31.5q45 0 78 33t33 92q0 56 -30.5 91t-81.5 35q-83 0 -112 -73h-140l20 410h448v-121h-316l-8 -153q51 51 137 51z" />
    <glyph glyph-name="six.tf" 
d="M323 -6q-142 0 -217 110q-61 88 -61 239q0 174 74.5 268.5t205.5 94.5q96 0 163.5 -54.5t80.5 -148.5h-142q-10 42 -39.5 64.5t-73.5 22.5q-62 0 -96.5 -56.5t-34.5 -141.5v-17q1 3 4.5 9t4.5 7q23 35 64.5 56.5t89.5 21.5q103 0 166 -65.5t63 -171.5
q0 -107 -69.5 -172.5t-182.5 -65.5zM322 107q49 0 79 34.5t30 90.5t-29.5 90.5t-78.5 34.5q-50 0 -81 -34.5t-31 -90.5t30.5 -90.5t80.5 -34.5z" />
    <glyph glyph-name="seven.tf" 
d="M256 0h-156l285 578h-332v122h499v-93z" />
    <glyph glyph-name="seven.tf.ss07" 
d="M552 700v-93l-282 -607h-155l275 583h-205v-109h-122v226h489z" />
    <glyph glyph-name="eight.tf" 
d="M459 367q50 -18 83 -61.5t33 -107.5q0 -92 -70 -148t-195 -56t-195 56t-70 148q0 63 33 106.5t84 61.5q-43 19 -71.5 57.5t-28.5 92.5q0 86 67.5 138t180.5 52t180.5 -52t67.5 -138q0 -51 -28 -90.5t-71 -58.5zM310 600q-46 0 -75 -25t-29 -65q0 -41 29 -66t75 -25
q47 0 75.5 25t28.5 66q0 40 -28.5 65t-75.5 25zM310 100q53 0 85.5 28.5t32.5 73.5t-32.5 73.5t-85.5 28.5q-52 0 -85 -28.5t-33 -73.5t33 -73.5t85 -28.5z" />
    <glyph glyph-name="nine.tf" 
d="M295 -6q-107 0 -171 53.5t-75 149.5h141q9 -41 38.5 -64t74.5 -23q63 0 97.5 57t34.5 141v18q-3 -6 -16 -22q-51 -70 -145 -70q-103 0 -166 63.5t-63 170.5q0 105 69.5 171.5t182.5 66.5q136 0 210 -102q68 -91 68 -246q0 -175 -72.5 -269.5t-207.5 -94.5zM297 345
q49 0 80 34.5t31 90.5t-30 89.5t-80 33.5q-49 0 -79 -34t-30 -89q0 -56 29 -90.5t79 -34.5z" />
    <glyph glyph-name="uni2786.ss07" horiz-adv-x="669" 
d="M335 53q-137 0 -219 84.5t-82 216.5q0 131 82 215.5t219 84.5t219 -84.5t82 -215.5q0 -132 -82 -216.5t-219 -84.5zM335 123q103 0 164 63t61 168t-61 167.5t-164 62.5t-165 -63t-62 -167q0 -105 62 -168t165 -63zM337 203h-82l118 237h-85v-42h-67v106h232v-60z" />
    <glyph glyph-name="zero.ss09" horiz-adv-x="607" 
d="M304 -6q-130 0 -202.5 73t-72.5 207v152q0 134 72.5 207t202.5 73t202 -73t72 -207v-152q0 -134 -72 -207t-202 -73zM304 61q204 0 204 216v146q0 216 -204 216q-205 0 -205 -216v-146q0 -216 205 -216zM304 162q-74 0 -115.5 50t-41.5 138t41.5 138t115.5 50
q73 0 114.5 -50t41.5 -138t-41.5 -138t-114.5 -50zM240 350q0 -15 3 -30l102 116q-17 21 -41 21q-30 0 -47 -28.5t-17 -78.5zM304 244q29 0 46 27.5t17 78.5q0 12 -2 30l-103 -116q17 -20 42 -20z" />
    <glyph glyph-name="one.ss09" horiz-adv-x="607" 
d="M304 -6q-130 0 -202.5 73t-72.5 207v152q0 134 72.5 207t202.5 73t202 -73t72 -207v-152q0 -134 -72 -207t-202 -73zM304 61q204 0 204 216v146q0 216 -204 216q-205 0 -205 -216v-146q0 -216 205 -216zM447 168h-271v86h92v130q-8 -3 -19 -3h-72v85h55q38 0 38 36v30h91
v-277h86v-87z" />
    <glyph glyph-name="two.ss09" horiz-adv-x="607" 
d="M304 -6q-130 0 -202.5 73t-72.5 207v152q0 134 72.5 207t202.5 73t202 -73t72 -207v-152q0 -134 -72 -207t-202 -73zM304 61q204 0 204 216v146q0 216 -204 216q-205 0 -205 -216v-146q0 -216 205 -216zM448 168h-290v81l146 101q41 30 41 63q0 18 -13 29.5t-34 11.5
q-50 0 -50 -58v-3h-94v7q0 62 41 100t102 38q65 0 105.5 -34t40.5 -89q0 -61 -66 -108l-74 -53h145v-86z" />
    <glyph glyph-name="three.ss09" horiz-adv-x="607" 
d="M304 -6q-130 0 -202.5 73t-72.5 207v152q0 134 72.5 207t202.5 73t202 -73t72 -207v-152q0 -134 -72 -207t-202 -73zM304 61q204 0 204 216v146q0 216 -204 216q-205 0 -205 -216v-146q0 -216 205 -216zM298 162q-148 0 -151 130h96q2 -50 54 -50q23 0 37.5 11t14.5 30
q0 39 -52 39h-23v62h21q23 0 37 9.5t14 27.5q0 17 -12.5 27t-32.5 10q-23 0 -36 -11.5t-15 -31.5h-94q1 58 40.5 90.5t106.5 32.5q65 0 102 -29.5t37 -75.5q0 -54 -59 -74q30 -6 48.5 -27t18.5 -54q0 -53 -40 -84.5t-112 -31.5z" />
    <glyph glyph-name="four.ss09" horiz-adv-x="607" 
d="M304 -6q-130 0 -202.5 73t-72.5 207v152q0 134 72.5 207t202.5 73t202 -73t72 -207v-152q0 -134 -72 -207t-202 -73zM304 61q204 0 204 216v146q0 216 -204 216q-205 0 -205 -216v-146q0 -216 205 -216zM403 168h-93v79h-172v83l147 202h118v-205h54v-80h-54v-79z
M310 446l-85 -119h85v119z" />
    <glyph glyph-name="five.ss09" horiz-adv-x="607" 
d="M304 -6q-130 0 -202.5 73t-72.5 207v152q0 134 72.5 207t202.5 73t202 -73t72 -207v-152q0 -134 -72 -207t-202 -73zM304 61q204 0 204 216v146q0 216 -204 216q-205 0 -205 -216v-146q0 -216 205 -216zM302 162q-59 0 -97 32t-43 85h94q7 -33 47 -33q20 0 32.5 12.5
t12.5 33.5t-13 33.5t-33 12.5q-30 1 -44 -26h-91l10 220h249v-81h-171l-5 -63q27 24 70 24q56 0 89.5 -32.5t33.5 -87.5q0 -58 -39 -94t-102 -36z" />
    <glyph glyph-name="six.ss09" horiz-adv-x="607" 
d="M304 -6q-130 0 -202.5 73t-72.5 207v152q0 134 72.5 207t202.5 73t202 -73t72 -207v-152q0 -134 -72 -207t-202 -73zM304 61q204 0 204 216v146q0 216 -204 216q-205 0 -205 -216v-146q0 -216 205 -216zM303 162q-73 0 -114.5 49.5t-41.5 132.5q0 90 41.5 142t116.5 52
q54 0 93.5 -30t46.5 -82h-93q-9 39 -51 39q-31 0 -48.5 -25.5t-17.5 -68.5v-11q23 47 86 47q58 0 91 -33.5t33 -88.5q0 -56 -39 -89.5t-103 -33.5zM303 237q23 0 36.5 13t13.5 35t-14 35.5t-36 13.5q-23 0 -37 -13.5t-14 -35.5t14 -35t37 -13z" />
    <glyph glyph-name="seven.ss09" horiz-adv-x="607" 
d="M304 -6q-130 0 -202.5 73t-72.5 207v152q0 134 72.5 207t202.5 73t202 -73t72 -207v-152q0 -134 -72 -207t-202 -73zM304 61q204 0 204 216v146q0 216 -204 216q-205 0 -205 -216v-146q0 -216 205 -216zM304 168h-104l139 282h-169v82h273v-76z" />
    <glyph glyph-name="seven.ss07.ss09" horiz-adv-x="607" 
d="M304 -6q-130 0 -202.5 73t-72.5 207v152q0 134 72.5 207t202.5 73t202 -73t72 -207v-152q0 -134 -72 -207t-202 -73zM304 61q204 0 204 216v146q0 216 -204 216q-205 0 -205 -216v-146q0 -216 205 -216zM161 532h284v-76l-139 -288h-104l139 282h-95v-49h-85v131z" />
    <glyph glyph-name="eight.ss09" horiz-adv-x="607" 
d="M304 -6q-130 0 -202.5 73t-72.5 207v152q0 134 72.5 207t202.5 73t202 -73t72 -207v-152q0 -134 -72 -207t-202 -73zM304 61q204 0 204 216v146q0 216 -204 216q-205 0 -205 -216v-146q0 -216 205 -216zM304 162q-71 0 -112.5 30.5t-41.5 78.5q0 67 69 87q-57 24 -57 80
q0 43 38.5 71.5t103.5 28.5q64 0 102.5 -28.5t38.5 -71.5q0 -56 -57 -80q68 -20 68 -87q0 -48 -40.5 -78.5t-111.5 -30.5zM304 388q22 0 35.5 11.5t13.5 29.5t-13.5 30t-35.5 12t-36 -12t-14 -30t14 -29.5t36 -11.5zM304 231q24 0 39.5 12.5t15.5 31.5t-15.5 32t-39.5 13
q-26 0 -41.5 -13t-15.5 -32t15.5 -31.5t41.5 -12.5z" />
    <glyph glyph-name="nine.ss09" horiz-adv-x="607" 
d="M304 -6q-130 0 -202.5 73t-72.5 207v152q0 134 72.5 207t202.5 73t202 -73t72 -207v-152q0 -134 -72 -207t-202 -73zM304 61q204 0 204 216v146q0 216 -204 216q-205 0 -205 -216v-146q0 -216 205 -216zM299 162q-53 0 -92.5 30t-47.5 82h93q9 -39 52 -39q30 0 48 26
t18 68v11q-24 -47 -87 -47q-58 0 -91 33.5t-33 88.5t39 89t104 34q73 0 114.5 -49.5t41.5 -132.5q0 -90 -41.5 -142t-117.5 -52zM302 366q22 0 36 13.5t14 35.5t-13.5 35t-36.5 13t-36.5 -13t-13.5 -35t14 -35.5t36 -13.5z" />
    <glyph glyph-name="uni2790.ss07" 
d="M38 0h544v700h-544v-700zM167 532h284v-76l-138 -288h-105l139 282h-95v-49h-85v131z" />
    <glyph glyph-name="u1F10C.left" horiz-adv-x="607" 
d="M407 0h169v700h-169q-205 2 -291.5 -83t-86.5 -251v-32q0 -82 19 -141.5t62.5 -104.5t117.5 -67t179 -21zM323 162q-74 0 -115.5 50t-41.5 138t41.5 138t115.5 50t115.5 -50t41.5 -138t-41.5 -138t-115.5 -50zM260 350q0 -10 2 -30l103 116q-17 21 -42 21q-29 0 -46 -28
t-17 -79zM323 244q30 0 47 27.5t17 78.5q0 16 -3 30l-102 -116q15 -20 41 -20z" />
    <glyph glyph-name="uni278A.left" horiz-adv-x="607" 
d="M407 0h169v700h-169q-205 2 -291.5 -83t-86.5 -251v-32q0 -82 19 -141.5t62.5 -104.5t117.5 -67t179 -21zM467 168h-271v86h92v130q-8 -3 -19 -3h-72v85h55q38 0 38 36v30h92v-277h85v-87z" />
    <glyph glyph-name="uni278B.left" horiz-adv-x="607" 
d="M407 0h169v700h-169q-205 2 -291.5 -83t-86.5 -251v-32q0 -82 19 -141.5t62.5 -104.5t117.5 -67t179 -21zM468 168h-290v81l146 101q41 30 41 63q0 18 -13 29.5t-34 11.5q-50 0 -50 -58v-3h-94v7q0 62 41 100t102 38q66 0 106.5 -34t40.5 -89q0 -61 -67 -108l-74 -53h145
v-86z" />
    <glyph glyph-name="uni278C.left" horiz-adv-x="607" 
d="M407 0h169v700h-169q-205 2 -291.5 -83t-86.5 -251v-32q0 -82 19 -141.5t62.5 -104.5t117.5 -67t179 -21zM318 162q-148 0 -151 130h96q2 -50 54 -50q23 0 37.5 11t14.5 30q0 39 -52 39h-24v62h22q23 0 37 9.5t14 27.5q0 17 -12.5 27t-32.5 10q-23 0 -36 -11.5t-15 -31.5
h-94q1 58 40.5 90.5t106.5 32.5q65 0 102 -29.5t37 -75.5q0 -54 -59 -74q30 -6 48.5 -27t18.5 -54q0 -53 -40 -84.5t-112 -31.5z" />
    <glyph glyph-name="uni278D.left" horiz-adv-x="607" 
d="M407 0h169v700h-169q-205 2 -291.5 -83t-86.5 -251v-32q0 -82 19 -141.5t62.5 -104.5t117.5 -67t179 -21zM423 168h-93v79h-172v83l147 202h118v-205h54v-80h-54v-79zM330 446l-85 -119h85v119z" />
    <glyph glyph-name="uni278E.left" horiz-adv-x="607" 
d="M407 0h169v700h-169q-205 2 -291.5 -83t-86.5 -251v-32q0 -82 19 -141.5t62.5 -104.5t117.5 -67t179 -21zM322 162q-59 0 -97 32t-43 85h94q8 -33 47 -33q20 0 32.5 12.5t12.5 33.5t-13 33.5t-33 12.5q-30 2 -44 -26h-91l10 220h249v-81h-171l-4 -63q26 24 69 24
q56 0 89.5 -32.5t33.5 -87.5q0 -58 -39 -94t-102 -36z" />
    <glyph glyph-name="uni278F.left" horiz-adv-x="607" 
d="M407 0h169v700h-169q-205 2 -291.5 -83t-86.5 -251v-32q0 -82 19 -141.5t62.5 -104.5t117.5 -67t179 -21zM323 162q-73 0 -114.5 49.5t-41.5 132.5q0 90 41.5 142t117.5 52q53 0 92.5 -30t47.5 -82h-93q-9 39 -52 39q-30 0 -48 -26t-18 -68v-11q23 47 87 47
q58 0 91 -33.5t33 -88.5t-39 -89t-104 -34zM323 237q23 0 36.5 13t13.5 35t-14 35.5t-36 13.5t-36 -13.5t-14 -35.5t13.5 -35t36.5 -13z" />
    <glyph glyph-name="uni2790.left" horiz-adv-x="607" 
d="M407 0h169v700h-169q-205 2 -291.5 -83t-86.5 -251v-32q0 -82 19 -141.5t62.5 -104.5t117.5 -67t179 -21zM325 168h-105l139 282h-168v82h272v-76z" />
    <glyph glyph-name="uni2790.ss07.left" horiz-adv-x="607" 
d="M407 0h169v700h-169q-205 2 -291.5 -83t-86.5 -251v-32q0 -82 19 -141.5t62.5 -104.5t117.5 -67t179 -21zM180 532h284v-76l-138 -288h-105l139 282h-95v-49h-85v131z" />
    <glyph glyph-name="uni2791.left" horiz-adv-x="607" 
d="M407 0h169v700h-169q-205 2 -291.5 -83t-86.5 -251v-32q0 -82 19 -141.5t62.5 -104.5t117.5 -67t179 -21zM323 162q-71 0 -112 30.5t-41 78.5q0 67 69 87q-57 24 -57 80q0 43 38.5 71.5t102.5 28.5q65 0 103.5 -28.5t38.5 -71.5q0 -56 -57 -80q68 -20 68 -87
q0 -48 -41 -78.5t-112 -30.5zM323 388q22 0 36 11.5t14 29.5t-14 30t-36 12q-21 0 -35 -12t-14 -30t14 -29.5t35 -11.5zM323 231q25 0 40.5 12.5t15.5 31.5t-15.5 32t-40.5 13t-40.5 -13t-15.5 -32t15.5 -31.5t40.5 -12.5z" />
    <glyph glyph-name="uni2792.left" horiz-adv-x="607" 
d="M407 0h169v700h-169q-205 2 -291.5 -83t-86.5 -251v-32q0 -82 19 -141.5t62.5 -104.5t117.5 -67t179 -21zM319 162q-53 0 -92.5 30t-47.5 82h94q9 -39 51 -39q30 0 48 26t18 68v11q-23 -47 -86 -47q-58 0 -91.5 33.5t-33.5 88.5t39 89t104 34q73 0 114.5 -49.5
t41.5 -132.5q0 -90 -41.5 -142t-117.5 -52zM322 366q22 0 36 13.5t14 35.5t-13.5 35t-36.5 13t-36.5 -13t-13.5 -35t14 -35.5t36 -13.5z" />
    <glyph glyph-name="u1F10C.right" horiz-adv-x="607" 
d="M32 0h169q105 -1 179 21t117.5 67t62.5 104.5t19 141.5v32q0 166 -86.5 251t-291.5 83h-169v-700zM283 162q-74 0 -115.5 50t-41.5 138t41.5 138t115.5 50t115.5 -50t41.5 -138t-41.5 -138t-115.5 -50zM220 350q0 -10 2 -30l103 116q-17 21 -42 21q-29 0 -46 -28t-17 -79
zM283 244q30 0 47 27.5t17 78.5q0 16 -3 30l-102 -116q15 -20 41 -20z" />
    <glyph glyph-name="uni278A.right" horiz-adv-x="607" 
d="M32 0h169q105 -1 179 21t117.5 67t62.5 104.5t19 141.5v32q0 166 -86.5 251t-291.5 83h-169v-700zM427 168h-271v86h92v130q-8 -3 -19 -3h-72v85h55q38 0 38 36v30h92v-277h85v-87z" />
    <glyph glyph-name="uni278B.right" horiz-adv-x="607" 
d="M32 0h169q105 -1 179 21t117.5 67t62.5 104.5t19 141.5v32q0 166 -86.5 251t-291.5 83h-169v-700zM428 168h-290v81l146 101q41 30 41 63q0 18 -13 29.5t-34 11.5q-50 0 -50 -58v-3h-94v7q0 62 41 100t102 38q66 0 106.5 -34t40.5 -89q0 -61 -67 -108l-74 -53h145v-86z
" />
    <glyph glyph-name="uni278C.right" horiz-adv-x="607" 
d="M32 0h169q105 -1 179 21t117.5 67t62.5 104.5t19 141.5v32q0 166 -86.5 251t-291.5 83h-169v-700zM278 162q-148 0 -151 130h96q2 -50 54 -50q23 0 37.5 11t14.5 30q0 39 -52 39h-24v62h22q23 0 37 9.5t14 27.5q0 17 -12.5 27t-32.5 10q-23 0 -36 -11.5t-15 -31.5h-94
q1 58 40.5 90.5t106.5 32.5q65 0 102 -29.5t37 -75.5q0 -54 -59 -74q30 -6 48.5 -27t18.5 -54q0 -53 -40 -84.5t-112 -31.5z" />
    <glyph glyph-name="uni278D.right" horiz-adv-x="607" 
d="M32 0h169q105 -1 179 21t117.5 67t62.5 104.5t19 141.5v32q0 166 -86.5 251t-291.5 83h-169v-700zM383 168h-93v79h-172v83l147 202h118v-205h54v-80h-54v-79zM290 446l-85 -119h85v119z" />
    <glyph glyph-name="uni278E.right" horiz-adv-x="607" 
d="M32 0h169q105 -1 179 21t117.5 67t62.5 104.5t19 141.5v32q0 166 -86.5 251t-291.5 83h-169v-700zM282 162q-59 0 -97 32t-43 85h94q8 -33 47 -33q20 0 32.5 12.5t12.5 33.5t-13 33.5t-33 12.5q-30 2 -44 -26h-91l10 220h249v-81h-171l-4 -63q26 24 69 24
q56 0 89.5 -32.5t33.5 -87.5q0 -58 -39 -94t-102 -36z" />
    <glyph glyph-name="uni278F.right" horiz-adv-x="607" 
d="M32 0h169q105 -1 179 21t117.5 67t62.5 104.5t19 141.5v32q0 166 -86.5 251t-291.5 83h-169v-700zM283 162q-73 0 -114.5 49.5t-41.5 132.5q0 90 41.5 142t117.5 52q53 0 92.5 -30t47.5 -82h-93q-9 39 -52 39q-30 0 -48 -26t-18 -68v-11q23 47 87 47q58 0 91 -33.5
t33 -88.5t-39 -89t-104 -34zM283 237q23 0 36.5 13t13.5 35t-14 35.5t-36 13.5t-36 -13.5t-14 -35.5t13.5 -35t36.5 -13z" />
    <glyph glyph-name="uni2790.right" horiz-adv-x="607" 
d="M32 0h169q105 -1 179 21t117.5 67t62.5 104.5t19 141.5v32q0 166 -86.5 251t-291.5 83h-169v-700zM285 168h-105l139 282h-168v82h272v-76z" />
    <glyph glyph-name="uni2790.ss07.right" horiz-adv-x="607" 
d="M32 0h169q105 -1 179 21t117.5 67t62.5 104.5t19 141.5v32q0 166 -86.5 251t-291.5 83h-169v-700zM140 532h284v-76l-138 -288h-105l139 282h-95v-49h-85v131z" />
    <glyph glyph-name="uni2791.right" horiz-adv-x="607" 
d="M32 0h169q105 -1 179 21t117.5 67t62.5 104.5t19 141.5v32q0 166 -86.5 251t-291.5 83h-169v-700zM283 162q-71 0 -112 30.5t-41 78.5q0 67 69 87q-57 24 -57 80q0 43 38.5 71.5t102.5 28.5q65 0 103.5 -28.5t38.5 -71.5q0 -56 -57 -80q68 -20 68 -87q0 -48 -41 -78.5
t-112 -30.5zM283 388q22 0 36 11.5t14 29.5t-14 30t-36 12q-21 0 -35 -12t-14 -30t14 -29.5t35 -11.5zM283 231q25 0 40.5 12.5t15.5 31.5t-15.5 32t-40.5 13t-40.5 -13t-15.5 -32t15.5 -31.5t40.5 -12.5z" />
    <glyph glyph-name="uni2792.right" horiz-adv-x="607" 
d="M32 0h169q105 -1 179 21t117.5 67t62.5 104.5t19 141.5v32q0 166 -86.5 251t-291.5 83h-169v-700zM279 162q-53 0 -92.5 30t-47.5 82h94q9 -39 51 -39q30 0 48 26t18 68v11q-23 -47 -86 -47q-58 0 -91.5 33.5t-33.5 88.5t39 89t104 34q73 0 114.5 -49.5t41.5 -132.5
q0 -90 -41.5 -142t-117.5 -52zM282 366q22 0 36 13.5t14 35.5t-13.5 35t-36.5 13t-36.5 -13t-13.5 -35t14 -35.5t36 -13.5z" />
    <glyph glyph-name="periodcentered.case" horiz-adv-x="327" 
d="M163 266q-38 0 -63 24.5t-25 62.5t25 63t63 25t63.5 -25t25.5 -63q0 -37 -25.5 -62t-63.5 -25z" />
    <glyph glyph-name="bar.case" horiz-adv-x="372" 
d="M261 0h-149v700h149v-700z" />
    <glyph glyph-name="brokenbar.case" horiz-adv-x="372" 
d="M261 383h-149v317h149v-317zM261 0h-149v313h149v-313z" />
    <glyph glyph-name="slash.case" horiz-adv-x="400" 
d="M156 0h-141l229 700h141z" />
    <glyph glyph-name="backslash.case" horiz-adv-x="400" 
d="M156 700l229 -700h-142l-228 700h141z" />
    <glyph glyph-name="parenleft.case" horiz-adv-x="386" 
d="M374 0h-156q-166 164 -166 350q0 182 166 350h156q-92 -91 -137 -174.5t-45 -175.5q0 -93 45 -177t137 -173z" />
    <glyph glyph-name="parenright.case" horiz-adv-x="386" 
d="M168 0h-156q92 89 137 173t45 177q0 92 -45 175.5t-137 174.5h156q166 -168 166 -350q0 -186 -166 -350z" />
    <glyph glyph-name="braceleft.case" horiz-adv-x="482" 
d="M445 577h-86q-78 0 -78 -71q0 -17 4 -36l3 -33q0 -33 -22.5 -55.5t-55.5 -31.5q34 -8 56.5 -30.5t22.5 -55.5q0 -10 -4 -34q-4 -17 -4 -36q0 -71 78 -71h86v-123h-102q-90 0 -139.5 31t-49.5 114q0 15 3 31q2 17 2 41q0 42 -26 58t-96 16v119q70 0 96 16t26 58q0 9 -2 37
q-3 17 -3 34q0 83 49.5 114t139.5 31h102v-123z" />
    <glyph glyph-name="braceright.case" horiz-adv-x="482" 
d="M323 484q0 -42 26 -58t96 -16v-119q-70 0 -96 -16t-26 -58q0 -15 3 -41q0 -2 1.5 -14t1.5 -17q0 -83 -49.5 -114t-139.5 -31h-103v123h86q79 0 79 71q0 19 -4 36q-4 24 -4 34q0 33 22.5 55.5t56.5 30.5q-33 9 -55.5 31t-22.5 56q0 17 3 33q4 19 4 36q0 71 -79 71h-86v123
h103q90 0 139.5 -31t49.5 -114q0 -1 -3 -34q-3 -21 -3 -37z" />
    <glyph glyph-name="bracketleft.case" horiz-adv-x="441" 
d="M404 0h-322v700h322v-123h-190v-454h190v-123z" />
    <glyph glyph-name="bracketright.case" horiz-adv-x="441" 
d="M359 700v-700h-322v123h190v454h-190v123h322z" />
    <glyph glyph-name="hyphen.case" horiz-adv-x="480" 
d="M415 297h-350v115h350v-115z" />
    <glyph glyph-name="endash.case" horiz-adv-x="604" 
d="M558 296h-512v115h512v-115z" />
    <glyph glyph-name="emdash.case" horiz-adv-x="682" 
d="M637 296h-593v115h593v-115z" />
    <glyph glyph-name="guillemotleft.case" horiz-adv-x="631" 
d="M340 89h-141l-152 257l152 257h141l-150 -257zM584 88h-141l-152 257l152 257h141l-150 -257z" />
    <glyph glyph-name="guillemotright.case" horiz-adv-x="631" 
d="M584 346l-152 -257h-141l150 257l-150 257h141zM340 345l-152 -257h-141l150 257l-150 257h141z" />
    <glyph glyph-name="guilsinglleft.case" horiz-adv-x="387" 
d="M340 88h-141l-152 257l152 257h141l-150 -257z" />
    <glyph glyph-name="guilsinglright.case" horiz-adv-x="387" 
d="M340 345l-152 -257h-141l150 257l-150 257h141z" />
    <glyph glyph-name="ampersand.ss13" 
d="M305 410h307v-111h-58v-299h-106l-16 58q-58 -64 -162 -64q-103 0 -166 52t-63 142q0 63 30 106.5t85 61.5q-46 18 -73 57.5t-27 92.5q0 90 67 145t176 55q115 0 183.5 -57.5t70.5 -151.5h-142q-2 42 -31 68t-78 26q-47 0 -75 -23t-28 -63q0 -44 27.5 -69.5t78.5 -25.5z
M421 232v67h-127q-52 0 -81.5 -25.5t-29.5 -68.5q0 -44 31 -70t82 -26q123 0 125 123z" />
    <glyph glyph-name="uni2087.ss07" horiz-adv-x="334" 
d="M27 264h284v-76l-138 -288h-105l139 282h-95v-49h-85v131z" />
    <glyph glyph-name="zero.dnom" horiz-adv-x="311" 
d="M156 306q59 0 93 -41t34 -114t-34 -114.5t-93 -41.5q-60 0 -94.5 41.5t-34.5 114.5t34.5 114t94.5 41zM156 243q-56 0 -56 -92q0 -17 1 -25l89 103q-14 14 -34 14zM156 58q55 0 55 93q0 15 -1 22l-88 -101q13 -14 34 -14z" />
    <glyph glyph-name="one.dnom" horiz-adv-x="251" 
d="M227 0h-203v67h67v114q-6 -3 -15 -3h-52v68h46q23 0 23 25v30h72v-233h62v-68z" />
    <glyph glyph-name="two.dnom" horiz-adv-x="292" 
d="M265 0h-236v63l120 86q36 26 36 54q0 16 -12 26.5t-29 10.5q-21 0 -33 -13t-12 -37v-3h-74v6q0 50 34 81.5t83 31.5q53 0 86.5 -28t33.5 -73q0 -51 -56 -91l-64 -47h123v-67z" />
    <glyph glyph-name="three.dnom" horiz-adv-x="300" 
d="M148 -5q-121 0 -124 107h74q2 -20 15 -32t36 -12q21 0 33 10t12 27q0 33 -47 33h-19v49h16q46 0 46 34q0 14 -11 23t-29 9q-42 0 -44 -38h-73q1 47 32.5 74t85.5 27q52 0 83 -23.5t31 -60.5q0 -26 -14.5 -42.5t-35.5 -22.5q27 -5 42.5 -24t15.5 -44q0 -43 -33.5 -68.5
t-91.5 -25.5z" />
    <glyph glyph-name="four.dnom" horiz-adv-x="313" 
d="M241 0h-71v67h-143v64l123 170h91v-172h45v-62h-45v-67zM170 233l-74 -104h74v104z" />
    <glyph glyph-name="five.dnom" horiz-adv-x="288" 
d="M144 -5q-46 0 -77.5 26.5t-35.5 68.5h72q3 -13 15 -21t27 -8q17 0 28.5 11.5t11.5 29.5q0 17 -12 29.5t-28 12.5q-29 0 -40 -23h-70l9 180h201v-63h-143l-4 -58q28 24 62 24q45 0 72.5 -28.5t27.5 -73.5q0 -47 -33 -77t-83 -30z" />
    <glyph glyph-name="six.dnom" horiz-adv-x="296" 
d="M154 -5q-59 0 -93.5 41.5t-34.5 109.5q0 71 36.5 115.5t94.5 44.5q43 0 74 -25.5t36 -66.5h-70q-7 35 -45 35q-26 0 -42 -24t-16 -56v-11q18 39 69 39q48 0 77.5 -28t29.5 -73t-32 -73t-84 -28zM154 53q19 0 31.5 12t12.5 31t-13 31.5t-31 12.5q-19 0 -32 -12.5
t-13 -30.5q0 -19 13 -31.5t32 -12.5z" />
    <glyph glyph-name="seven.dnom" horiz-adv-x="257" 
d="M119 0h-80l117 237h-143v64h224v-60z" />
    <glyph glyph-name="seven.dnom.ss07" horiz-adv-x="280" 
d="M143 0h-82l118 237h-85v-42h-67v106h232v-60z" />
    <glyph glyph-name="eight.dnom" horiz-adv-x="303" 
d="M151 -5q-58 0 -91 25t-33 64q0 58 56 73q-47 22 -47 64q0 37 31.5 61t83.5 24t83.5 -24t31.5 -61q0 -43 -46 -64q27 -7 41.5 -27t14.5 -46q0 -39 -33.5 -64t-91.5 -25zM151 180q19 0 31.5 10t12.5 25t-12 25t-32 10q-19 0 -31 -10t-12 -25t12 -25t31 -10zM151 53
q23 0 35.5 10.5t12.5 26.5q0 17 -12.5 27.5t-35.5 10.5q-22 0 -34.5 -10.5t-12.5 -27.5q0 -16 12.5 -26.5t34.5 -10.5z" />
    <glyph glyph-name="nine.dnom" horiz-adv-x="296" 
d="M140 -5q-43 0 -74 24.5t-37 67.5h70q3 -15 15 -25t30 -10q27 0 43 22.5t16 57.5q0 7 -1 11q-18 -39 -69 -39q-48 0 -77.5 28t-29.5 72q0 46 32.5 74t84.5 28q59 0 93 -41.5t34 -109.5q0 -71 -36 -115.5t-94 -44.5zM143 161q19 0 31.5 12.5t12.5 30.5q0 19 -12.5 31
t-31.5 12q-20 0 -32 -12t-12 -31t12.5 -31t31.5 -12z" />
    <glyph glyph-name="zero.numr" horiz-adv-x="311" 
d="M156 705q59 0 93 -41t34 -114t-34 -114.5t-93 -41.5q-60 0 -94.5 41.5t-34.5 114.5t34.5 114t94.5 41zM156 642q-56 0 -56 -92q0 -17 1 -25l89 103q-14 14 -34 14zM156 457q55 0 55 93q0 15 -1 22l-88 -101q13 -14 34 -14z" />
    <glyph glyph-name="one.numr" horiz-adv-x="251" 
d="M227 399h-203v67h67v114q-6 -3 -15 -3h-52v68h46q23 0 23 25v30h72v-233h62v-68z" />
    <glyph glyph-name="two.numr" horiz-adv-x="292" 
d="M265 399h-236v63l120 86q36 26 36 54q0 16 -12 26.5t-29 10.5q-21 0 -33 -13t-12 -37v-3h-74v6q0 50 34 81.5t83 31.5q53 0 86.5 -28t33.5 -73q0 -51 -56 -91l-64 -47h123v-67z" />
    <glyph glyph-name="three.numr" horiz-adv-x="300" 
d="M148 394q-121 0 -124 107h74q2 -20 15 -32t36 -12q21 0 33 10t12 27q0 33 -47 33h-19v49h16q46 0 46 34q0 14 -11 23t-29 9q-42 0 -44 -38h-73q1 47 32.5 74t85.5 27q52 0 83 -23.5t31 -60.5q0 -26 -14.5 -42.5t-35.5 -22.5q27 -5 42.5 -24t15.5 -44q0 -43 -33.5 -68.5
t-91.5 -25.5z" />
    <glyph glyph-name="four.numr" horiz-adv-x="313" 
d="M241 399h-71v67h-143v64l123 170h91v-172h45v-62h-45v-67zM170 632l-74 -104h74v104z" />
    <glyph glyph-name="five.numr" horiz-adv-x="288" 
d="M144 394q-46 0 -77.5 26.5t-35.5 68.5h72q3 -13 15 -21t27 -8q17 0 28.5 11.5t11.5 29.5q0 17 -12 29.5t-28 12.5q-29 0 -40 -23h-70l9 180h201v-63h-143l-4 -58q28 24 62 24q45 0 72.5 -28.5t27.5 -73.5q0 -47 -33 -77t-83 -30z" />
    <glyph glyph-name="six.numr" horiz-adv-x="296" 
d="M154 394q-59 0 -93.5 41.5t-34.5 109.5q0 71 36.5 115.5t94.5 44.5q43 0 74 -25.5t36 -66.5h-70q-7 35 -45 35q-26 0 -42 -24t-16 -56v-11q18 39 69 39q48 0 77.5 -28t29.5 -73t-32 -73t-84 -28zM154 452q19 0 31.5 12t12.5 31t-13 31.5t-31 12.5q-19 0 -32 -12.5
t-13 -30.5q0 -19 13 -31.5t32 -12.5z" />
    <glyph glyph-name="seven.numr" horiz-adv-x="257" 
d="M119 399h-80l117 237h-143v64h224v-60z" />
    <glyph glyph-name="seven.numr.ss07" horiz-adv-x="280" 
d="M143 399h-82l118 237h-85v-42h-67v106h232v-60z" />
    <glyph glyph-name="eight.numr" horiz-adv-x="303" 
d="M151 394q-58 0 -91 25t-33 64q0 58 56 73q-47 22 -47 64q0 37 31.5 61t83.5 24t83.5 -24t31.5 -61q0 -43 -46 -64q27 -7 41.5 -27t14.5 -46q0 -39 -33.5 -64t-91.5 -25zM151 579q19 0 31.5 10t12.5 25t-12 25t-32 10q-19 0 -31 -10t-12 -25t12 -25t31 -10zM151 452
q23 0 35.5 10.5t12.5 26.5q0 17 -12.5 27.5t-35.5 10.5q-22 0 -34.5 -10.5t-12.5 -27.5q0 -16 12.5 -26.5t34.5 -10.5z" />
    <glyph glyph-name="nine.numr" horiz-adv-x="296" 
d="M140 394q-43 0 -74 24.5t-37 67.5h70q3 -15 15 -25t30 -10q27 0 43 22.5t16 57.5q0 7 -1 11q-18 -39 -69 -39q-48 0 -77.5 28t-29.5 72q0 46 32.5 74t84.5 28q59 0 93 -41.5t34 -109.5q0 -71 -36 -115.5t-94 -44.5zM143 560q19 0 31.5 12.5t12.5 30.5q0 19 -12.5 31
t-31.5 12q-20 0 -32 -12t-12 -31t12.5 -31t31.5 -12z" />
    <glyph glyph-name="uni2077.ss07" horiz-adv-x="280" 
d="M143 436h-82l118 237h-85v-42h-67v106h232v-60z" />
    <glyph glyph-name="dotmath.case" horiz-adv-x="322" 
d="M160 274q-38 0 -64 25.5t-26 63.5q0 39 26 64.5t64 25.5q40 0 66 -25.5t26 -64.5q0 -38 -26 -63.5t-66 -25.5z" />
    <glyph glyph-name="plus.case" horiz-adv-x="578" 
d="M354 130h-129v182h-171v119h171v181h129v-181h171v-119h-171v-182z" />
    <glyph glyph-name="minus.case" horiz-adv-x="578" 
d="M525 312h-471v119h471v-119z" />
    <glyph glyph-name="multiply.case" horiz-adv-x="578" 
d="M285 280l-149 -149l-85 84l150 149l-150 150l91 92l149 -151l151 150l84 -84l-150 -150l150 -149l-91 -92z" />
    <glyph glyph-name="divide.case" horiz-adv-x="578" 
d="M289 497q-35 0 -59 23.5t-24 58.5q0 36 23.5 59t59.5 23t60.5 -23t24.5 -59q0 -35 -24.5 -58.5t-60.5 -23.5zM525 312h-471v119h471v-119zM289 81q-35 0 -59 24t-24 59t24 58.5t59 23.5q36 0 60.5 -23t24.5 -59t-24.5 -59.5t-60.5 -23.5z" />
    <glyph glyph-name="equal.case" horiz-adv-x="578" 
d="M514 422h-449v120h449v-120zM514 185h-449v120h449v-120z" />
    <glyph glyph-name="notequal.case" horiz-adv-x="578" 
d="M514 542v-120h-136l-38 -117h174v-120h-214l-33 -98h-139l32 98h-95v120h135l39 117h-174v120h214l31 95h140l-32 -95h96z" />
    <glyph glyph-name="greater.case" horiz-adv-x="578" 
d="M506 298l-433 -182v138l274 111l-274 111v138l433 -183v-133z" />
    <glyph glyph-name="less.case" horiz-adv-x="578" 
d="M506 254v-138l-433 182v133l433 183v-138l-274 -111z" />
    <glyph glyph-name="greaterequal.case" horiz-adv-x="578" 
d="M72 611l434 -183v-133l-420 -176h420v-120h-433v114h-1v137l275 112l-275 111v138z" />
    <glyph glyph-name="lessequal.case" horiz-adv-x="578" 
d="M505 250v-125h1v-120h-433v120h404l-404 170v133l432 183v-138l-274 -111z" />
    <glyph glyph-name="plusminus.case" horiz-adv-x="578" 
d="M354 193h-129v182h-171v119h171v182h129v-182h171v-119h-171v-182zM525 29h-471v119h471v-119z" />
    <glyph glyph-name="approxequal.case" horiz-adv-x="578" 
d="M190 582q42 0 74.5 -15.5t54.5 -31t41 -15.5q54 0 54 62h113q0 -187 -140 -187q-42 0 -73.5 15.5t-54 31t-41.5 15.5q-53 0 -53 -62h-113q0 93 35.5 140t102.5 47zM190 329q42 0 74.5 -15.5t54.5 -31t41 -15.5q54 0 54 62h113q0 -187 -140 -187q-42 0 -73.5 15t-54 30.5
t-41.5 15.5q-53 0 -53 -62h-113q0 93 35.5 140.5t102.5 47.5z" />
    <glyph glyph-name="asciitilde.case" horiz-adv-x="578" 
d="M165 279h-113q0 93 35.5 140.5t102.5 47.5q42 0 74.5 -15.5t54.5 -31t41 -15.5q54 0 54 62h113q0 -187 -140 -187q-42 0 -73.5 15t-54 30.5t-41.5 15.5q-53 0 -53 -62z" />
    <glyph glyph-name="logicalnot.case" horiz-adv-x="578" 
d="M490 154h-127v178h-299v120h426v-298z" />
    <glyph glyph-name="arrowup.case" horiz-adv-x="631" 
d="M377 0h-123v477l-162 -166l-86 86l310 309l309 -309l-85 -86l-163 166v-477z" />
    <glyph glyph-name="uni2197.case" horiz-adv-x="625" 
d="M450 419l-350 -354l-87 87l352 351l-234 -1v121l439 1v-439h-121z" />
    <glyph glyph-name="arrowright.case" horiz-adv-x="644" 
d="M637 351l-295 -309l-89 83l162 164h-397v123l397 1l-162 164l88 83z" />
    <glyph glyph-name="uni2198.case" horiz-adv-x="625" 
d="M13 539l87 86l350 -353l-1 233h121v-438h-439v121l234 -1z" />
    <glyph glyph-name="arrowdown.case" horiz-adv-x="631" 
d="M254 223v477h123v-477l163 166l85 -86l-309 -309l-310 309l86 86z" />
    <glyph glyph-name="uni2199.case" horiz-adv-x="625" 
d="M491 68l-436 -1v437h121l-2 -232l351 354l88 -87l-353 -351l231 1v-121z" />
    <glyph glyph-name="arrowleft.case" horiz-adv-x="644" 
d="M391 125l-89 -83l-295 309l295 309l89 -83l-162 -164l397 -1v-123h-397z" />
    <glyph glyph-name="uni2196.case" horiz-adv-x="625" 
d="M55 186v436h436v-122l-231 2l353 -352l-88 -87l-351 354l2 -231h-121z" />
    <glyph glyph-name="arrowboth.case" horiz-adv-x="718" 
d="M315 126l-95 -74l-204 298l203 298l97 -73l-112 -163h316l-117 163l96 73l203 -299l-203 -297l-95 74l115 163h-316z" />
    </font>
</defs>
</svg>
